{"glyphs":{":":{"x_min":0,"x_max":212,"ha":212,"o":"m 48 123 q 61 123 70 114 q 78 105 78 92 q 78 80 70 71 q 61 62 48 62 q 35 62 26 71 q 18 80 18 92 q 18 105 26 114 q 35 123 48 123 z m 48 79 q 61 79 61 92 q 61 106 48 106 q 35 106 35 92 q 35 79 48 79 z m 134 315 q 147 315 156 306 q 164 298 164 285 q 164 273 156 264 q 147 255 134 255 q 121 255 112 264 q 104 273 104 285 q 104 298 112 306 q 121 315 134 315 z m 134 272 q 147 272 147 285 q 147 298 134 298 q 121 298 121 285 q 121 272 134 272 z"},"$":{"x_min":0,"x_max":283,"ha":283,"o":"m 269 404 q 282 384 282 362 q 282 358 280 348 q 278 338 274 327 q 271 316 265 308 q 259 299 251 299 q 248 299 246 302 q 243 305 243 308 q 243 311 245 313 q 265 337 265 362 q 265 376 259 388 l 176 255 q 185 235 192 214 q 198 194 198 172 q 198 150 188 130 q 179 109 163 94 q 147 78 128 68 q 108 59 89 59 q 74 59 63 63 l 54 48 q 51 43 46 43 q 43 43 40 46 q 38 49 38 52 q 38 55 39 56 l 47 70 q 43 72 40 74 q 36 77 33 80 l 14 48 q 11 43 6 43 q 3 43 0 46 q -2 49 -2 52 q -2 55 -1 56 l 21 92 q -2 118 -2 151 q -2 156 0 165 q 1 174 4 182 q 7 191 12 198 q 16 204 22 204 q 31 204 31 196 q 31 194 29 190 q 15 175 15 153 q 15 141 19 130 q 23 118 30 108 l 123 262 q 117 280 113 297 q 109 314 109 332 q 109 350 116 369 q 124 388 137 404 q 150 419 167 428 q 184 438 204 438 q 217 438 228 435 l 246 463 q 247 467 253 467 q 261 467 261 459 q 261 456 260 455 l 244 428 q 251 423 257 418 l 286 463 q 287 467 293 467 q 302 467 302 459 q 302 457 300 455 z m 72 78 q 79 75 89 75 q 99 75 112 80 q 125 85 136 94 q 148 102 156 114 q 164 125 164 139 q 164 153 159 170 q 154 186 147 204 z m 219 420 q 216 421 212 421 q 209 421 206 421 q 195 421 184 416 q 172 411 162 403 q 153 395 147 384 q 141 372 141 359 q 141 348 144 336 q 148 323 153 310 z m 56 84 l 139 223 l 131 242 l 42 94 z m 248 403 q 248 405 242 408 q 237 412 235 413 l 161 291 q 163 287 166 282 q 168 276 168 274 z m 180 157 q 181 162 181 168 q 181 173 181 179 q 179 207 166 233 q 154 259 144 288 l 143 288 q 138 301 134 313 q 129 325 126 338 q 126 315 133 292 q 140 268 149 244 q 158 221 167 199 q 176 177 180 157 z"},"?":{"x_min":0,"x_max":230,"ha":230,"o":"m 329 432 q 305 406 268 379 q 231 352 195 324 q 159 296 131 268 q 103 240 97 211 q 95 205 88 205 q 84 204 82 207 q 80 210 80 212 l 80 214 q 84 245 105 276 q 126 307 155 336 q 184 366 217 392 q 250 419 278 442 q 305 465 323 483 q 341 501 341 513 q 341 529 324 536 q 307 544 289 544 q 278 544 266 542 q 254 539 240 532 q 227 524 210 511 q 193 498 171 477 q 147 454 135 438 q 123 422 117 412 q 111 402 109 398 q 107 393 103 393 q 97 393 93 403 q 89 413 89 423 q 89 445 109 470 q 129 494 159 514 q 189 534 224 548 q 259 561 288 561 q 320 561 341 545 q 362 529 362 499 q 362 466 329 432 z m 32 123 q 45 123 54 114 q 62 105 62 92 q 62 80 54 71 q 45 62 32 62 q 19 62 10 71 q 2 80 2 92 q 2 105 10 114 q 19 123 32 123 z m 166 324 q 191 343 218 362 q 246 382 270 402 q 295 421 314 440 q 332 459 340 477 q 328 463 308 446 q 287 429 264 410 q 240 390 214 368 q 189 347 166 324 z m 32 79 q 45 79 45 92 q 45 106 32 106 q 19 106 19 92 q 19 79 32 79 z m 176 505 q 150 489 130 469 q 110 449 107 429 q 119 448 136 466 q 153 484 159 489 z"},"<":{"x_min":0,"x_max":272,"ha":272,"o":"m 195 292 q 197 294 200 294 q 203 294 206 292 q 209 289 209 285 q 209 282 205 278 l 87 199 l 129 127 q 130 126 130 123 q 130 115 122 115 q 117 115 114 119 l 69 198 q 67 200 67 202 q 67 207 71 209 l 195 292 z"},"'":{"x_min":0,"x_max":120,"ha":120,"o":"m 187 520 q 207 515 212 506 q 216 497 216 492 q 216 468 172 424 q 142 394 131 387 q 120 380 119 380 q 110 380 110 388 q 110 389 110 390 q 111 390 111 392 q 111 392 118 406 q 126 420 136 439 q 146 458 158 480 q 169 501 178 516 q 181 520 187 520 z m 160 436 q 186 462 192 474 q 199 487 199 492 q 199 498 190 502 q 180 485 168 464 q 156 442 146 423 q 150 426 154 429 q 157 432 160 436 z"},"=":{"x_min":0,"x_max":343,"ha":343,"o":"m 245 192 q 253 192 253 183 q 253 171 244 164 q 235 157 223 153 q 211 149 198 148 q 186 147 179 147 q 173 147 151 148 q 129 149 104 150 q 80 152 60 154 q 40 157 38 160 q 33 168 46 179 q 60 190 76 190 z m 179 164 q 214 164 228 175 l 78 175 q 68 171 64 168 q 73 168 89 168 q 105 167 122 166 q 139 165 154 164 q 170 164 179 164 z m 285 262 q 293 262 293 253 q 293 241 284 234 q 275 227 263 223 q 251 219 238 218 q 226 217 219 217 q 213 217 191 218 q 169 219 144 220 q 120 222 100 224 q 80 227 78 230 q 73 238 86 249 q 100 260 116 260 z m 219 234 q 254 234 268 245 l 118 245 q 108 241 104 238 q 113 238 129 238 q 145 237 162 236 q 179 235 194 234 q 210 234 219 234 z"},"a":{"x_min":0,"x_max":325,"ha":325,"o":"m 329 216 q 333 214 333 209 q 333 206 331 204 q 317 181 298 156 q 279 132 258 112 q 237 92 216 78 q 195 65 178 64 q 155 64 142 71 q 130 78 124 88 q 117 98 116 109 q 114 120 114 128 q 96 102 75 84 q 54 65 28 65 q -37 65 -37 125 q -37 158 -16 196 q 4 234 34 266 q 65 299 102 320 q 138 342 171 342 q 185 342 198 336 q 212 329 212 314 q 227 328 238 333 q 249 338 258 338 q 268 338 274 333 q 279 328 279 323 q 279 320 277 318 q 263 304 244 278 q 224 252 206 222 q 187 192 174 162 q 161 133 161 112 q 161 102 164 92 q 168 83 179 81 q 190 81 208 92 q 225 104 244 122 q 264 140 283 164 q 302 187 317 213 q 318 217 324 217 q 327 217 329 216 z m 29 82 q 56 82 76 104 q 95 127 113 160 q 131 193 150 230 q 168 267 193 295 q 198 307 194 316 q 189 325 173 325 q 144 325 115 301 q 86 277 62 244 q 38 210 23 173 q 8 136 8 109 q 8 99 12 90 q 15 82 29 82 z m 133 109 q 136 94 148 88 q 146 93 145 99 q 144 105 144 113 q 144 135 156 164 q 168 193 186 222 q 203 251 222 278 q 241 304 256 321 q 252 321 244 317 q 236 312 218 294 q 199 276 180 250 q 161 223 146 190 q 131 157 131 124 q 131 119 133 109 z m -20 125 q -20 114 -17 106 q -14 99 -6 91 q -8 96 -8 109 q -8 133 0 158 q 8 182 19 204 q 30 226 42 244 q 54 262 62 272 q 44 256 28 236 q 13 217 2 197 q -8 177 -14 158 q -20 140 -20 125 z"},"L":{"x_min":0,"x_max":668,"ha":668,"o":"m 955 -41 q 956 -47 956 -52 q 956 -58 956 -63 q 956 -116 931 -152 q 906 -187 872 -208 q 837 -230 800 -240 q 763 -249 739 -249 q 700 -249 666 -236 q 632 -222 600 -202 q 569 -181 540 -156 q 510 -132 481 -109 q 452 -86 423 -68 q 394 -51 363 -45 l 344 -71 q 340 -76 322 -97 q 305 -118 280 -141 q 256 -164 226 -182 q 197 -201 169 -201 q 148 -201 134 -188 q 121 -175 121 -152 q 121 -137 132 -114 q 143 -91 166 -70 q 188 -49 222 -34 q 257 -19 305 -19 l 306 -19 q 314 -19 321 -19 q 328 -19 335 -21 q 357 21 379 69 q 401 117 424 168 q 446 219 469 270 q 492 322 516 370 q 481 364 442 357 q 402 350 346 345 q 278 336 224 318 q 169 300 131 276 q 93 251 72 220 q 52 190 52 154 q 52 99 82 73 q 112 47 156 47 q 176 47 202 53 q 227 59 250 72 q 272 84 287 103 q 302 122 302 148 q 302 151 302 154 q 302 158 301 161 q 301 170 310 170 q 317 170 318 162 q 319 154 319 148 q 319 115 296 90 q 273 65 241 49 q 226 41 210 36 q 193 30 177 27 q 161 24 147 22 q 133 21 124 21 q 90 21 68 30 q 45 40 31 55 q 17 70 11 88 q 5 107 5 126 q 5 148 15 176 q 25 203 48 231 q 71 259 108 284 q 144 309 197 327 q 230 339 270 347 q 309 355 352 362 q 394 368 438 374 q 482 380 526 389 q 592 518 658 586 q 723 655 796 655 q 816 655 830 644 q 843 632 843 610 q 843 576 810 531 q 768 473 711 440 q 654 407 589 388 l 521 251 q 483 173 445 98 q 407 24 373 -30 q 379 -32 386 -35 q 437 -53 487 -82 q 537 -111 588 -138 q 638 -166 689 -186 q 740 -207 791 -207 q 822 -207 849 -196 q 876 -186 896 -168 q 916 -149 928 -122 q 939 -96 939 -64 q 939 -59 938 -53 q 938 -47 938 -42 q 938 -34 946 -34 q 953 -34 955 -41 z m 727 605 q 700 582 668 530 q 635 477 600 409 q 634 420 674 440 q 713 461 747 488 q 781 515 804 546 q 826 577 826 609 q 826 623 818 630 q 810 638 790 638 q 777 636 760 628 q 744 621 727 605 z m 255 -140 q 273 -121 291 -95 q 309 -69 326 -37 q 319 -36 312 -36 q 306 -35 299 -35 q 260 -35 230 -48 q 200 -62 180 -80 q 159 -99 148 -118 q 138 -138 138 -151 q 138 -166 146 -175 q 154 -184 168 -184 q 188 -184 210 -172 q 233 -160 255 -140 z m 356 -25 q 372 2 390 34 q 409 67 428 104 q 448 141 468 180 q 487 219 506 258 l 567 382 q 606 450 636 506 q 667 563 696 598 q 654 565 618 512 q 581 459 548 394 l 537 375 q 486 272 442 168 q 398 63 352 -24 l 337 -51 z m 526 -127 q 551 -147 576 -166 q 602 -185 628 -200 q 654 -214 681 -223 q 708 -232 738 -232 q 762 -232 792 -224 l 791 -224 q 758 -224 725 -216 q 692 -207 660 -193 q 627 -179 595 -162 q 563 -144 531 -126 l 512 -114 z m 102 40 q 70 54 52 85 q 35 116 35 154 q 35 174 41 192 q 22 158 22 125 q 22 90 44 68 q 65 45 102 40 z"},"3":{"x_min":0,"x_max":999,"ha":999,"o":"m 8 441 q 46 461 82 478 q 119 495 161 507 q 164 507 166 518 q 168 529 170 542 q 173 556 175 568 q 177 581 179 586 q 185 595 194 602 q 204 609 215 614 q 226 620 238 624 q 249 629 258 633 q 306 653 355 667 q 404 681 454 694 q 505 706 556 715 q 608 724 660 729 q 678 731 704 734 q 729 736 755 735 q 781 734 804 728 q 828 723 843 708 q 845 705 842 692 q 840 679 839 674 l 836 621 q 836 619 838 619 q 880 607 920 588 q 961 568 988 531 l 988 530 q 979 532 968 528 q 956 524 945 517 q 934 510 924 502 q 915 494 910 488 q 926 479 936 462 q 947 445 952 426 q 956 406 956 386 q 955 366 949 350 q 940 373 922 386 q 904 399 882 405 q 859 411 835 413 q 811 415 790 416 q 766 418 739 417 q 712 416 689 424 q 680 427 676 438 q 673 449 672 462 q 672 474 674 486 q 676 499 677 507 q 577 499 480 476 q 382 453 289 421 q 284 419 284 418 q 285 412 288 399 q 292 386 294 372 q 297 358 298 346 q 298 334 294 330 q 282 320 263 318 q 244 316 228 314 q 207 311 185 308 q 163 305 142 301 q 104 293 72 280 q 64 275 56 272 q 49 269 41 264 q 37 260 32 253 q 26 246 22 244 q 28 263 36 281 q 43 299 50 316 q 51 319 57 330 q 63 340 69 352 q 75 363 79 372 q 83 382 82 384 q 68 404 50 422 q 32 439 8 441 z m 819 508 q 822 538 822 569 q 822 600 824 629 q 824 645 826 660 q 827 676 829 691 q 830 706 814 710 q 799 715 786 717 q 721 727 652 718 q 583 708 519 694 q 449 680 380 662 q 312 643 246 614 q 234 608 221 602 q 208 595 197 586 q 186 576 184 559 q 181 542 179 529 q 174 493 174 457 q 174 421 174 384 q 179 384 186 388 q 194 391 202 396 q 210 401 218 406 q 225 411 230 413 q 250 421 270 428 q 291 436 312 444 q 354 457 396 468 q 438 479 483 489 q 525 498 566 506 q 608 514 652 518 q 691 522 736 524 q 781 525 819 508 z m 722 577 q 717 572 714 568 q 710 564 703 562 q 698 560 694 562 q 691 564 688 567 q 685 565 681 562 q 677 560 672 559 q 655 556 649 570 l 649 571 q 644 566 640 562 q 635 558 627 556 q 620 552 613 562 q 610 568 612 574 q 613 580 616 586 q 619 592 621 598 q 623 605 622 611 q 613 607 608 600 q 604 594 602 586 q 600 579 598 571 q 597 563 594 556 q 592 547 581 551 q 577 552 577 557 q 577 559 578 562 q 578 564 578 566 q 570 564 568 564 q 565 564 559 558 q 554 552 546 548 q 538 543 529 543 q 523 544 520 548 q 517 551 514 556 q 505 546 492 538 q 480 529 466 531 q 459 532 452 541 q 446 534 440 528 q 433 523 424 521 q 409 515 407 532 q 405 546 412 556 q 418 566 423 577 q 424 579 422 580 q 419 580 418 578 q 414 567 408 554 q 403 541 394 530 q 386 518 375 510 q 364 503 349 504 q 332 505 330 516 q 327 528 332 542 q 338 555 350 566 q 361 578 373 579 q 380 579 382 573 q 388 567 383 558 q 380 546 368 536 q 357 527 344 524 q 346 518 350 517 q 355 516 360 518 q 365 521 370 524 q 374 528 376 530 q 389 541 396 555 q 402 569 407 583 q 408 586 402 596 q 395 606 397 614 q 399 620 404 624 q 410 628 416 627 q 422 627 424 620 q 427 614 426 608 q 424 601 424 594 q 435 596 440 594 q 445 593 438 579 q 433 570 428 560 q 423 551 422 541 q 422 536 426 536 q 438 535 446 546 q 453 557 459 572 q 465 586 470 600 q 476 613 484 618 q 489 619 493 617 q 494 614 494 610 q 492 603 488 598 q 485 594 488 586 q 491 579 495 572 q 499 565 498 557 l 499 557 q 505 563 509 572 q 513 581 517 590 q 521 599 526 606 q 532 614 541 618 q 561 625 568 607 q 573 599 571 593 q 569 587 570 578 q 576 579 578 583 q 586 590 588 602 q 589 614 592 624 q 594 627 598 628 q 602 628 604 627 q 610 626 609 620 l 609 619 q 615 625 622 628 q 634 634 638 621 q 640 615 638 609 q 637 603 634 597 q 631 591 628 585 q 626 579 627 572 q 635 578 640 586 q 645 594 650 602 q 654 611 660 618 q 665 626 673 631 q 680 635 686 634 q 693 633 701 631 q 703 635 710 636 q 718 636 716 628 q 714 617 708 606 q 702 595 702 584 q 702 578 707 583 q 718 594 724 609 q 729 624 734 640 q 739 655 747 668 q 755 682 770 691 q 778 695 783 687 q 790 674 785 660 q 780 647 772 638 q 768 633 762 626 q 755 620 749 614 q 743 607 738 600 q 734 593 736 586 q 737 577 748 579 q 756 582 760 589 q 763 596 768 603 q 770 604 774 604 q 779 604 779 599 l 777 592 q 767 571 748 563 q 734 555 724 571 q 722 573 722 577 z m 964 539 q 938 565 904 580 q 871 596 836 606 q 834 574 834 544 q 833 514 831 483 l 830 484 l 830 481 q 815 480 795 479 q 775 478 754 474 q 734 470 717 462 q 700 454 691 441 q 687 438 693 437 q 708 431 724 429 q 741 427 758 427 q 775 427 792 428 q 809 428 824 427 q 839 426 855 424 q 871 422 887 417 q 903 412 915 404 q 927 396 941 389 q 941 422 930 446 q 918 471 886 483 q 904 500 922 516 q 941 531 964 539 z m 162 494 q 100 478 38 444 q 73 424 97 386 q 98 384 95 377 q 92 370 88 362 q 83 354 78 346 q 74 339 73 336 q 66 324 61 311 q 56 298 51 284 q 78 299 108 306 q 137 312 166 316 q 196 320 226 324 q 255 329 284 338 q 275 348 259 352 q 243 355 225 356 q 207 356 190 354 q 172 353 160 352 q 160 387 160 423 q 160 459 162 494 z m 417 184 q 417 189 416 192 q 414 194 412 197 l 443 197 q 458 190 470 169 q 483 148 490 133 q 490 147 491 166 q 492 185 484 197 l 524 197 q 518 191 518 184 q 519 176 519 168 l 519 34 q 519 26 518 17 q 518 8 524 2 l 412 2 q 418 9 420 20 q 421 32 420 45 q 420 58 418 70 q 417 82 417 91 z m 360 197 q 380 197 390 186 q 399 175 402 158 q 405 142 404 124 q 403 105 403 91 l 403 48 q 403 22 388 12 q 374 1 350 2 q 329 2 320 13 q 310 24 307 40 q 304 57 305 76 q 306 94 306 108 q 306 119 305 129 q 304 139 306 150 q 306 177 320 187 q 335 197 360 197 z m 301 612 q 308 612 312 611 q 321 610 327 603 q 333 596 334 586 q 338 562 322 540 q 306 519 286 507 q 276 500 270 490 q 265 479 260 468 q 256 458 250 448 q 243 438 231 432 q 217 423 202 427 q 186 432 188 448 q 188 459 196 468 q 205 477 216 479 q 219 480 224 478 q 229 475 227 470 q 219 466 214 466 q 208 464 206 457 q 203 450 207 444 q 209 442 212 442 q 214 441 216 440 q 226 439 234 446 q 241 454 246 464 q 250 475 253 486 q 256 498 258 506 q 243 491 224 487 q 219 486 212 487 q 206 488 201 493 q 192 498 192 513 q 192 528 199 541 q 215 575 246 594 q 260 603 274 607 q 280 609 286 614 q 293 618 298 619 q 304 619 301 612 z m 416 327 q 414 335 410 348 q 407 361 406 374 q 404 387 406 399 q 409 411 418 417 q 424 422 436 422 q 447 423 451 413 q 454 404 450 402 q 446 399 440 400 q 434 400 430 404 q 426 407 431 412 q 422 407 422 396 q 421 385 425 372 q 429 360 434 348 q 440 336 442 329 q 449 309 452 282 q 454 254 440 236 q 434 228 422 226 q 409 223 394 223 q 380 223 366 224 q 352 226 343 226 q 349 234 351 246 q 353 258 352 272 q 352 285 350 298 q 349 312 349 321 l 349 389 q 349 397 350 405 q 350 413 343 421 l 384 421 q 376 414 378 404 q 379 393 379 383 l 379 307 q 379 297 378 280 q 376 262 383 254 q 387 248 393 248 q 399 247 404 250 q 409 253 414 258 q 418 263 419 268 q 423 282 420 298 q 418 313 416 327 z m 644 352 q 642 347 636 336 q 630 324 625 311 q 620 298 618 287 q 617 276 624 272 q 621 278 627 279 q 633 280 639 278 q 645 275 646 270 q 648 265 637 260 q 623 255 618 265 q 612 275 613 284 q 613 293 616 302 q 620 312 621 320 q 622 327 619 331 q 616 335 603 334 l 603 250 q 613 250 626 248 q 640 246 650 254 q 647 246 646 240 q 644 234 642 226 l 567 226 q 572 232 572 239 q 573 246 573 254 l 573 389 q 573 397 572 406 q 572 414 567 421 l 636 421 q 649 407 650 388 q 650 370 644 352 z m 547 416 q 547 408 551 400 q 555 392 558 384 q 561 375 560 367 q 560 359 552 352 q 544 346 534 347 q 523 348 522 359 q 522 365 526 368 q 530 371 534 371 q 539 371 542 368 q 545 366 544 361 q 551 362 551 368 q 551 373 548 379 q 544 385 538 390 q 532 396 528 397 q 520 399 510 397 q 500 395 497 387 q 490 373 494 364 q 499 354 508 346 q 517 338 528 331 q 540 324 546 316 q 554 305 558 290 q 562 276 560 262 q 558 248 549 238 q 540 228 523 226 q 509 224 494 225 q 479 226 464 226 q 469 228 468 236 q 466 244 463 254 q 460 264 458 274 q 457 285 462 292 q 465 295 470 297 q 475 299 480 299 q 485 299 489 296 q 493 294 494 288 q 494 282 490 280 q 487 277 482 277 q 478 277 474 280 q 471 282 471 287 q 464 285 464 279 q 464 273 468 267 q 472 261 478 256 q 483 252 487 251 q 495 249 506 249 q 516 249 522 254 q 534 266 532 277 q 529 288 520 298 q 512 307 501 314 q 490 322 484 328 q 474 337 468 351 q 462 365 462 379 q 461 393 468 404 q 475 416 492 420 q 506 423 521 422 q 536 421 550 421 z m 151 -72 l 128 -193 l 104 -193 q 101 -173 98 -153 q 96 -133 93 -113 q 91 -133 87 -153 q 83 -173 80 -193 l 57 -193 l 36 -72 l 61 -72 q 63 -94 65 -117 q 67 -140 71 -162 q 73 -139 76 -116 q 80 -94 84 -72 l 104 -72 l 118 -162 q 120 -139 122 -116 q 125 -94 128 -72 z m 269 -72 l 246 -193 l 223 -193 q 216 -155 211 -113 q 209 -133 206 -153 q 202 -173 199 -193 l 174 -193 l 154 -72 l 179 -72 q 181 -94 183 -117 q 185 -140 189 -162 q 191 -139 194 -116 q 198 -94 202 -72 l 223 -72 l 236 -162 q 238 -139 240 -116 q 243 -94 246 -72 z m 387 -72 l 364 -193 l 341 -193 q 337 -173 334 -153 q 332 -133 329 -113 q 327 -133 324 -153 q 320 -173 317 -193 l 293 -193 l 272 -72 l 297 -72 q 299 -94 302 -117 q 304 -140 307 -162 q 309 -139 312 -116 q 315 -94 320 -72 l 341 -72 l 354 -162 q 356 -139 358 -116 q 361 -94 364 -72 z m 596 -136 q 604 -139 608 -146 q 611 -153 613 -162 q 615 -170 616 -178 q 617 -187 620 -193 l 592 -193 q 589 -187 588 -178 q 586 -170 584 -162 q 582 -155 578 -150 q 573 -146 563 -147 l 563 -193 l 534 -193 l 534 -73 q 549 -71 569 -70 q 589 -69 603 -78 q 620 -90 616 -109 q 612 -128 596 -136 z m 820 -193 l 792 -193 q 781 -173 772 -151 q 764 -129 753 -109 q 754 -130 754 -152 q 754 -173 754 -193 l 729 -193 l 729 -72 l 760 -72 l 797 -154 q 795 -134 794 -113 q 794 -92 794 -72 l 820 -72 z m 530 2 q 536 10 538 22 q 540 34 540 48 q 539 61 538 74 q 536 87 536 96 l 536 164 q 536 173 536 181 q 537 189 530 197 l 571 197 q 565 191 564 180 q 562 169 562 157 q 563 145 564 133 q 566 121 566 114 l 566 24 l 622 24 q 634 24 652 23 q 671 22 682 30 q 680 25 678 14 q 676 2 671 2 z m 520 -193 l 492 -193 l 484 -166 l 456 -166 l 450 -193 l 421 -193 l 453 -72 l 488 -72 z m 931 -189 q 909 -197 888 -194 q 868 -190 854 -178 q 840 -165 836 -146 q 832 -126 844 -102 q 851 -86 866 -78 q 882 -71 900 -71 q 901 -71 906 -71 q 910 -71 916 -72 q 921 -73 924 -74 q 928 -75 928 -77 l 923 -99 q 909 -92 897 -94 q 885 -96 878 -104 q 870 -112 867 -124 q 864 -137 868 -150 q 876 -175 901 -172 q 907 -171 906 -160 q 904 -150 904 -146 l 890 -146 l 890 -123 l 931 -123 z m 626 100 q 619 112 614 124 q 609 137 604 150 q 599 163 597 176 q 595 189 584 197 l 627 197 q 620 182 628 162 q 635 141 642 128 q 649 144 654 162 q 659 180 654 197 l 698 197 q 686 190 684 176 q 681 161 678 150 q 674 139 665 124 q 656 109 656 98 q 656 86 654 68 q 653 49 661 39 l 620 39 q 630 49 628 68 q 626 88 626 100 z m 374 150 q 374 159 369 165 q 364 171 357 173 q 350 175 344 172 q 338 169 336 160 q 334 152 335 144 q 336 136 336 129 q 336 109 335 88 q 334 68 336 48 q 336 40 341 34 q 346 28 352 26 q 359 23 365 26 q 371 29 373 39 q 374 46 374 54 q 374 62 374 70 z m 490 19 q 488 53 479 88 q 470 123 447 151 l 447 26 q 447 18 454 13 q 460 8 468 7 q 475 6 482 8 q 489 11 490 19 z m 280 596 q 265 592 252 582 q 239 573 228 562 q 225 558 220 548 q 214 538 210 528 q 207 517 208 508 q 210 500 221 500 q 237 500 248 511 q 258 522 264 537 q 270 552 274 568 q 277 585 280 596 z m 636 -72 l 664 -72 l 664 -193 l 636 -193 z m 277 516 q 285 518 293 526 q 301 534 306 544 q 312 555 314 566 q 317 578 314 586 q 312 592 307 595 q 302 598 297 598 q 289 578 286 557 q 282 536 277 516 z m 603 398 l 603 359 q 609 359 616 359 q 622 359 628 360 q 634 362 638 366 q 643 370 643 378 q 643 387 639 391 q 635 395 629 396 q 623 398 616 398 q 609 398 603 398 z m 694 614 q 693 619 692 622 q 691 624 686 622 q 676 618 671 610 q 666 601 664 592 q 663 589 663 584 q 663 580 664 577 q 666 574 669 573 q 672 572 677 576 q 684 582 688 593 q 693 604 694 614 z m 527 574 l 529 567 q 534 558 542 563 q 550 566 554 575 q 559 584 557 593 q 556 599 552 602 q 548 606 540 600 q 534 595 531 588 q 528 582 527 574 z m 377 -178 q 377 -170 382 -166 q 387 -162 394 -162 q 400 -162 405 -166 q 410 -170 410 -178 q 410 -186 405 -190 q 400 -195 394 -195 q 387 -195 382 -190 q 377 -186 377 -178 z m 680 -178 q 680 -170 685 -166 q 690 -162 696 -162 q 703 -162 708 -166 q 713 -170 713 -178 q 713 -186 708 -190 q 703 -195 696 -195 q 690 -195 685 -190 q 680 -186 680 -178 z m 570 -126 q 580 -126 584 -120 q 589 -115 588 -108 q 587 -101 582 -96 q 576 -91 567 -92 q 564 -92 563 -96 q 562 -101 562 -106 q 562 -112 562 -118 q 563 -123 563 -126 z m 481 -144 q 476 -120 470 -94 l 459 -144 z m 474 576 q 471 571 466 563 q 462 555 463 550 q 465 543 472 544 q 479 545 480 552 q 481 563 474 576 z m 344 536 q 351 534 360 544 q 369 554 370 559 q 372 563 369 566 q 366 568 362 564 q 356 559 352 552 q 348 544 344 536 z m 772 674 l 771 674 q 751 654 744 628 q 753 639 762 650 q 770 660 772 674 z m 412 599 l 414 599 q 414 603 415 606 q 416 609 414 613 q 411 613 410 610 q 409 605 412 599 z"},";":{"x_min":0,"x_max":217,"ha":217,"o":"m 48 135 q 68 131 72 122 q 77 112 77 106 q 77 82 33 38 q 16 21 6 12 q -5 3 -11 -1 q -17 -5 -18 -6 q -20 -6 -20 -6 q -29 -6 -29 3 q -29 5 -28 7 q -28 7 -20 21 q -13 35 -3 54 q 7 73 18 94 q 30 116 39 131 q 42 135 48 135 z m 166 285 q 166 273 157 264 q 148 255 135 255 q 123 255 114 264 q 105 273 105 285 q 105 298 114 306 q 123 315 135 315 q 148 315 157 306 q 166 298 166 285 z m 21 51 q 47 77 54 90 q 60 102 60 107 q 60 112 51 117 q 40 100 28 78 q 17 56 7 37 z m 135 272 q 149 272 149 285 q 149 298 135 298 q 122 298 122 285 q 122 272 135 272 z"},"J":{"x_min":0,"x_max":784,"ha":784,"o":"m 1027 647 q 1027 628 992 614 q 957 601 897 599 q 868 570 836 522 q 804 475 772 408 l 755 372 q 740 341 722 304 q 704 266 684 228 q 665 190 646 154 q 628 117 613 88 q 539 -56 444 -130 q 348 -204 221 -204 q 161 -202 120 -182 q 79 -162 54 -132 q 28 -101 16 -64 q 5 -28 5 8 q 5 50 18 93 q 30 136 54 174 q 79 213 116 244 q 153 276 202 297 q 185 320 177 348 q 169 375 169 403 q 169 451 190 497 q 212 543 253 578 q 269 592 292 607 q 315 622 346 634 q 377 646 416 654 q 456 661 505 661 q 576 661 650 648 l 703 639 q 741 632 780 626 q 819 620 857 618 q 919 665 988 665 q 1014 665 1020 658 q 1027 651 1027 647 z m 367 -157 q 420 -126 463 -70 q 506 -15 543 54 q 580 124 613 202 q 646 279 681 353 q 716 427 754 492 q 792 557 839 602 q 804 605 769 610 q 734 616 700 622 l 648 631 q 612 637 575 640 q 538 644 496 644 q 455 642 407 626 q 359 609 318 577 q 277 545 249 498 q 221 450 221 386 q 221 366 225 346 q 229 327 238 311 q 261 318 290 323 q 319 328 348 328 q 365 328 385 325 q 405 322 424 315 q 442 308 458 296 q 474 283 484 265 q 526 288 550 326 q 573 363 573 403 q 573 415 570 427 q 566 439 566 451 q 566 454 568 457 q 570 460 575 460 q 580 460 583 454 q 586 447 588 438 q 589 429 590 420 q 590 410 590 404 q 590 359 564 318 q 539 277 492 250 q 502 227 502 199 q 502 193 500 181 q 499 169 496 156 q 494 144 490 135 q 485 126 479 126 q 476 126 472 128 q 468 131 471 138 q 485 169 485 199 q 485 221 477 243 q 430 221 379 221 q 324 221 286 235 q 247 249 221 275 q 195 260 174 240 q 153 221 136 201 q 120 181 108 162 q 97 144 90 131 q 73 100 66 66 q 58 33 58 0 q 58 -83 104 -134 q 149 -185 227 -187 q 266 -187 300 -179 q 335 -171 367 -157 z m 891 616 q 893 618 896 620 q 898 623 902 625 q 897 623 889 620 q 881 616 862 600 q 825 569 792 520 q 760 472 730 414 q 701 356 673 292 q 645 227 616 164 q 586 100 554 40 q 523 -20 486 -68 q 520 -34 552 17 q 584 68 616 128 q 647 188 678 253 q 708 318 739 380 l 757 416 q 773 449 790 480 q 807 512 824 539 q 842 566 859 586 q 876 606 891 616 z m 251 291 q 266 270 298 254 q 329 238 379 238 q 426 238 469 258 q 452 283 423 297 q 394 311 353 311 q 297 311 251 291 z m 22 8 q 22 -34 38 -74 q 53 -114 88 -143 l 76 -127 q 59 -101 50 -68 q 41 -34 41 1 q 41 74 75 139 q 87 162 112 198 q 137 233 176 265 q 140 244 111 215 q 82 186 62 152 q 43 118 32 82 q 22 45 22 8 z m 186 403 q 187 369 196 342 q 206 316 232 287 q 215 308 210 334 q 204 359 204 386 q 204 455 239 513 q 274 571 331 609 q 261 577 224 520 q 186 464 186 403 z m 959 623 q 986 628 997 635 q 1008 642 1010 645 q 1007 648 996 648 q 956 648 918 617 q 940 619 959 623 z"},"V":{"x_min":0,"x_max":842,"ha":842,"o":"m 1116 636 q 1116 628 1100 628 q 1072 628 1028 588 q 985 549 931 484 q 877 420 816 340 q 755 259 691 176 q 627 94 564 18 q 500 -58 442 -112 q 400 -153 362 -178 q 324 -202 292 -202 q 217 -202 217 -131 q 217 -98 233 -54 q 249 -10 276 39 q 303 88 338 139 q 373 190 410 237 q 429 262 455 299 q 481 336 504 378 q 528 420 544 462 q 560 505 560 542 q 560 561 554 579 q 548 597 536 610 q 524 624 505 632 q 486 640 459 640 q 432 640 392 628 q 351 617 306 596 q 261 575 216 544 q 172 514 136 476 q 101 437 79 392 q 57 347 57 296 q 57 258 72 236 q 87 213 116 213 q 122 213 130 214 q 139 216 154 221 q 181 232 206 249 q 232 266 253 286 q 274 305 288 325 q 301 345 304 363 q 306 370 312 370 q 321 370 321 362 l 321 360 q 315 330 290 300 q 265 270 232 246 q 198 222 162 207 q 125 192 97 192 q 75 192 58 200 q 41 209 29 222 q 17 236 11 253 q 5 270 5 287 q 5 322 26 363 q 48 404 84 445 q 120 486 167 524 q 214 563 264 592 q 314 622 364 640 q 415 657 458 657 q 492 657 519 644 q 546 632 565 612 q 584 591 594 566 q 604 540 604 515 q 604 467 577 410 q 550 352 509 291 q 468 230 421 168 q 374 107 333 50 q 292 -6 265 -54 q 238 -103 238 -137 q 238 -157 249 -171 q 260 -185 292 -185 q 321 -185 356 -162 q 392 -138 431 -99 q 473 -57 516 -3 q 559 51 600 108 q 640 164 676 218 q 711 271 738 312 q 782 382 824 444 q 867 505 908 551 q 950 597 990 624 q 1030 651 1070 651 q 1075 651 1082 650 q 1090 650 1098 648 q 1105 646 1110 643 q 1116 640 1116 636 z m 423 226 q 369 157 330 94 q 290 32 266 -19 q 289 18 322 61 q 354 104 390 151 q 425 198 460 246 q 496 295 524 342 q 552 389 570 433 q 587 477 587 515 q 587 529 584 544 q 581 559 575 571 q 576 565 576 558 q 577 552 577 544 q 577 508 562 464 q 546 421 523 378 q 500 335 473 295 q 446 255 423 226 z m 660 164 q 688 200 723 246 q 758 293 795 342 q 832 391 870 439 q 909 487 944 528 q 979 568 1010 596 q 1040 625 1063 635 q 1021 632 982 601 q 943 570 898 511 q 852 452 795 365 q 738 278 660 164 z m 53 234 q 39 260 39 297 q 39 339 57 384 q 22 331 22 286 q 22 266 32 246 q 43 225 65 214 q 60 218 58 223 q 56 228 53 234 z"},"\"":{"x_min":0,"x_max":283,"ha":283,"o":"m 227 520 q 247 515 252 506 q 256 497 256 492 q 256 468 212 424 q 182 394 171 387 q 160 380 159 380 q 150 380 150 388 q 150 389 150 390 q 151 390 151 392 q 151 392 158 406 q 166 420 176 439 q 186 458 198 480 q 209 501 218 516 q 221 520 227 520 z m 200 436 q 226 462 232 474 q 239 487 239 492 q 239 498 230 502 q 220 485 208 464 q 196 442 186 423 q 190 426 194 429 q 197 432 200 436 z m 307 520 q 327 515 332 506 q 336 497 336 492 q 336 468 292 424 q 262 394 251 387 q 240 380 239 380 q 230 380 230 388 q 230 389 230 390 q 231 390 231 392 q 231 392 238 406 q 246 420 256 439 q 266 458 278 480 q 289 501 298 516 q 301 520 307 520 z m 280 436 q 306 462 312 474 q 319 487 319 492 q 319 498 310 502 q 300 485 288 464 q 276 442 266 423 q 270 426 274 429 q 277 432 280 436 z"},"7":{"x_min":0,"x_max":999,"ha":999,"o":"m 8 441 q 46 461 82 478 q 119 495 161 507 q 164 507 166 518 q 168 529 170 542 q 173 556 175 568 q 177 581 179 586 q 185 595 194 602 q 204 609 215 614 q 226 620 238 624 q 249 629 258 633 q 306 653 355 667 q 404 681 454 694 q 505 706 556 715 q 608 724 660 729 q 678 731 704 734 q 729 736 755 735 q 781 734 804 728 q 828 723 843 708 q 845 705 842 692 q 840 679 839 674 l 836 621 q 836 619 838 619 q 880 607 920 588 q 961 568 988 531 l 988 530 q 979 532 968 528 q 956 524 945 517 q 934 510 924 502 q 915 494 910 488 q 926 479 936 462 q 947 445 952 426 q 956 406 956 386 q 955 366 949 350 q 940 373 922 386 q 904 399 882 405 q 859 411 835 413 q 811 415 790 416 q 766 418 739 417 q 712 416 689 424 q 680 427 676 438 q 673 449 672 462 q 672 474 674 486 q 676 499 677 507 q 577 499 480 476 q 382 453 289 421 q 284 419 284 418 q 285 412 288 399 q 292 386 294 372 q 297 358 298 346 q 298 334 294 330 q 282 320 263 318 q 244 316 228 314 q 207 311 185 308 q 163 305 142 301 q 104 293 72 280 q 64 275 56 272 q 49 269 41 264 q 37 260 32 253 q 26 246 22 244 q 28 263 36 281 q 43 299 50 316 q 51 319 57 330 q 63 340 69 352 q 75 363 79 372 q 83 382 82 384 q 68 404 50 422 q 32 439 8 441 z m 819 508 q 822 538 822 569 q 822 600 824 629 q 824 645 826 660 q 827 676 829 691 q 830 706 814 710 q 799 715 786 717 q 721 727 652 718 q 583 708 519 694 q 449 680 380 662 q 312 643 246 614 q 234 608 221 602 q 208 595 197 586 q 186 576 184 559 q 181 542 179 529 q 174 493 174 457 q 174 421 174 384 q 179 384 186 388 q 194 391 202 396 q 210 401 218 406 q 225 411 230 413 q 250 421 270 428 q 291 436 312 444 q 354 457 396 468 q 438 479 483 489 q 525 498 566 506 q 608 514 652 518 q 691 522 736 524 q 781 525 819 508 z m 722 577 q 717 572 714 568 q 710 564 703 562 q 698 560 694 562 q 691 564 688 567 q 685 565 681 562 q 677 560 672 559 q 655 556 649 570 l 649 571 q 644 566 640 562 q 635 558 627 556 q 620 552 613 562 q 610 568 612 574 q 613 580 616 586 q 619 592 621 598 q 623 605 622 611 q 613 607 608 600 q 604 594 602 586 q 600 579 598 571 q 597 563 594 556 q 592 547 581 551 q 577 552 577 557 q 577 559 578 562 q 578 564 578 566 q 570 564 568 564 q 565 564 559 558 q 554 552 546 548 q 538 543 529 543 q 523 544 520 548 q 517 551 514 556 q 505 546 492 538 q 480 529 466 531 q 459 532 452 541 q 446 534 440 528 q 433 523 424 521 q 409 515 407 532 q 405 546 412 556 q 418 566 423 577 q 424 579 422 580 q 419 580 418 578 q 414 567 408 554 q 403 541 394 530 q 386 518 375 510 q 364 503 349 504 q 332 505 330 516 q 327 528 332 542 q 338 555 350 566 q 361 578 373 579 q 380 579 382 573 q 388 567 383 558 q 380 546 368 536 q 357 527 344 524 q 346 518 350 517 q 355 516 360 518 q 365 521 370 524 q 374 528 376 530 q 389 541 396 555 q 402 569 407 583 q 408 586 402 596 q 395 606 397 614 q 399 620 404 624 q 410 628 416 627 q 422 627 424 620 q 427 614 426 608 q 424 601 424 594 q 435 596 440 594 q 445 593 438 579 q 433 570 428 560 q 423 551 422 541 q 422 536 426 536 q 438 535 446 546 q 453 557 459 572 q 465 586 470 600 q 476 613 484 618 q 489 619 493 617 q 494 614 494 610 q 492 603 488 598 q 485 594 488 586 q 491 579 495 572 q 499 565 498 557 l 499 557 q 505 563 509 572 q 513 581 517 590 q 521 599 526 606 q 532 614 541 618 q 561 625 568 607 q 573 599 571 593 q 569 587 570 578 q 576 579 578 583 q 586 590 588 602 q 589 614 592 624 q 594 627 598 628 q 602 628 604 627 q 610 626 609 620 l 609 619 q 615 625 622 628 q 634 634 638 621 q 640 615 638 609 q 637 603 634 597 q 631 591 628 585 q 626 579 627 572 q 635 578 640 586 q 645 594 650 602 q 654 611 660 618 q 665 626 673 631 q 680 635 686 634 q 693 633 701 631 q 703 635 710 636 q 718 636 716 628 q 714 617 708 606 q 702 595 702 584 q 702 578 707 583 q 718 594 724 609 q 729 624 734 640 q 739 655 747 668 q 755 682 770 691 q 778 695 783 687 q 790 674 785 660 q 780 647 772 638 q 768 633 762 626 q 755 620 749 614 q 743 607 738 600 q 734 593 736 586 q 737 577 748 579 q 756 582 760 589 q 763 596 768 603 q 770 604 774 604 q 779 604 779 599 l 777 592 q 767 571 748 563 q 734 555 724 571 q 722 573 722 577 z m 964 539 q 938 565 904 580 q 871 596 836 606 q 834 574 834 544 q 833 514 831 483 l 830 484 l 830 481 q 815 480 795 479 q 775 478 754 474 q 734 470 717 462 q 700 454 691 441 q 687 438 693 437 q 708 431 724 429 q 741 427 758 427 q 775 427 792 428 q 809 428 824 427 q 839 426 855 424 q 871 422 887 417 q 903 412 915 404 q 927 396 941 389 q 941 422 930 446 q 918 471 886 483 q 904 500 922 516 q 941 531 964 539 z m 162 494 q 100 478 38 444 q 73 424 97 386 q 98 384 95 377 q 92 370 88 362 q 83 354 78 346 q 74 339 73 336 q 66 324 61 311 q 56 298 51 284 q 78 299 108 306 q 137 312 166 316 q 196 320 226 324 q 255 329 284 338 q 275 348 259 352 q 243 355 225 356 q 207 356 190 354 q 172 353 160 352 q 160 387 160 423 q 160 459 162 494 z m 417 184 q 417 189 416 192 q 414 194 412 197 l 443 197 q 458 190 470 169 q 483 148 490 133 q 490 147 491 166 q 492 185 484 197 l 524 197 q 518 191 518 184 q 519 176 519 168 l 519 34 q 519 26 518 17 q 518 8 524 2 l 412 2 q 418 9 420 20 q 421 32 420 45 q 420 58 418 70 q 417 82 417 91 z m 360 197 q 380 197 390 186 q 399 175 402 158 q 405 142 404 124 q 403 105 403 91 l 403 48 q 403 22 388 12 q 374 1 350 2 q 329 2 320 13 q 310 24 307 40 q 304 57 305 76 q 306 94 306 108 q 306 119 305 129 q 304 139 306 150 q 306 177 320 187 q 335 197 360 197 z m 301 612 q 308 612 312 611 q 321 610 327 603 q 333 596 334 586 q 338 562 322 540 q 306 519 286 507 q 276 500 270 490 q 265 479 260 468 q 256 458 250 448 q 243 438 231 432 q 217 423 202 427 q 186 432 188 448 q 188 459 196 468 q 205 477 216 479 q 219 480 224 478 q 229 475 227 470 q 219 466 214 466 q 208 464 206 457 q 203 450 207 444 q 209 442 212 442 q 214 441 216 440 q 226 439 234 446 q 241 454 246 464 q 250 475 253 486 q 256 498 258 506 q 243 491 224 487 q 219 486 212 487 q 206 488 201 493 q 192 498 192 513 q 192 528 199 541 q 215 575 246 594 q 260 603 274 607 q 280 609 286 614 q 293 618 298 619 q 304 619 301 612 z m 416 327 q 414 335 410 348 q 407 361 406 374 q 404 387 406 399 q 409 411 418 417 q 424 422 436 422 q 447 423 451 413 q 454 404 450 402 q 446 399 440 400 q 434 400 430 404 q 426 407 431 412 q 422 407 422 396 q 421 385 425 372 q 429 360 434 348 q 440 336 442 329 q 449 309 452 282 q 454 254 440 236 q 434 228 422 226 q 409 223 394 223 q 380 223 366 224 q 352 226 343 226 q 349 234 351 246 q 353 258 352 272 q 352 285 350 298 q 349 312 349 321 l 349 389 q 349 397 350 405 q 350 413 343 421 l 384 421 q 376 414 378 404 q 379 393 379 383 l 379 307 q 379 297 378 280 q 376 262 383 254 q 387 248 393 248 q 399 247 404 250 q 409 253 414 258 q 418 263 419 268 q 423 282 420 298 q 418 313 416 327 z m 644 352 q 642 347 636 336 q 630 324 625 311 q 620 298 618 287 q 617 276 624 272 q 621 278 627 279 q 633 280 639 278 q 645 275 646 270 q 648 265 637 260 q 623 255 618 265 q 612 275 613 284 q 613 293 616 302 q 620 312 621 320 q 622 327 619 331 q 616 335 603 334 l 603 250 q 613 250 626 248 q 640 246 650 254 q 647 246 646 240 q 644 234 642 226 l 567 226 q 572 232 572 239 q 573 246 573 254 l 573 389 q 573 397 572 406 q 572 414 567 421 l 636 421 q 649 407 650 388 q 650 370 644 352 z m 547 416 q 547 408 551 400 q 555 392 558 384 q 561 375 560 367 q 560 359 552 352 q 544 346 534 347 q 523 348 522 359 q 522 365 526 368 q 530 371 534 371 q 539 371 542 368 q 545 366 544 361 q 551 362 551 368 q 551 373 548 379 q 544 385 538 390 q 532 396 528 397 q 520 399 510 397 q 500 395 497 387 q 490 373 494 364 q 499 354 508 346 q 517 338 528 331 q 540 324 546 316 q 554 305 558 290 q 562 276 560 262 q 558 248 549 238 q 540 228 523 226 q 509 224 494 225 q 479 226 464 226 q 469 228 468 236 q 466 244 463 254 q 460 264 458 274 q 457 285 462 292 q 465 295 470 297 q 475 299 480 299 q 485 299 489 296 q 493 294 494 288 q 494 282 490 280 q 487 277 482 277 q 478 277 474 280 q 471 282 471 287 q 464 285 464 279 q 464 273 468 267 q 472 261 478 256 q 483 252 487 251 q 495 249 506 249 q 516 249 522 254 q 534 266 532 277 q 529 288 520 298 q 512 307 501 314 q 490 322 484 328 q 474 337 468 351 q 462 365 462 379 q 461 393 468 404 q 475 416 492 420 q 506 423 521 422 q 536 421 550 421 z m 151 -72 l 128 -193 l 104 -193 q 101 -173 98 -153 q 96 -133 93 -113 q 91 -133 87 -153 q 83 -173 80 -193 l 57 -193 l 36 -72 l 61 -72 q 63 -94 65 -117 q 67 -140 71 -162 q 73 -139 76 -116 q 80 -94 84 -72 l 104 -72 l 118 -162 q 120 -139 122 -116 q 125 -94 128 -72 z m 269 -72 l 246 -193 l 223 -193 q 216 -155 211 -113 q 209 -133 206 -153 q 202 -173 199 -193 l 174 -193 l 154 -72 l 179 -72 q 181 -94 183 -117 q 185 -140 189 -162 q 191 -139 194 -116 q 198 -94 202 -72 l 223 -72 l 236 -162 q 238 -139 240 -116 q 243 -94 246 -72 z m 387 -72 l 364 -193 l 341 -193 q 337 -173 334 -153 q 332 -133 329 -113 q 327 -133 324 -153 q 320 -173 317 -193 l 293 -193 l 272 -72 l 297 -72 q 299 -94 302 -117 q 304 -140 307 -162 q 309 -139 312 -116 q 315 -94 320 -72 l 341 -72 l 354 -162 q 356 -139 358 -116 q 361 -94 364 -72 z m 596 -136 q 604 -139 608 -146 q 611 -153 613 -162 q 615 -170 616 -178 q 617 -187 620 -193 l 592 -193 q 589 -187 588 -178 q 586 -170 584 -162 q 582 -155 578 -150 q 573 -146 563 -147 l 563 -193 l 534 -193 l 534 -73 q 549 -71 569 -70 q 589 -69 603 -78 q 620 -90 616 -109 q 612 -128 596 -136 z m 820 -193 l 792 -193 q 781 -173 772 -151 q 764 -129 753 -109 q 754 -130 754 -152 q 754 -173 754 -193 l 729 -193 l 729 -72 l 760 -72 l 797 -154 q 795 -134 794 -113 q 794 -92 794 -72 l 820 -72 z m 530 2 q 536 10 538 22 q 540 34 540 48 q 539 61 538 74 q 536 87 536 96 l 536 164 q 536 173 536 181 q 537 189 530 197 l 571 197 q 565 191 564 180 q 562 169 562 157 q 563 145 564 133 q 566 121 566 114 l 566 24 l 622 24 q 634 24 652 23 q 671 22 682 30 q 680 25 678 14 q 676 2 671 2 z m 520 -193 l 492 -193 l 484 -166 l 456 -166 l 450 -193 l 421 -193 l 453 -72 l 488 -72 z m 931 -189 q 909 -197 888 -194 q 868 -190 854 -178 q 840 -165 836 -146 q 832 -126 844 -102 q 851 -86 866 -78 q 882 -71 900 -71 q 901 -71 906 -71 q 910 -71 916 -72 q 921 -73 924 -74 q 928 -75 928 -77 l 923 -99 q 909 -92 897 -94 q 885 -96 878 -104 q 870 -112 867 -124 q 864 -137 868 -150 q 876 -175 901 -172 q 907 -171 906 -160 q 904 -150 904 -146 l 890 -146 l 890 -123 l 931 -123 z m 626 100 q 619 112 614 124 q 609 137 604 150 q 599 163 597 176 q 595 189 584 197 l 627 197 q 620 182 628 162 q 635 141 642 128 q 649 144 654 162 q 659 180 654 197 l 698 197 q 686 190 684 176 q 681 161 678 150 q 674 139 665 124 q 656 109 656 98 q 656 86 654 68 q 653 49 661 39 l 620 39 q 630 49 628 68 q 626 88 626 100 z m 374 150 q 374 159 369 165 q 364 171 357 173 q 350 175 344 172 q 338 169 336 160 q 334 152 335 144 q 336 136 336 129 q 336 109 335 88 q 334 68 336 48 q 336 40 341 34 q 346 28 352 26 q 359 23 365 26 q 371 29 373 39 q 374 46 374 54 q 374 62 374 70 z m 490 19 q 488 53 479 88 q 470 123 447 151 l 447 26 q 447 18 454 13 q 460 8 468 7 q 475 6 482 8 q 489 11 490 19 z m 280 596 q 265 592 252 582 q 239 573 228 562 q 225 558 220 548 q 214 538 210 528 q 207 517 208 508 q 210 500 221 500 q 237 500 248 511 q 258 522 264 537 q 270 552 274 568 q 277 585 280 596 z m 636 -72 l 664 -72 l 664 -193 l 636 -193 z m 277 516 q 285 518 293 526 q 301 534 306 544 q 312 555 314 566 q 317 578 314 586 q 312 592 307 595 q 302 598 297 598 q 289 578 286 557 q 282 536 277 516 z m 603 398 l 603 359 q 609 359 616 359 q 622 359 628 360 q 634 362 638 366 q 643 370 643 378 q 643 387 639 391 q 635 395 629 396 q 623 398 616 398 q 609 398 603 398 z m 694 614 q 693 619 692 622 q 691 624 686 622 q 676 618 671 610 q 666 601 664 592 q 663 589 663 584 q 663 580 664 577 q 666 574 669 573 q 672 572 677 576 q 684 582 688 593 q 693 604 694 614 z m 527 574 l 529 567 q 534 558 542 563 q 550 566 554 575 q 559 584 557 593 q 556 599 552 602 q 548 606 540 600 q 534 595 531 588 q 528 582 527 574 z m 377 -178 q 377 -170 382 -166 q 387 -162 394 -162 q 400 -162 405 -166 q 410 -170 410 -178 q 410 -186 405 -190 q 400 -195 394 -195 q 387 -195 382 -190 q 377 -186 377 -178 z m 680 -178 q 680 -170 685 -166 q 690 -162 696 -162 q 703 -162 708 -166 q 713 -170 713 -178 q 713 -186 708 -190 q 703 -195 696 -195 q 690 -195 685 -190 q 680 -186 680 -178 z m 570 -126 q 580 -126 584 -120 q 589 -115 588 -108 q 587 -101 582 -96 q 576 -91 567 -92 q 564 -92 563 -96 q 562 -101 562 -106 q 562 -112 562 -118 q 563 -123 563 -126 z m 481 -144 q 476 -120 470 -94 l 459 -144 z m 474 576 q 471 571 466 563 q 462 555 463 550 q 465 543 472 544 q 479 545 480 552 q 481 563 474 576 z m 344 536 q 351 534 360 544 q 369 554 370 559 q 372 563 369 566 q 366 568 362 564 q 356 559 352 552 q 348 544 344 536 z m 772 674 l 771 674 q 751 654 744 628 q 753 639 762 650 q 770 660 772 674 z m 412 599 l 414 599 q 414 603 415 606 q 416 609 414 613 q 411 613 410 610 q 409 605 412 599 z"},"S":{"x_min":0,"x_max":693,"ha":693,"o":"m 779 645 q 787 634 787 619 q 787 597 771 580 q 755 562 729 548 q 703 535 668 526 q 633 517 596 511 q 582 462 576 406 q 569 350 564 290 l 561 253 q 606 216 632 174 q 657 131 663 68 q 663 61 655 59 q 646 59 646 67 q 635 174 559 234 q 555 191 548 148 q 542 106 531 64 q 520 22 502 -18 q 484 -58 457 -96 q 417 -152 357 -182 q 297 -212 232 -212 q 186 -212 148 -198 q 110 -183 83 -157 q 56 -131 41 -94 q 26 -58 26 -14 q 26 27 40 70 q 53 113 76 150 q 49 162 27 186 q 5 210 5 253 q 5 267 8 282 q 12 298 20 316 q 40 361 73 392 q 106 423 148 444 q 191 464 240 476 q 290 488 344 496 q 397 504 452 510 q 507 515 561 523 q 572 545 590 570 q 609 595 632 616 q 655 637 681 651 q 707 665 733 665 q 764 665 779 645 z m 324 -178 q 382 -155 416 -115 q 449 -75 467 -24 q 485 28 492 88 q 498 148 501 211 l 504 265 q 479 275 450 280 q 420 286 388 286 q 234 286 138 154 q 146 151 153 150 q 160 149 168 149 q 227 149 272 180 q 317 211 336 259 q 338 264 344 264 q 355 264 351 253 q 331 196 278 164 q 226 132 159 132 q 150 132 142 132 q 134 132 126 134 q 102 93 90 50 q 77 7 77 -31 q 77 -109 120 -152 q 164 -195 240 -195 q 261 -195 282 -190 q 304 -186 324 -178 z m 345 480 q 279 468 227 448 q 175 427 138 400 q 101 373 82 340 q 62 306 62 269 q 62 212 98 178 q 123 207 156 230 q 189 254 226 270 q 264 286 305 294 q 346 303 387 303 q 452 303 506 282 q 511 341 520 398 q 530 454 553 505 l 478 496 q 446 494 412 490 q 378 485 345 480 z m 751 583 q 771 603 771 620 q 771 633 760 640 q 750 648 733 648 q 710 648 689 636 q 668 625 651 608 q 634 590 622 569 q 609 548 602 529 q 651 537 690 550 q 728 562 751 583 z m 584 529 q 555 472 538 400 q 521 329 521 257 l 518 210 q 514 154 510 102 q 505 51 493 3 q 517 63 526 126 q 536 188 542 254 q 548 319 556 388 q 563 456 584 529 z m 44 -13 q 44 -45 54 -76 q 63 -108 86 -134 q 60 -91 60 -31 q 60 11 72 54 q 85 98 108 138 l 122 160 q 133 178 148 194 q 162 210 178 225 q 160 211 142 198 q 125 184 111 167 l 92 143 q 69 110 56 68 q 44 27 44 -13 z m 41 198 q 58 176 87 164 l 87 165 q 45 204 45 269 q 45 343 112 401 q 94 388 78 372 q 62 355 50 336 q 38 316 30 295 q 23 274 23 253 q 23 222 41 198 z"},"}":{"x_min":0,"x_max":328,"ha":328,"o":"m 211 198 q 176 198 154 182 q 131 166 114 142 q 97 118 82 90 q 67 63 48 38 q 29 14 2 -2 q -24 -19 -64 -20 q -69 -21 -71 -18 q -73 -15 -73 -11 q -73 -4 -66 -4 q -45 0 -26 17 q -8 34 9 58 q 26 81 43 108 q 60 134 78 158 q 97 181 118 198 q 140 216 166 220 q 153 236 153 256 q 153 277 162 300 q 172 323 184 346 q 196 368 206 388 q 215 408 215 422 q 215 426 212 428 q 210 431 208 432 q 205 434 202 436 q 200 438 200 442 q 200 451 208 451 q 229 451 240 434 q 252 418 252 403 q 252 384 242 361 q 233 338 222 316 q 210 293 200 272 q 191 252 191 237 q 191 229 196 225 q 202 221 208 219 q 215 217 220 214 q 226 212 226 206 q 226 200 221 199 q 216 198 211 198 z m 204 348 q 191 324 180 300 q 170 275 170 255 q 170 250 170 245 q 171 240 175 237 q 175 253 184 274 q 194 296 205 318 q 216 341 226 363 q 235 385 235 402 q 235 405 234 408 q 232 411 232 414 q 229 400 221 384 q 213 367 204 348 z m 74 107 q 85 128 97 148 q 109 169 126 185 q 106 170 89 146 q 72 123 56 98 q 40 74 24 50 q 9 26 -9 9 q 22 23 40 50 q 57 77 74 107 z"},"Z":{"x_min":0,"x_max":1019,"ha":1019,"o":"m 1181 628 q 1191 613 1191 596 q 1191 559 1144 500 q 1097 441 1008 365 q 919 289 792 198 q 664 106 502 5 q 561 -18 610 -53 q 659 -88 702 -122 q 745 -155 782 -179 q 820 -203 857 -203 q 882 -203 902 -192 q 923 -182 938 -166 q 953 -149 961 -128 q 969 -108 969 -88 q 969 -79 966 -70 q 964 -60 964 -51 q 964 -48 966 -45 q 967 -42 971 -42 q 976 -42 979 -47 q 982 -52 984 -60 q 985 -67 986 -75 q 986 -83 986 -88 q 986 -117 974 -142 q 962 -168 941 -186 q 920 -205 892 -216 q 864 -226 831 -226 q 773 -226 724 -202 q 675 -178 630 -145 q 586 -112 543 -78 q 500 -44 454 -24 q 400 -57 346 -89 q 293 -121 244 -147 q 194 -173 151 -189 q 108 -205 76 -205 q 54 -205 40 -200 q 27 -194 20 -186 q 12 -179 9 -170 q 6 -162 6 -156 q 6 -127 42 -91 q 78 -55 141 -23 q 256 31 361 31 q 366 31 384 30 q 403 29 423 26 q 443 24 459 21 q 475 18 475 14 q 577 85 678 163 q 778 241 866 316 q 953 390 1022 456 q 1090 522 1128 569 q 1086 534 1028 494 q 970 453 909 418 q 848 382 791 358 q 734 333 695 332 q 671 331 656 337 q 642 343 635 354 q 628 364 626 377 q 624 390 624 403 q 624 426 631 452 q 638 477 647 502 q 656 527 663 550 q 670 573 670 591 q 670 614 653 622 q 636 631 611 633 q 555 631 482 591 q 408 551 329 485 q 261 429 219 382 q 177 335 154 298 q 131 262 124 234 q 116 207 116 190 q 116 159 133 139 q 150 119 185 119 q 212 119 252 134 q 291 149 338 191 q 402 249 426 293 q 449 337 449 369 q 449 378 457 378 q 466 378 466 369 q 466 340 451 308 q 436 275 411 244 q 386 212 354 183 q 321 154 286 132 q 252 111 218 98 q 183 85 154 85 q 119 85 94 106 q 70 126 70 162 q 70 206 103 262 q 136 317 189 376 q 211 401 242 431 q 274 461 311 492 q 348 522 388 550 q 428 579 468 601 q 508 623 545 636 q 582 650 614 650 q 727 650 727 574 q 727 549 716 521 q 705 493 692 466 q 680 438 669 414 q 658 389 658 371 q 658 357 669 352 q 680 348 694 349 q 725 350 768 367 q 810 384 858 410 q 905 435 954 466 q 1002 497 1044 528 q 1087 559 1120 586 q 1152 612 1168 629 q 1170 633 1174 633 q 1178 633 1181 628 z m 368 -56 q 384 -47 400 -36 q 415 -26 432 -15 q 407 -7 380 -1 q 353 5 324 5 q 293 5 260 -2 q 227 -8 192 -20 q 157 -33 126 -50 q 96 -67 73 -86 q 50 -104 36 -122 q 23 -140 23 -155 q 23 -166 37 -178 q 51 -189 77 -189 q 107 -189 156 -170 q 206 -150 272 -113 q 273 -113 274 -112 q 298 -98 322 -84 q 345 -70 368 -56 z m 1172 584 q 1174 592 1173 603 q 1150 565 1098 510 q 1046 454 976 390 q 905 326 824 258 q 742 190 661 129 q 812 229 910 306 q 1007 382 1064 438 q 1121 493 1144 529 q 1168 565 1172 584 z m 684 -129 q 641 -95 592 -60 q 543 -26 483 -6 q 450 4 432 7 q 414 10 399 12 q 413 9 425 5 q 437 1 449 -4 q 501 -28 544 -60 q 586 -92 626 -122 q 666 -152 707 -176 q 748 -199 798 -206 q 770 -193 742 -172 q 714 -152 684 -129 z m 643 385 q 646 404 657 428 q 668 452 680 478 q 692 503 701 528 q 710 553 710 574 q 710 609 678 623 q 687 609 687 590 q 687 571 680 547 q 673 523 664 498 q 655 473 648 448 q 641 423 641 402 q 641 395 643 385 z m 120 128 q 99 152 99 190 q 99 208 103 225 q 87 190 87 163 q 87 145 94 134 q 100 122 110 115 q 120 108 132 105 q 145 102 156 102 q 161 102 165 102 q 169 102 174 103 q 156 105 142 112 q 129 118 120 128 z"},"x":{"x_min":0,"x_max":274,"ha":274,"o":"m 278 216 q 280 215 282 210 q 283 206 281 204 q 242 139 200 102 q 157 65 122 65 q 96 65 84 79 q 71 93 71 119 q 71 129 73 140 q 75 151 77 162 q 49 142 20 120 q -10 97 -34 74 q -58 51 -74 30 q -89 8 -89 -10 q -89 -25 -82 -32 q -74 -39 -63 -39 q -57 -39 -50 -36 q -44 -32 -39 -32 q -31 -32 -31 -41 q -31 -47 -39 -51 q -47 -55 -58 -58 q -68 -60 -78 -62 q -88 -63 -92 -63 q -106 -63 -114 -60 q -121 -56 -125 -50 q -129 -45 -130 -40 q -131 -34 -131 -30 q -131 -11 -113 14 q -95 40 -65 69 q -35 98 4 128 q 42 159 84 187 q 89 204 96 222 q 103 241 110 259 q 117 277 122 292 q 126 308 126 319 l 126 322 q 111 317 95 306 q 79 295 64 279 q 48 263 34 244 q 19 224 7 204 q 6 200 -1 200 q -9 200 -9 208 q -9 209 -7 213 q 4 231 20 254 q 35 276 54 296 q 74 315 96 328 q 118 341 142 341 q 173 341 173 309 q 173 294 166 274 q 160 255 151 233 q 177 252 202 273 q 227 294 246 314 q 266 334 278 352 q 290 371 290 385 q 290 406 262 414 q 254 416 254 422 q 255 427 262 430 q 275 436 290 436 q 305 436 316 428 q 326 419 326 403 q 326 389 313 366 q 300 342 264 307 q 249 291 232 276 q 215 261 198 248 q 181 234 166 222 q 150 211 138 203 q 136 201 131 189 q 126 177 120 162 q 114 146 110 130 q 105 113 105 102 q 105 94 108 88 q 110 82 122 82 q 147 82 186 113 q 225 144 266 213 q 268 215 272 216 q 276 218 278 216 z m 99 177 q 95 163 92 149 q 89 135 89 118 q 91 134 98 150 q 104 166 112 185 q 118 199 126 216 q 134 232 140 249 q 147 266 152 282 q 156 298 156 310 q 156 324 143 324 l 143 319 q 144 308 137 290 q 130 271 121 243 z m -113 -38 q -111 -43 -106 -44 q -100 -45 -92 -45 l -96 -41 q -109 -23 -106 -4 q -115 -21 -115 -30 q -115 -34 -113 -38 z m 290 419 q 304 409 307 392 q 309 400 309 404 q 309 419 290 419 z"},")":{"x_min":0,"x_max":328,"ha":328,"o":"m 204 447 q 233 434 250 408 q 266 382 266 346 q 266 329 263 310 q 260 290 252 270 q 237 231 202 184 q 168 137 122 94 q 77 51 24 20 q -29 -12 -80 -20 q -90 -20 -90 -13 q -90 -9 -78 -3 q -66 3 -50 10 q -33 17 -16 24 q 0 31 9 36 q 49 62 88 104 q 127 146 158 193 q 189 240 208 288 q 226 335 226 372 q 226 392 220 404 q 213 416 204 424 q 196 431 190 435 q 183 439 183 443 q 183 451 192 451 q 194 451 198 450 q 201 448 204 447 z m 191 191 q 219 231 234 271 q 249 311 249 345 q 249 353 248 362 q 247 372 243 382 l 243 371 q 243 346 234 314 q 225 283 209 249 q 193 215 170 180 q 148 145 120 113 q 144 134 162 154 q 179 174 191 191 z"},"&":{"x_min":0,"x_max":538,"ha":538,"o":"m 507 280 q 515 276 513 270 q 502 214 465 182 q 428 150 374 155 q 367 155 360 158 q 336 119 312 74 q 288 28 260 -14 q 231 -55 196 -88 q 161 -121 115 -136 l 113 -136 q 83 -147 41 -148 l 40 -148 q 33 -148 33 -140 q 33 -136 42 -133 q 52 -130 64 -128 q 77 -125 90 -123 q 102 -121 108 -119 l 109 -119 q 111 -119 112 -118 q 113 -118 115 -118 q 148 -105 169 -80 q 190 -56 208 -22 q 227 12 247 55 q 267 98 297 149 q 246 102 198 80 q 150 57 109 61 l 106 62 q 88 64 73 72 q 58 81 47 94 q 36 106 30 122 q 25 138 27 156 q 30 180 46 202 q 62 223 88 243 q 113 263 144 282 q 175 300 208 318 l 212 320 q 206 359 210 388 q 213 421 224 448 q 236 475 252 493 q 268 511 288 520 q 307 529 326 527 q 340 525 353 517 q 366 509 373 498 l 379 487 q 397 451 394 421 q 391 396 378 376 q 364 357 343 340 q 322 324 295 310 q 268 296 239 283 q 250 250 271 227 q 292 204 317 191 l 355 231 q 361 240 368 248 q 374 257 382 266 l 384 268 q 385 268 385 269 l 387 268 q 389 269 390 269 l 432 265 q 435 264 438 261 q 440 258 439 255 q 439 253 438 252 q 437 250 436 248 q 418 237 402 218 q 385 198 370 172 q 419 167 452 194 q 485 221 496 272 q 498 280 507 280 z m 108 78 q 118 77 136 78 q 154 80 178 90 q 203 99 235 120 q 267 141 305 178 q 279 194 257 218 q 235 242 223 276 l 210 271 q 180 258 152 245 q 123 232 100 217 q 78 202 64 186 q 50 169 48 148 q 46 141 48 134 q 49 128 51 120 l 51 118 q 68 84 108 78 z m 283 498 q 263 484 247 455 q 231 426 226 386 q 223 361 228 330 q 255 345 280 360 q 304 376 324 392 q 343 407 355 422 q 367 438 369 454 q 369 461 368 467 q 366 473 364 481 l 359 489 q 354 498 344 503 q 335 508 324 510 q 302 512 283 498 z m 352 176 q 355 182 362 192 q 368 201 376 212 q 384 223 392 233 q 401 243 408 250 l 393 251 l 368 221 q 338 183 316 147 q 294 111 276 78 q 259 44 245 14 q 231 -16 217 -41 q 238 -17 256 10 q 273 38 289 66 q 305 95 320 122 q 335 150 352 176 z m 215 303 q 213 302 204 297 q 196 292 184 285 q 172 278 159 270 q 146 263 137 257 q 154 264 170 272 q 186 280 203 287 l 218 293 l 234 300 q 260 312 285 324 q 310 337 330 352 q 349 367 362 384 q 375 401 377 422 q 377 424 378 424 q 378 425 378 427 q 370 411 353 394 q 336 377 314 360 q 291 344 266 330 q 240 315 215 303 z"},"_":{"x_min":0,"x_max":256,"ha":256,"o":"m 155 42 q 163 42 163 33 q 163 21 154 14 q 145 7 133 3 q 121 -1 108 -2 q 96 -3 89 -3 q 83 -3 58 -2 q 33 -1 5 0 q -23 2 -46 4 q -70 7 -72 10 q -77 18 -64 29 q -50 40 -34 40 z m 89 14 q 124 14 138 25 l -32 25 q -42 21 -46 18 q -37 18 -18 18 q 1 17 22 16 q 43 15 62 14 q 80 14 89 14 z"},"v":{"x_min":0,"x_max":317,"ha":317,"o":"m 321 216 q 323 215 324 210 q 326 206 324 204 q 310 181 298 173 q 285 165 274 165 q 263 165 256 170 q 249 175 243 183 q 232 172 210 152 q 188 132 164 113 q 139 94 116 80 q 93 66 78 66 q 70 66 60 72 q 50 78 50 100 q 50 107 51 116 q 52 124 56 135 q 64 160 76 186 q 89 212 100 236 q 112 259 120 279 q 129 299 129 312 q 129 327 115 327 q 108 327 98 322 q 89 316 76 302 q 63 288 46 264 q 29 241 7 204 q 4 200 -1 200 q -6 200 -8 203 q -9 206 -9 209 q -9 212 -8 213 q 32 280 62 312 q 92 344 115 344 q 135 344 150 327 q 166 310 166 289 q 166 264 151 236 q 136 207 118 180 q 100 152 85 128 q 70 104 70 89 q 70 83 78 83 q 85 83 102 94 q 118 105 138 124 q 159 143 182 168 q 204 193 223 222 q 219 233 218 246 q 216 258 216 270 q 216 303 228 322 q 241 341 264 341 q 279 341 288 335 q 297 329 302 321 q 307 313 308 305 q 310 297 310 293 q 310 273 296 248 q 281 224 255 195 q 263 182 274 182 q 281 182 286 188 q 292 193 298 200 q 303 206 308 212 q 312 217 316 217 q 320 217 321 216 z m 235 291 q 234 286 234 280 q 233 275 233 270 q 233 255 236 240 q 257 270 266 288 q 274 307 274 316 q 274 324 264 324 q 250 324 244 313 q 237 302 235 291 z m 113 224 q 104 206 95 186 q 86 166 78 146 l 94 171 q 113 200 131 232 q 149 265 149 289 q 149 293 148 296 q 146 300 146 303 q 143 287 134 267 q 124 247 113 224 z m 233 197 q 265 231 279 254 q 293 276 293 292 q 293 303 290 307 q 288 291 276 270 q 263 248 242 219 q 237 211 230 202 q 223 194 216 186 q 208 176 200 167 q 200 167 205 172 q 210 176 216 182 q 222 187 228 192 q 233 197 233 197 z"},"O":{"x_min":0,"x_max":973,"ha":973,"o":"m 889 662 q 909 662 930 656 q 950 651 966 640 q 983 628 994 610 q 1004 593 1004 569 q 1004 539 985 508 q 966 476 932 450 q 934 431 934 422 q 935 414 935 408 q 935 356 920 296 q 904 236 874 173 q 855 132 828 88 q 801 44 769 2 q 737 -39 700 -77 q 664 -115 624 -144 q 584 -172 541 -189 q 498 -206 455 -207 q 369 -207 322 -152 q 276 -96 276 2 q 276 26 278 50 q 281 75 286 100 q 240 89 203 89 l 202 89 q 151 89 114 101 q 77 113 52 133 q 28 153 16 178 q 5 203 5 229 q 5 275 34 315 q 63 355 115 385 q 167 415 239 432 q 311 450 396 452 q 422 452 436 452 q 451 451 464 449 q 555 553 664 608 q 772 662 889 662 z m 701 -50 q 736 -11 770 47 q 803 105 828 170 q 854 234 870 300 q 885 367 885 424 q 841 405 798 400 q 756 395 731 395 q 680 395 638 402 q 596 408 558 416 l 514 425 q 488 394 466 364 q 444 335 424 302 q 404 269 386 230 q 369 192 353 144 q 378 157 402 174 q 425 191 442 211 q 460 231 470 254 q 481 278 481 303 q 481 308 482 312 q 484 315 489 315 q 498 315 498 307 q 498 276 486 248 q 473 221 452 198 q 431 174 404 155 q 376 136 346 122 q 335 87 328 52 q 322 16 322 -17 q 322 -102 360 -146 q 397 -190 455 -190 q 503 -190 556 -163 q 609 -136 655 -95 z m 86 154 q 108 128 140 117 q 171 106 206 106 q 227 106 249 110 q 271 113 291 119 q 309 198 349 278 q 389 357 446 428 l 450 433 q 440 434 430 434 q 420 435 409 435 q 313 435 247 412 q 181 388 140 354 q 98 321 80 284 q 62 248 62 221 q 62 182 86 154 z m 954 494 q 971 512 979 532 q 987 552 987 570 q 987 605 960 625 q 932 645 889 645 q 838 645 788 626 q 738 608 692 579 q 645 550 604 513 q 562 476 528 439 l 561 433 q 599 425 640 418 q 681 412 732 412 q 757 412 800 417 q 842 422 885 442 q 883 500 864 539 q 862 542 862 546 q 862 551 872 551 q 881 551 890 542 q 899 534 906 521 q 914 508 920 494 q 925 480 928 469 q 936 474 942 480 q 948 487 954 494 z m 336 -141 q 320 -117 312 -85 q 305 -53 305 -18 q 305 13 310 46 q 316 79 326 113 l 332 134 q 363 234 405 304 q 447 374 495 428 l 471 431 l 459 417 q 420 370 390 318 q 359 265 338 211 q 316 157 304 104 q 293 50 293 2 q 293 -41 303 -76 q 313 -112 336 -141 z m 859 180 q 888 242 903 300 q 918 357 918 407 q 918 431 912 460 q 907 489 892 511 q 896 495 900 477 q 903 459 903 442 q 903 403 897 361 q 891 319 880 276 q 869 233 854 190 q 839 147 820 107 q 842 145 859 180 z m 22 229 q 22 202 36 176 q 51 151 83 133 q 64 147 54 172 q 45 198 45 221 q 45 268 78 315 q 110 362 166 392 q 97 363 60 320 q 22 277 22 229 z m 711 610 q 586 560 484 447 q 490 445 496 444 q 502 444 508 443 q 549 488 600 533 q 652 578 711 610 z"},"(":{"x_min":0,"x_max":262,"ha":262,"o":"m 357 434 q 333 426 310 416 q 286 406 264 395 q 224 368 185 326 q 146 284 115 236 q 84 189 65 142 q 46 95 46 59 q 46 39 53 27 q 60 15 68 8 q 76 0 83 -4 q 90 -8 90 -12 q 90 -20 83 -20 q 65 -20 51 -10 q 37 0 27 16 q 17 31 12 50 q 7 68 7 85 q 7 131 27 178 q 47 224 82 266 q 116 309 160 346 q 205 383 255 409 q 278 424 305 438 q 332 451 354 451 q 363 451 363 443 q 363 438 357 434 z m 92 234 q 106 257 121 278 q 136 298 153 318 q 86 258 55 198 q 24 137 24 85 q 24 78 25 68 q 26 58 30 49 l 30 58 q 30 93 46 138 q 61 184 92 234 z"},"C":{"x_min":0,"x_max":792,"ha":792,"o":"m 774 106 q 774 83 767 52 q 760 22 746 -10 q 733 -43 712 -75 q 691 -107 663 -132 q 635 -156 600 -172 q 565 -187 522 -187 q 480 -187 446 -168 q 412 -148 388 -114 q 363 -81 350 -36 q 337 10 337 61 q 337 114 352 174 q 366 233 392 292 q 418 352 454 408 q 490 465 534 512 q 490 517 448 521 q 405 525 363 525 q 318 525 281 517 q 244 509 216 496 q 187 484 166 469 q 145 454 131 441 q 96 406 76 363 q 57 320 57 275 q 57 251 63 229 q 69 207 82 190 q 94 173 114 163 q 133 153 159 153 q 196 153 228 170 q 261 186 286 211 q 311 236 326 266 q 340 295 340 321 q 340 357 315 379 q 313 380 313 385 q 313 394 321 394 q 330 394 336 386 q 343 377 348 365 q 352 353 354 340 q 357 328 357 321 q 357 291 342 258 q 326 226 299 199 q 272 172 236 154 q 200 136 160 136 q 130 136 102 148 q 75 159 53 180 q 31 200 18 227 q 5 254 5 285 q 5 315 17 346 q 29 378 50 406 q 71 435 100 460 q 129 484 162 500 q 213 524 264 533 q 316 542 369 542 q 414 542 458 538 q 503 533 549 527 q 618 596 694 632 q 771 668 852 668 q 886 668 910 662 q 934 655 950 644 q 965 634 972 621 q 979 608 980 596 q 980 549 924 520 q 869 492 754 492 q 708 492 664 496 q 621 501 577 506 q 534 457 500 397 q 466 337 442 274 q 418 211 405 148 q 392 84 392 27 q 392 -68 426 -118 q 460 -168 523 -170 q 566 -170 608 -146 q 650 -121 683 -82 q 716 -43 736 6 q 757 55 757 104 l 757 114 q 757 123 765 123 q 774 123 774 115 z m 963 595 q 962 605 956 615 q 950 625 936 633 q 923 641 902 646 q 882 651 852 651 q 777 651 712 616 q 646 580 591 522 q 633 517 674 513 q 716 509 761 509 q 862 509 912 534 q 963 558 963 595 z m 355 81 q 354 76 354 70 q 354 64 354 59 q 354 14 364 -26 q 375 -65 395 -95 q 375 -44 375 27 q 375 84 388 148 q 401 213 424 277 q 448 341 482 401 q 515 461 557 509 l 555 509 q 513 464 478 411 q 442 358 416 302 q 389 247 374 190 q 358 133 355 81 z m 40 275 q 40 323 60 370 q 81 416 119 453 l 120 454 q 76 420 49 375 q 22 330 22 285 q 22 239 55 200 q 40 231 40 275 z"},"W":{"x_min":0,"x_max":1124,"ha":1124,"o":"m 1398 642 q 1360 666 1331 666 q 1305 666 1276 647 q 1246 628 1210 586 q 1174 544 1131 478 q 1088 411 1035 317 l 989 235 q 960 183 931 132 q 902 81 870 32 q 837 -18 800 -65 q 762 -112 715 -156 q 705 -166 692 -174 q 678 -183 663 -190 q 648 -197 632 -200 q 617 -204 604 -203 q 600 -203 589 -200 q 578 -198 566 -188 q 555 -178 546 -158 q 537 -137 537 -101 q 537 -60 550 -12 q 563 35 586 88 q 537 32 488 -20 q 438 -72 392 -112 q 345 -153 304 -178 q 262 -202 231 -202 q 212 -202 197 -192 q 182 -181 182 -151 q 182 -123 194 -90 q 206 -56 227 -20 q 248 17 276 55 q 305 93 337 129 q 388 186 446 249 q 504 312 554 372 q 603 433 636 488 q 669 543 669 585 q 669 604 662 616 q 656 628 646 635 q 635 642 623 644 q 611 646 599 646 q 560 646 502 626 q 443 606 375 564 q 294 509 234 447 q 175 385 136 324 q 98 264 80 211 q 61 158 61 121 q 61 96 69 82 q 77 67 94 67 q 117 67 146 83 q 175 99 204 125 q 234 151 262 184 q 290 217 312 251 q 333 285 346 316 q 359 348 359 372 q 359 377 358 381 q 358 385 358 388 q 358 397 366 397 q 374 397 376 389 q 377 381 377 374 q 377 347 364 312 q 350 277 326 240 q 303 204 272 170 q 242 135 208 108 q 175 80 140 64 q 105 47 74 47 q 53 47 40 54 q 26 60 18 70 q 11 81 8 94 q 6 107 6 120 q 6 162 28 212 q 51 263 83 308 q 120 360 158 402 q 197 445 234 478 q 271 511 304 536 q 338 561 366 578 q 432 619 493 641 q 554 663 600 663 q 630 663 648 653 q 667 643 678 627 q 688 611 692 591 q 696 571 696 552 q 696 481 635 390 q 603 342 559 292 q 515 242 467 192 q 419 142 372 94 q 325 45 288 0 q 251 -44 228 -84 q 205 -123 205 -154 q 205 -166 208 -176 q 212 -185 231 -185 q 259 -185 300 -160 q 342 -134 392 -90 q 441 -45 497 15 q 553 75 612 144 q 642 206 676 263 q 709 320 736 362 q 770 416 806 467 q 841 518 874 560 q 905 600 924 619 q 943 638 954 644 q 964 649 968 644 q 972 640 972 633 q 972 628 970 620 q 967 611 960 596 q 952 580 938 556 q 924 532 902 498 q 876 457 848 418 q 821 379 788 336 q 755 293 716 244 q 676 194 626 134 q 594 70 574 8 q 553 -53 553 -102 q 553 -138 567 -162 q 581 -186 606 -186 q 649 -186 690 -148 q 731 -111 772 -50 q 812 11 853 89 q 894 167 936 248 q 979 330 1024 408 q 1068 486 1116 547 q 1165 608 1218 646 q 1271 683 1329 683 q 1339 683 1354 680 q 1368 678 1381 674 q 1394 669 1403 663 q 1412 657 1412 649 q 1412 644 1408 640 q 1403 637 1398 642 z m 1020 325 q 1091 450 1144 526 q 1196 602 1239 640 q 1197 615 1158 571 q 1118 527 1081 470 q 1044 413 1008 347 q 972 281 938 214 q 903 147 868 82 q 834 18 800 -36 q 833 6 862 50 q 890 94 916 140 q 943 185 968 232 q 994 278 1020 325 z m 350 118 q 314 77 288 40 q 261 3 241 -33 q 269 6 312 52 q 354 98 402 147 q 449 196 496 247 q 544 298 584 348 q 623 399 648 448 q 674 497 678 541 q 664 496 629 446 q 594 395 548 340 q 503 286 450 230 q 398 173 350 118 z m 747 349 q 729 320 707 283 q 685 246 662 204 l 706 259 q 823 405 884 501 q 945 597 954 625 q 943 616 923 592 q 903 569 876 534 q 848 498 816 451 q 783 404 747 349 z m 52 79 q 44 98 44 122 q 44 157 58 202 q 73 247 99 296 l 116 324 q 94 299 77 270 q 60 242 48 214 q 36 187 30 162 q 23 137 23 119 q 23 71 61 65 q 59 68 56 72 q 54 75 52 79 z"},"A":{"x_min":0,"x_max":1054,"ha":1054,"o":"m 1277 676 q 1286 676 1286 670 q 1286 665 1284 663 q 1265 628 1230 608 q 1196 589 1151 579 q 1122 548 1092 508 q 1062 467 1034 420 q 1005 374 979 324 q 953 274 932 223 l 921 195 q 963 200 990 220 q 1017 240 1025 281 q 1027 288 1033 288 q 1037 288 1040 285 q 1042 282 1042 279 l 1042 278 q 1032 229 998 206 q 964 182 914 177 q 892 116 880 64 q 869 13 869 -26 q 869 -78 888 -99 q 907 -120 946 -120 q 972 -120 1002 -110 q 1033 -99 1060 -81 q 1087 -63 1106 -38 q 1124 -12 1127 18 q 1129 26 1137 26 q 1144 24 1144 17 q 1144 -16 1124 -44 q 1103 -73 1072 -94 q 1042 -114 1008 -126 q 973 -137 946 -137 q 886 -137 855 -97 q 824 -57 824 9 q 824 43 833 88 q 842 133 860 177 q 823 180 787 187 q 751 194 721 201 l 713 203 q 665 135 616 68 q 568 1 520 -61 q 485 -106 453 -133 q 421 -160 392 -175 q 387 -202 368 -224 q 349 -246 324 -262 q 298 -277 270 -285 q 242 -293 220 -293 q 176 -293 137 -274 q 98 -255 69 -223 q 40 -191 23 -149 q 6 -107 6 -60 q 6 -36 14 -2 q 21 33 40 70 q 60 108 94 144 q 129 181 183 208 q 177 232 177 258 q 177 293 188 326 q 198 358 216 387 q 234 416 258 442 q 282 467 309 487 q 357 523 410 544 q 463 564 518 574 q 574 585 632 588 q 690 591 748 591 q 799 591 850 588 q 902 586 959 584 q 1063 666 1174 666 q 1205 666 1213 655 q 1231 664 1246 670 q 1262 676 1277 676 z m 279 439 q 249 407 232 366 q 215 324 215 281 q 215 271 216 258 q 218 245 225 225 q 312 255 428 255 q 463 255 500 252 q 537 249 578 244 q 604 282 615 306 q 626 330 626 341 q 626 348 624 350 q 622 352 622 356 q 622 364 631 364 q 638 364 641 356 q 644 349 644 342 q 644 321 629 294 q 614 266 597 242 q 636 236 679 227 q 739 324 802 412 q 864 501 939 568 q 907 569 884 570 q 862 572 842 572 q 821 573 799 574 q 777 574 748 574 q 683 574 621 570 q 559 566 500 552 q 441 539 386 512 q 330 485 279 439 z m 394 -151 q 427 -129 460 -94 q 492 -59 524 -16 q 556 28 588 78 q 619 129 651 182 l 669 212 q 648 217 627 220 q 606 223 586 226 q 563 197 534 170 q 506 144 474 124 q 442 105 408 94 q 374 82 341 82 q 287 82 248 110 q 209 139 188 192 q 151 173 124 148 q 97 122 79 92 q 61 62 52 30 q 44 -3 44 -35 q 44 -97 66 -139 q 88 -181 120 -206 q 153 -232 191 -244 q 229 -255 261 -255 q 285 -255 308 -246 q 330 -237 347 -220 l 353 -214 q 367 -199 372 -184 q 353 -192 334 -196 q 316 -199 290 -199 q 265 -197 244 -186 q 222 -174 206 -156 q 189 -138 180 -116 q 170 -93 170 -69 q 170 -38 184 -12 q 199 13 221 30 q 243 47 270 56 q 297 66 323 66 q 347 66 368 58 q 390 49 407 30 q 409 26 409 25 q 409 22 407 19 q 405 16 401 16 q 397 16 394 19 q 380 35 362 42 q 343 48 323 48 q 300 48 276 40 q 252 31 232 16 q 212 1 200 -20 q 187 -42 187 -68 q 187 -89 195 -109 q 203 -129 218 -144 q 232 -160 251 -170 q 270 -180 292 -182 q 320 -182 340 -176 q 360 -171 377 -162 l 377 -148 q 377 -141 385 -139 q 392 -139 394 -147 z m 928 325 q 944 355 965 387 q 986 419 1010 451 q 1033 483 1059 514 q 1085 545 1111 572 q 1086 568 1060 567 q 1033 566 1007 566 q 971 537 936 498 q 901 459 866 414 q 830 368 795 318 q 760 268 724 218 q 753 211 790 204 q 828 196 866 194 q 881 232 898 266 q 914 299 928 325 z m 567 229 q 492 238 428 238 q 313 238 230 209 q 238 191 252 174 q 266 156 284 142 q 302 129 324 120 q 346 112 371 112 q 404 112 434 124 q 464 137 490 155 q 515 173 535 194 q 555 214 567 229 z m 917 230 q 942 291 974 352 q 1007 412 1042 467 q 1016 434 996 405 q 975 376 956 345 q 938 314 920 278 q 903 241 884 193 l 878 176 q 863 134 851 91 q 839 48 841 8 q 841 -12 844 -31 q 848 -50 856 -66 q 852 -50 852 -25 q 852 13 862 65 q 873 117 896 176 z m 707 223 q 743 274 780 326 q 816 377 852 425 q 878 459 901 486 q 924 513 948 536 q 973 560 1000 582 q 1027 603 1061 626 q 1010 604 962 564 q 915 523 870 470 q 825 417 782 354 q 739 291 697 224 l 629 115 q 655 151 670 172 q 685 194 694 206 q 702 217 704 220 q 707 223 707 223 z m 1132 592 q 1150 608 1166 622 q 1181 635 1198 646 q 1192 649 1181 649 q 1145 649 1105 629 q 1065 609 1029 583 q 1056 584 1082 586 q 1108 587 1132 592 z m 176 -270 q 198 -276 220 -276 q 241 -276 257 -272 q 222 -272 182 -259 q 141 -246 106 -218 q 72 -189 49 -143 q 26 -97 26 -31 q 26 -26 26 -22 q 27 -19 27 -15 q 25 -27 24 -38 q 23 -49 23 -60 q 23 -98 34 -132 q 46 -166 66 -194 q 87 -222 115 -242 q 143 -261 176 -270 z m 200 304 q 194 280 194 257 q 194 240 200 214 q 206 187 222 162 q 238 137 266 118 q 294 100 338 99 q 337 99 336 100 q 292 113 260 139 q 229 165 214 203 q 203 229 201 248 q 199 266 199 283 q 199 288 199 294 q 199 299 200 304 z m 1175 603 q 1201 611 1223 624 q 1245 637 1260 656 q 1241 652 1220 638 q 1198 625 1175 603 z"},"f":{"x_min":0,"x_max":205,"ha":205,"o":"m 212 205 q 201 187 174 187 q 157 187 138 195 q 120 203 103 223 q 101 140 81 57 q 61 -26 28 -94 q -5 -161 -47 -203 q -89 -245 -134 -245 q -154 -245 -168 -237 q -183 -229 -183 -203 q -183 -171 -162 -122 q -142 -72 -116 -20 q -40 145 16 267 q 71 389 112 476 q 154 562 184 618 q 214 673 240 705 q 265 737 290 749 q 315 761 345 761 q 362 761 374 749 q 385 737 385 715 q 385 682 358 634 q 332 585 288 526 q 245 466 188 398 q 130 331 69 261 q 41 229 20 200 q -1 171 -20 140 q -38 108 -56 71 q -73 34 -93 -13 q -106 -39 -118 -66 q -131 -93 -142 -118 q -152 -144 -159 -166 q -166 -189 -166 -204 q -166 -218 -161 -221 q -156 -224 -148 -224 q -133 -224 -116 -210 q -99 -197 -82 -178 q -65 -158 -50 -135 q -34 -112 -22 -93 q 5 -48 25 -8 q 45 33 58 72 q 72 112 79 153 q 86 194 86 239 l 86 257 q 86 264 94 264 q 99 264 102 259 q 114 227 136 216 q 157 204 174 204 q 188 204 194 211 q 199 218 205 218 q 209 218 211 215 q 213 212 213 209 q 213 206 212 205 z m 368 714 q 368 724 364 734 q 361 743 349 744 q 326 746 307 728 q 288 709 273 682 q 222 588 182 504 q 141 421 96 343 l 58 273 q 82 300 114 336 q 146 373 180 414 q 215 456 248 500 q 282 543 308 583 q 335 623 352 657 q 368 691 368 714 z m 280 722 q 258 705 234 671 q 211 637 181 580 q 151 523 112 440 q 73 358 21 243 l 41 278 q 51 296 61 314 q 71 332 82 351 q 125 429 166 512 q 207 596 259 690 q 264 699 270 707 q 275 715 280 722 z m -77 -206 q -39 -178 -6 -122 q 27 -65 50 7 q 38 -19 24 -46 q 10 -73 -7 -102 q -13 -111 -22 -126 q -32 -141 -44 -158 q -56 -175 -70 -192 q -85 -208 -100 -220 q -87 -214 -77 -206 z"},"Q":{"x_min":0,"x_max":847,"ha":847,"o":"m 822 656 q 842 648 853 630 q 864 613 864 592 q 864 572 856 554 q 848 537 834 523 q 836 514 838 504 q 840 495 840 484 q 840 428 816 356 q 791 284 744 209 q 693 128 630 66 q 568 4 497 -44 q 492 -83 488 -123 q 485 -163 485 -197 q 485 -219 488 -238 q 490 -256 497 -270 q 504 -283 517 -290 q 530 -298 550 -298 q 583 -298 623 -281 q 663 -264 698 -234 q 732 -204 756 -162 q 779 -121 779 -71 q 779 -58 776 -40 q 773 -22 765 -6 q 757 11 744 22 q 731 34 710 34 q 694 34 678 26 q 661 19 648 6 q 635 -8 627 -27 q 619 -46 619 -68 q 619 -73 620 -78 q 621 -84 621 -90 q 621 -96 614 -98 q 604 -98 603 -87 q 602 -76 602 -68 q 602 -42 612 -20 q 622 2 638 18 q 653 33 672 42 q 691 51 709 51 q 748 51 770 40 q 793 30 804 15 q 816 0 820 -16 q 823 -32 823 -44 q 823 -95 796 -144 q 768 -192 728 -230 q 687 -268 639 -291 q 591 -314 551 -314 q 539 -314 536 -314 q 534 -313 531 -313 q 479 -305 454 -264 q 430 -222 430 -150 q 430 -132 431 -113 q 432 -94 434 -74 q 417 -80 398 -83 q 379 -86 355 -86 q 287 -86 250 -46 q 212 -5 212 72 q 212 124 229 186 l 218 177 q 182 148 162 112 q 142 77 142 45 q 142 37 144 30 q 147 22 147 15 q 147 7 139 7 q 129 7 126 20 q 124 34 124 45 q 124 90 154 132 q 184 175 237 212 q 258 272 292 334 q 327 396 372 452 l 398 482 l 316 480 q 244 475 198 452 q 152 430 127 409 q 95 380 76 345 q 58 310 58 276 q 58 252 70 232 q 82 211 111 211 q 137 212 158 221 q 180 230 195 244 q 210 257 219 274 q 228 292 228 310 q 228 319 236 319 q 245 319 245 310 q 245 285 232 264 q 220 243 200 228 q 180 212 154 203 q 129 194 101 194 q 84 194 67 198 q 50 203 36 213 q 23 223 14 240 q 6 257 6 281 q 6 293 10 314 q 15 335 28 359 q 42 383 66 408 q 90 433 128 453 q 167 473 222 486 q 277 499 353 499 q 367 499 382 499 q 397 499 413 498 q 441 527 477 558 q 513 588 556 612 q 600 637 650 652 q 700 668 757 668 q 773 668 789 666 q 805 664 822 656 z m 510 -14 q 538 7 569 42 q 600 77 630 120 q 659 163 686 212 q 714 260 735 309 q 756 358 770 404 q 784 450 788 488 l 775 482 q 722 458 650 458 q 608 458 560 466 q 513 473 472 477 q 425 425 383 364 q 341 302 314 240 q 320 241 326 241 q 332 241 338 241 q 387 241 418 224 q 450 208 468 180 q 486 153 493 116 q 500 79 500 39 q 500 24 500 8 q 499 -7 498 -22 q 500 -21 502 -20 q 505 -18 510 -14 z m 437 -37 q 440 -8 442 20 q 444 49 444 75 q 444 106 440 132 q 435 157 424 176 q 413 196 394 208 q 375 221 346 224 q 329 224 321 224 q 313 223 306 221 q 286 174 276 132 q 266 89 266 53 q 266 -7 291 -38 q 316 -70 364 -70 q 381 -70 400 -66 q 418 -62 436 -55 q 436 -50 436 -46 q 437 -42 437 -37 z m 844 574 q 847 584 847 594 q 847 609 840 620 q 833 631 821 638 q 809 645 794 648 q 778 651 762 651 q 703 651 632 610 q 562 570 487 493 q 526 488 570 482 q 614 475 651 475 q 696 475 730 484 q 764 493 789 508 q 789 540 782 562 q 782 573 790 573 q 800 573 811 561 q 822 549 827 540 q 840 558 844 574 z m 259 -30 q 263 -35 267 -38 q 271 -42 276 -46 q 249 -12 249 52 q 249 87 258 129 q 266 171 285 215 l 294 236 q 320 298 362 362 q 403 425 451 479 l 466 495 q 504 536 546 570 q 587 604 626 627 q 595 615 564 598 q 534 581 507 562 q 480 542 458 521 q 435 500 420 481 q 378 436 343 385 q 308 334 282 281 q 257 228 243 174 q 229 121 229 72 q 229 6 259 -30 z m 480 -33 q 483 3 483 39 q 483 82 476 121 q 468 160 444 184 l 435 193 q 451 170 456 140 q 462 111 462 76 q 462 50 460 26 q 457 1 454 -26 q 452 -53 450 -83 q 447 -113 447 -150 q 447 -188 454 -218 q 461 -247 478 -267 q 468 -240 468 -197 q 468 -161 474 -122 q 480 -82 480 -33 z m 730 218 q 774 289 798 357 q 823 425 823 477 q 823 481 823 489 q 823 497 821 506 q 819 516 815 526 q 811 536 803 544 q 805 536 806 526 q 806 517 806 509 q 806 463 791 408 q 776 353 751 296 q 726 240 694 186 q 661 131 627 85 q 656 115 682 148 q 707 182 730 218 z m 116 421 q 120 425 124 428 q 129 431 134 435 q 95 415 72 392 q 50 368 39 346 q 28 324 26 306 q 23 289 23 281 q 23 258 32 246 q 40 233 56 221 q 41 244 41 276 q 41 314 61 352 q 81 391 116 421 z m 777 9 q 796 -29 796 -72 q 796 -90 793 -106 q 806 -72 806 -45 q 806 2 768 23 z"},"w":{"x_min":0,"x_max":405,"ha":405,"o":"m 404 217 q 407 217 410 215 q 413 213 413 209 q 413 206 411 204 q 397 181 384 174 q 372 166 361 166 q 350 166 343 170 q 336 175 328 183 q 313 162 294 141 q 274 120 253 103 q 232 86 212 76 q 193 65 180 65 q 174 65 167 66 q 160 68 154 73 q 148 78 144 88 q 139 97 139 112 q 139 122 141 133 q 143 144 146 155 q 104 111 69 90 q 34 68 11 68 q -13 68 -13 92 q -13 113 8 146 q 28 178 66 216 q 99 249 114 274 q 128 298 128 311 q 128 315 126 320 q 125 324 113 324 q 94 324 70 297 q 46 270 9 208 q 6 203 2 203 q -7 203 -7 212 q -7 215 -6 216 q 34 284 62 312 q 89 341 113 341 q 126 341 136 336 q 145 330 151 322 q 157 313 160 304 q 163 294 163 286 q 163 268 152 248 q 140 229 122 210 q 105 191 85 172 q 65 153 48 137 q 30 121 18 108 q 7 95 7 87 q 13 82 29 88 q 45 95 66 110 q 87 124 111 146 q 135 167 158 192 q 166 210 173 225 q 180 240 185 250 q 189 257 197 272 q 205 286 214 300 q 224 314 234 324 q 244 335 252 335 q 266 335 266 321 q 266 313 258 300 q 251 287 238 264 q 225 241 214 216 q 202 192 194 168 q 185 145 180 126 q 175 106 175 94 q 175 89 176 86 q 176 82 180 82 q 203 82 238 121 q 273 160 305 225 q 299 239 296 255 q 293 271 293 285 q 293 311 304 326 q 314 341 332 341 q 349 341 362 329 q 375 317 375 297 q 375 273 364 247 q 352 221 338 198 q 348 183 362 183 q 369 183 375 188 q 381 194 386 200 q 391 206 396 212 q 400 217 404 217 z m 78 203 q 56 182 42 164 q 27 145 19 131 l 51 162 q 67 178 84 194 q 102 211 116 228 q 130 244 138 260 q 147 275 147 290 l 144 300 q 135 261 78 203 z m 156 111 q 156 107 156 103 q 157 99 159 96 q 160 115 168 144 q 175 172 189 202 q 214 256 228 280 q 241 303 248 315 q 234 303 218 276 q 201 248 188 216 q 174 185 165 156 q 156 126 156 111 z m 290 163 q 301 175 313 190 q 325 205 335 222 q 345 240 352 259 q 358 278 358 297 q 358 308 353 316 q 352 297 342 268 q 331 238 314 204 z m 312 301 q 311 296 311 286 q 311 277 312 268 q 313 258 316 248 q 335 292 335 315 q 335 318 334 321 q 334 324 332 324 q 317 324 312 301 z"},"-":{"x_min":0,"x_max":255,"ha":255,"o":"m 195 232 q 203 232 203 223 q 203 211 194 204 q 185 197 173 193 q 161 189 148 188 q 136 187 129 187 q 123 187 108 188 q 92 189 75 190 q 58 192 44 194 q 30 197 28 200 q 23 208 36 219 q 50 230 66 230 z m 129 204 q 164 204 178 215 l 68 215 q 58 211 54 208 q 73 208 92 206 q 111 204 129 204 z"},"E":{"x_min":0,"x_max":724,"ha":724,"o":"m 831 614 q 832 609 832 605 q 833 601 833 596 q 833 571 818 554 q 802 537 779 526 q 756 516 730 512 q 704 507 684 507 q 649 507 616 510 q 582 513 550 518 q 536 487 536 463 q 536 451 541 439 l 544 433 q 566 436 588 438 q 610 441 633 441 q 654 441 670 434 q 685 428 685 414 q 685 399 668 392 q 651 384 624 384 q 568 384 533 407 q 464 389 398 354 q 333 318 282 268 q 230 218 198 156 q 167 95 167 25 q 167 -23 182 -62 q 198 -102 226 -130 q 255 -157 295 -172 q 335 -188 385 -188 l 388 -188 q 462 -187 518 -155 q 575 -123 613 -76 q 651 -28 670 27 q 689 82 689 130 q 689 142 687 154 q 685 167 685 178 q 685 186 693 186 q 698 186 700 180 q 703 174 704 165 q 706 156 706 146 q 706 137 706 130 q 706 78 685 19 q 664 -40 623 -90 q 582 -139 521 -172 q 460 -205 380 -205 q 318 -205 269 -190 q 220 -176 185 -148 q 150 -121 132 -82 q 113 -42 113 7 q 113 71 144 138 q 175 204 229 262 q 283 320 356 364 q 428 407 512 426 q 491 453 491 485 q 491 506 499 527 q 441 539 382 552 q 324 564 270 564 q 222 564 182 550 q 142 535 114 510 q 85 484 69 450 q 53 415 53 375 q 53 356 58 338 q 62 319 72 304 q 82 289 97 280 q 112 271 132 271 l 133 270 q 154 271 175 278 q 196 285 214 296 q 231 307 242 323 q 252 339 252 358 q 252 361 252 364 q 251 368 251 372 q 251 380 259 380 q 267 380 268 372 q 269 365 269 359 q 269 338 257 319 q 245 300 226 286 q 207 272 183 264 q 159 255 134 254 l 127 254 q 120 254 100 256 q 80 259 59 272 q 38 285 22 312 q 5 339 5 387 q 5 431 26 467 q 46 503 82 528 q 118 554 166 568 q 215 581 270 581 l 272 581 q 315 580 358 572 q 402 565 448 555 l 506 543 q 519 567 542 588 q 564 610 595 626 q 626 643 665 653 q 704 663 751 663 l 752 663 q 782 663 803 649 q 824 635 831 614 z m 807 569 q 817 582 817 597 q 817 619 798 632 q 780 646 750 646 l 732 646 q 676 641 630 610 q 584 579 559 534 q 589 529 620 526 q 651 524 684 524 q 699 524 716 526 q 733 528 750 534 q 767 539 782 548 q 797 556 807 569 z m 210 207 q 231 238 258 266 q 285 294 316 319 q 272 286 238 247 q 203 208 179 167 q 155 126 142 85 q 130 44 130 7 q 130 -51 157 -92 q 184 -134 234 -159 q 192 -127 171 -78 q 150 -30 150 25 q 150 117 210 207 z m 96 517 q 61 492 42 458 q 22 424 22 387 q 22 361 32 337 q 41 313 55 299 q 36 331 36 375 q 36 413 50 449 q 65 485 92 513 z m 541 537 q 551 554 562 570 q 573 586 587 598 l 604 613 q 575 598 556 579 q 536 560 524 540 l 517 524 q 508 504 508 485 q 508 459 523 440 q 520 452 520 464 q 520 483 526 500 q 531 518 541 537 z m 632 424 q 615 422 598 420 q 580 418 563 414 q 583 402 615 401 l 624 401 q 647 401 656 405 q 666 409 668 412 l 668 415 q 666 417 660 420 q 654 423 641 424 z"},"s":{"x_min":0,"x_max":201,"ha":201,"o":"m 205 216 q 207 214 208 210 q 210 206 208 204 q 184 168 149 145 q 114 122 76 103 q 74 78 66 48 q 59 19 44 -8 q 29 -34 6 -52 q -16 -70 -47 -71 q -67 -72 -82 -60 q -98 -48 -98 -25 q -98 -2 -86 16 q -73 35 -54 51 q -34 67 -10 80 q 15 93 39 104 q 34 130 26 157 q 18 184 13 214 l 7 204 q 4 200 -1 200 q -9 200 -9 208 q -9 209 -7 213 l 9 241 q 8 247 8 254 q 8 260 8 267 q 8 281 11 302 q 14 323 19 342 q 24 362 32 376 q 40 390 50 390 q 69 390 69 358 q 69 344 64 323 q 58 302 46 276 l 54 246 q 63 213 70 184 q 76 154 76 122 q 111 139 142 160 q 173 181 193 213 q 195 215 199 216 q 203 218 205 216 z m 25 -6 q 36 12 40 30 q 43 47 43 65 q 43 70 43 76 q 43 82 42 87 q 20 76 -2 64 q -24 53 -42 40 q -59 26 -70 10 q -81 -6 -81 -24 q -81 -38 -72 -46 q -63 -54 -48 -54 q -31 -54 -12 -43 q 8 -32 25 -6 z m 58 69 q 65 108 62 132 q 59 156 58 160 q 54 180 49 200 q 44 219 38 241 q 38 242 36 250 q 34 257 32 265 q 29 273 28 280 q 26 287 26 289 q 25 284 25 280 q 25 275 25 270 q 24 247 30 220 q 35 193 42 167 q 49 140 54 119 q 58 98 58 69 z m 50 373 q 42 368 40 354 q 38 340 38 330 q 38 325 38 318 q 39 312 40 305 q 48 324 50 338 q 53 351 53 359 q 53 364 52 368 q 51 371 50 373 z"},">":{"x_min":0,"x_max":279,"ha":279,"o":"m 196 206 q 197 205 197 202 q 197 198 193 195 l 69 116 q 67 115 64 115 q 62 115 59 116 q 56 118 56 123 q 56 129 60 130 l 177 205 l 135 281 q 134 282 134 285 q 134 288 136 291 q 137 294 142 294 q 147 294 150 289 z"},"l":{"x_min":0,"x_max":144,"ha":144,"o":"m 8 202 q -7 164 -12 141 q -16 118 -16 113 q -16 102 -12 92 q -9 82 9 82 q 18 82 30 86 q 41 90 56 104 q 71 118 90 144 q 110 169 136 213 q 139 217 144 217 q 152 217 152 208 q 152 205 151 204 q 106 129 74 97 q 41 65 9 65 q -5 65 -13 70 q -21 74 -26 80 q -30 87 -31 96 q -32 104 -32 112 q -32 130 -28 148 q -23 165 -15 188 q 24 316 74 422 q 125 528 178 604 q 230 679 279 721 q 328 763 364 763 q 375 763 386 758 q 398 754 398 739 q 398 728 392 713 q 387 698 378 681 q 369 664 358 646 q 346 627 335 611 q 300 560 258 508 q 215 457 172 406 q 128 354 86 302 q 43 251 8 202 z m 320 621 q 327 631 338 646 q 348 660 358 676 q 367 693 374 710 q 381 727 381 742 q 379 742 364 734 q 350 727 322 698 q 293 669 249 612 q 205 556 145 457 q 113 405 88 360 q 62 315 42 276 q 76 319 112 362 q 149 406 186 450 q 222 493 256 536 q 291 579 320 621 z m 332 737 q 303 723 269 690 q 235 656 199 605 q 163 554 127 488 q 91 422 59 344 q 149 506 226 608 q 304 710 349 744 z"},"8":{"x_min":0,"x_max":999,"ha":999,"o":"m 8 441 q 46 461 82 478 q 119 495 161 507 q 164 507 166 518 q 168 529 170 542 q 173 556 175 568 q 177 581 179 586 q 185 595 194 602 q 204 609 215 614 q 226 620 238 624 q 249 629 258 633 q 306 653 355 667 q 404 681 454 694 q 505 706 556 715 q 608 724 660 729 q 678 731 704 734 q 729 736 755 735 q 781 734 804 728 q 828 723 843 708 q 845 705 842 692 q 840 679 839 674 l 836 621 q 836 619 838 619 q 880 607 920 588 q 961 568 988 531 l 988 530 q 979 532 968 528 q 956 524 945 517 q 934 510 924 502 q 915 494 910 488 q 926 479 936 462 q 947 445 952 426 q 956 406 956 386 q 955 366 949 350 q 940 373 922 386 q 904 399 882 405 q 859 411 835 413 q 811 415 790 416 q 766 418 739 417 q 712 416 689 424 q 680 427 676 438 q 673 449 672 462 q 672 474 674 486 q 676 499 677 507 q 577 499 480 476 q 382 453 289 421 q 284 419 284 418 q 285 412 288 399 q 292 386 294 372 q 297 358 298 346 q 298 334 294 330 q 282 320 263 318 q 244 316 228 314 q 207 311 185 308 q 163 305 142 301 q 104 293 72 280 q 64 275 56 272 q 49 269 41 264 q 37 260 32 253 q 26 246 22 244 q 28 263 36 281 q 43 299 50 316 q 51 319 57 330 q 63 340 69 352 q 75 363 79 372 q 83 382 82 384 q 68 404 50 422 q 32 439 8 441 z m 819 508 q 822 538 822 569 q 822 600 824 629 q 824 645 826 660 q 827 676 829 691 q 830 706 814 710 q 799 715 786 717 q 721 727 652 718 q 583 708 519 694 q 449 680 380 662 q 312 643 246 614 q 234 608 221 602 q 208 595 197 586 q 186 576 184 559 q 181 542 179 529 q 174 493 174 457 q 174 421 174 384 q 179 384 186 388 q 194 391 202 396 q 210 401 218 406 q 225 411 230 413 q 250 421 270 428 q 291 436 312 444 q 354 457 396 468 q 438 479 483 489 q 525 498 566 506 q 608 514 652 518 q 691 522 736 524 q 781 525 819 508 z m 722 577 q 717 572 714 568 q 710 564 703 562 q 698 560 694 562 q 691 564 688 567 q 685 565 681 562 q 677 560 672 559 q 655 556 649 570 l 649 571 q 644 566 640 562 q 635 558 627 556 q 620 552 613 562 q 610 568 612 574 q 613 580 616 586 q 619 592 621 598 q 623 605 622 611 q 613 607 608 600 q 604 594 602 586 q 600 579 598 571 q 597 563 594 556 q 592 547 581 551 q 577 552 577 557 q 577 559 578 562 q 578 564 578 566 q 570 564 568 564 q 565 564 559 558 q 554 552 546 548 q 538 543 529 543 q 523 544 520 548 q 517 551 514 556 q 505 546 492 538 q 480 529 466 531 q 459 532 452 541 q 446 534 440 528 q 433 523 424 521 q 409 515 407 532 q 405 546 412 556 q 418 566 423 577 q 424 579 422 580 q 419 580 418 578 q 414 567 408 554 q 403 541 394 530 q 386 518 375 510 q 364 503 349 504 q 332 505 330 516 q 327 528 332 542 q 338 555 350 566 q 361 578 373 579 q 380 579 382 573 q 388 567 383 558 q 380 546 368 536 q 357 527 344 524 q 346 518 350 517 q 355 516 360 518 q 365 521 370 524 q 374 528 376 530 q 389 541 396 555 q 402 569 407 583 q 408 586 402 596 q 395 606 397 614 q 399 620 404 624 q 410 628 416 627 q 422 627 424 620 q 427 614 426 608 q 424 601 424 594 q 435 596 440 594 q 445 593 438 579 q 433 570 428 560 q 423 551 422 541 q 422 536 426 536 q 438 535 446 546 q 453 557 459 572 q 465 586 470 600 q 476 613 484 618 q 489 619 493 617 q 494 614 494 610 q 492 603 488 598 q 485 594 488 586 q 491 579 495 572 q 499 565 498 557 l 499 557 q 505 563 509 572 q 513 581 517 590 q 521 599 526 606 q 532 614 541 618 q 561 625 568 607 q 573 599 571 593 q 569 587 570 578 q 576 579 578 583 q 586 590 588 602 q 589 614 592 624 q 594 627 598 628 q 602 628 604 627 q 610 626 609 620 l 609 619 q 615 625 622 628 q 634 634 638 621 q 640 615 638 609 q 637 603 634 597 q 631 591 628 585 q 626 579 627 572 q 635 578 640 586 q 645 594 650 602 q 654 611 660 618 q 665 626 673 631 q 680 635 686 634 q 693 633 701 631 q 703 635 710 636 q 718 636 716 628 q 714 617 708 606 q 702 595 702 584 q 702 578 707 583 q 718 594 724 609 q 729 624 734 640 q 739 655 747 668 q 755 682 770 691 q 778 695 783 687 q 790 674 785 660 q 780 647 772 638 q 768 633 762 626 q 755 620 749 614 q 743 607 738 600 q 734 593 736 586 q 737 577 748 579 q 756 582 760 589 q 763 596 768 603 q 770 604 774 604 q 779 604 779 599 l 777 592 q 767 571 748 563 q 734 555 724 571 q 722 573 722 577 z m 964 539 q 938 565 904 580 q 871 596 836 606 q 834 574 834 544 q 833 514 831 483 l 830 484 l 830 481 q 815 480 795 479 q 775 478 754 474 q 734 470 717 462 q 700 454 691 441 q 687 438 693 437 q 708 431 724 429 q 741 427 758 427 q 775 427 792 428 q 809 428 824 427 q 839 426 855 424 q 871 422 887 417 q 903 412 915 404 q 927 396 941 389 q 941 422 930 446 q 918 471 886 483 q 904 500 922 516 q 941 531 964 539 z m 162 494 q 100 478 38 444 q 73 424 97 386 q 98 384 95 377 q 92 370 88 362 q 83 354 78 346 q 74 339 73 336 q 66 324 61 311 q 56 298 51 284 q 78 299 108 306 q 137 312 166 316 q 196 320 226 324 q 255 329 284 338 q 275 348 259 352 q 243 355 225 356 q 207 356 190 354 q 172 353 160 352 q 160 387 160 423 q 160 459 162 494 z m 417 184 q 417 189 416 192 q 414 194 412 197 l 443 197 q 458 190 470 169 q 483 148 490 133 q 490 147 491 166 q 492 185 484 197 l 524 197 q 518 191 518 184 q 519 176 519 168 l 519 34 q 519 26 518 17 q 518 8 524 2 l 412 2 q 418 9 420 20 q 421 32 420 45 q 420 58 418 70 q 417 82 417 91 z m 360 197 q 380 197 390 186 q 399 175 402 158 q 405 142 404 124 q 403 105 403 91 l 403 48 q 403 22 388 12 q 374 1 350 2 q 329 2 320 13 q 310 24 307 40 q 304 57 305 76 q 306 94 306 108 q 306 119 305 129 q 304 139 306 150 q 306 177 320 187 q 335 197 360 197 z m 301 612 q 308 612 312 611 q 321 610 327 603 q 333 596 334 586 q 338 562 322 540 q 306 519 286 507 q 276 500 270 490 q 265 479 260 468 q 256 458 250 448 q 243 438 231 432 q 217 423 202 427 q 186 432 188 448 q 188 459 196 468 q 205 477 216 479 q 219 480 224 478 q 229 475 227 470 q 219 466 214 466 q 208 464 206 457 q 203 450 207 444 q 209 442 212 442 q 214 441 216 440 q 226 439 234 446 q 241 454 246 464 q 250 475 253 486 q 256 498 258 506 q 243 491 224 487 q 219 486 212 487 q 206 488 201 493 q 192 498 192 513 q 192 528 199 541 q 215 575 246 594 q 260 603 274 607 q 280 609 286 614 q 293 618 298 619 q 304 619 301 612 z m 416 327 q 414 335 410 348 q 407 361 406 374 q 404 387 406 399 q 409 411 418 417 q 424 422 436 422 q 447 423 451 413 q 454 404 450 402 q 446 399 440 400 q 434 400 430 404 q 426 407 431 412 q 422 407 422 396 q 421 385 425 372 q 429 360 434 348 q 440 336 442 329 q 449 309 452 282 q 454 254 440 236 q 434 228 422 226 q 409 223 394 223 q 380 223 366 224 q 352 226 343 226 q 349 234 351 246 q 353 258 352 272 q 352 285 350 298 q 349 312 349 321 l 349 389 q 349 397 350 405 q 350 413 343 421 l 384 421 q 376 414 378 404 q 379 393 379 383 l 379 307 q 379 297 378 280 q 376 262 383 254 q 387 248 393 248 q 399 247 404 250 q 409 253 414 258 q 418 263 419 268 q 423 282 420 298 q 418 313 416 327 z m 644 352 q 642 347 636 336 q 630 324 625 311 q 620 298 618 287 q 617 276 624 272 q 621 278 627 279 q 633 280 639 278 q 645 275 646 270 q 648 265 637 260 q 623 255 618 265 q 612 275 613 284 q 613 293 616 302 q 620 312 621 320 q 622 327 619 331 q 616 335 603 334 l 603 250 q 613 250 626 248 q 640 246 650 254 q 647 246 646 240 q 644 234 642 226 l 567 226 q 572 232 572 239 q 573 246 573 254 l 573 389 q 573 397 572 406 q 572 414 567 421 l 636 421 q 649 407 650 388 q 650 370 644 352 z m 547 416 q 547 408 551 400 q 555 392 558 384 q 561 375 560 367 q 560 359 552 352 q 544 346 534 347 q 523 348 522 359 q 522 365 526 368 q 530 371 534 371 q 539 371 542 368 q 545 366 544 361 q 551 362 551 368 q 551 373 548 379 q 544 385 538 390 q 532 396 528 397 q 520 399 510 397 q 500 395 497 387 q 490 373 494 364 q 499 354 508 346 q 517 338 528 331 q 540 324 546 316 q 554 305 558 290 q 562 276 560 262 q 558 248 549 238 q 540 228 523 226 q 509 224 494 225 q 479 226 464 226 q 469 228 468 236 q 466 244 463 254 q 460 264 458 274 q 457 285 462 292 q 465 295 470 297 q 475 299 480 299 q 485 299 489 296 q 493 294 494 288 q 494 282 490 280 q 487 277 482 277 q 478 277 474 280 q 471 282 471 287 q 464 285 464 279 q 464 273 468 267 q 472 261 478 256 q 483 252 487 251 q 495 249 506 249 q 516 249 522 254 q 534 266 532 277 q 529 288 520 298 q 512 307 501 314 q 490 322 484 328 q 474 337 468 351 q 462 365 462 379 q 461 393 468 404 q 475 416 492 420 q 506 423 521 422 q 536 421 550 421 z m 151 -72 l 128 -193 l 104 -193 q 101 -173 98 -153 q 96 -133 93 -113 q 91 -133 87 -153 q 83 -173 80 -193 l 57 -193 l 36 -72 l 61 -72 q 63 -94 65 -117 q 67 -140 71 -162 q 73 -139 76 -116 q 80 -94 84 -72 l 104 -72 l 118 -162 q 120 -139 122 -116 q 125 -94 128 -72 z m 269 -72 l 246 -193 l 223 -193 q 216 -155 211 -113 q 209 -133 206 -153 q 202 -173 199 -193 l 174 -193 l 154 -72 l 179 -72 q 181 -94 183 -117 q 185 -140 189 -162 q 191 -139 194 -116 q 198 -94 202 -72 l 223 -72 l 236 -162 q 238 -139 240 -116 q 243 -94 246 -72 z m 387 -72 l 364 -193 l 341 -193 q 337 -173 334 -153 q 332 -133 329 -113 q 327 -133 324 -153 q 320 -173 317 -193 l 293 -193 l 272 -72 l 297 -72 q 299 -94 302 -117 q 304 -140 307 -162 q 309 -139 312 -116 q 315 -94 320 -72 l 341 -72 l 354 -162 q 356 -139 358 -116 q 361 -94 364 -72 z m 596 -136 q 604 -139 608 -146 q 611 -153 613 -162 q 615 -170 616 -178 q 617 -187 620 -193 l 592 -193 q 589 -187 588 -178 q 586 -170 584 -162 q 582 -155 578 -150 q 573 -146 563 -147 l 563 -193 l 534 -193 l 534 -73 q 549 -71 569 -70 q 589 -69 603 -78 q 620 -90 616 -109 q 612 -128 596 -136 z m 820 -193 l 792 -193 q 781 -173 772 -151 q 764 -129 753 -109 q 754 -130 754 -152 q 754 -173 754 -193 l 729 -193 l 729 -72 l 760 -72 l 797 -154 q 795 -134 794 -113 q 794 -92 794 -72 l 820 -72 z m 530 2 q 536 10 538 22 q 540 34 540 48 q 539 61 538 74 q 536 87 536 96 l 536 164 q 536 173 536 181 q 537 189 530 197 l 571 197 q 565 191 564 180 q 562 169 562 157 q 563 145 564 133 q 566 121 566 114 l 566 24 l 622 24 q 634 24 652 23 q 671 22 682 30 q 680 25 678 14 q 676 2 671 2 z m 520 -193 l 492 -193 l 484 -166 l 456 -166 l 450 -193 l 421 -193 l 453 -72 l 488 -72 z m 931 -189 q 909 -197 888 -194 q 868 -190 854 -178 q 840 -165 836 -146 q 832 -126 844 -102 q 851 -86 866 -78 q 882 -71 900 -71 q 901 -71 906 -71 q 910 -71 916 -72 q 921 -73 924 -74 q 928 -75 928 -77 l 923 -99 q 909 -92 897 -94 q 885 -96 878 -104 q 870 -112 867 -124 q 864 -137 868 -150 q 876 -175 901 -172 q 907 -171 906 -160 q 904 -150 904 -146 l 890 -146 l 890 -123 l 931 -123 z m 626 100 q 619 112 614 124 q 609 137 604 150 q 599 163 597 176 q 595 189 584 197 l 627 197 q 620 182 628 162 q 635 141 642 128 q 649 144 654 162 q 659 180 654 197 l 698 197 q 686 190 684 176 q 681 161 678 150 q 674 139 665 124 q 656 109 656 98 q 656 86 654 68 q 653 49 661 39 l 620 39 q 630 49 628 68 q 626 88 626 100 z m 374 150 q 374 159 369 165 q 364 171 357 173 q 350 175 344 172 q 338 169 336 160 q 334 152 335 144 q 336 136 336 129 q 336 109 335 88 q 334 68 336 48 q 336 40 341 34 q 346 28 352 26 q 359 23 365 26 q 371 29 373 39 q 374 46 374 54 q 374 62 374 70 z m 490 19 q 488 53 479 88 q 470 123 447 151 l 447 26 q 447 18 454 13 q 460 8 468 7 q 475 6 482 8 q 489 11 490 19 z m 280 596 q 265 592 252 582 q 239 573 228 562 q 225 558 220 548 q 214 538 210 528 q 207 517 208 508 q 210 500 221 500 q 237 500 248 511 q 258 522 264 537 q 270 552 274 568 q 277 585 280 596 z m 636 -72 l 664 -72 l 664 -193 l 636 -193 z m 277 516 q 285 518 293 526 q 301 534 306 544 q 312 555 314 566 q 317 578 314 586 q 312 592 307 595 q 302 598 297 598 q 289 578 286 557 q 282 536 277 516 z m 603 398 l 603 359 q 609 359 616 359 q 622 359 628 360 q 634 362 638 366 q 643 370 643 378 q 643 387 639 391 q 635 395 629 396 q 623 398 616 398 q 609 398 603 398 z m 694 614 q 693 619 692 622 q 691 624 686 622 q 676 618 671 610 q 666 601 664 592 q 663 589 663 584 q 663 580 664 577 q 666 574 669 573 q 672 572 677 576 q 684 582 688 593 q 693 604 694 614 z m 527 574 l 529 567 q 534 558 542 563 q 550 566 554 575 q 559 584 557 593 q 556 599 552 602 q 548 606 540 600 q 534 595 531 588 q 528 582 527 574 z m 377 -178 q 377 -170 382 -166 q 387 -162 394 -162 q 400 -162 405 -166 q 410 -170 410 -178 q 410 -186 405 -190 q 400 -195 394 -195 q 387 -195 382 -190 q 377 -186 377 -178 z m 680 -178 q 680 -170 685 -166 q 690 -162 696 -162 q 703 -162 708 -166 q 713 -170 713 -178 q 713 -186 708 -190 q 703 -195 696 -195 q 690 -195 685 -190 q 680 -186 680 -178 z m 570 -126 q 580 -126 584 -120 q 589 -115 588 -108 q 587 -101 582 -96 q 576 -91 567 -92 q 564 -92 563 -96 q 562 -101 562 -106 q 562 -112 562 -118 q 563 -123 563 -126 z m 481 -144 q 476 -120 470 -94 l 459 -144 z m 474 576 q 471 571 466 563 q 462 555 463 550 q 465 543 472 544 q 479 545 480 552 q 481 563 474 576 z m 344 536 q 351 534 360 544 q 369 554 370 559 q 372 563 369 566 q 366 568 362 564 q 356 559 352 552 q 348 544 344 536 z m 772 674 l 771 674 q 751 654 744 628 q 753 639 762 650 q 770 660 772 674 z m 412 599 l 414 599 q 414 603 415 606 q 416 609 414 613 q 411 613 410 610 q 409 605 412 599 z"},"\\":{"x_min":0,"x_max":330,"ha":330,"o":"m 82 606 q 94 599 108 562 q 122 526 146 446 q 170 366 208 236 q 247 105 309 -90 q 311 -92 309 -96 q 307 -98 304 -100 q 301 -101 298 -99 q 293 -97 293 -94 l 44 574 q 43 576 45 581 q 51 592 58 601 q 65 610 75 609 z m 82 582 q 79 587 78 589 q 76 591 75 592 q 74 592 72 590 q 70 588 68 585 q 65 582 62 576 l 207 184 q 154 363 126 460 q 98 557 82 582 z"},"e":{"x_min":0,"x_max":238,"ha":238,"o":"m 237 217 q 246 217 246 208 q 246 205 245 204 q 224 169 200 143 q 177 117 153 100 q 129 82 106 74 q 84 65 65 65 q 26 65 4 89 q -19 113 -19 151 q -19 183 -6 216 q 7 250 28 278 q 50 305 78 322 q 105 340 134 340 q 160 340 182 325 q 203 310 203 278 q 203 259 194 240 q 186 221 172 206 q 157 191 137 182 q 117 172 93 172 q 80 172 64 176 q 49 179 36 190 q 22 154 22 131 q 22 105 34 94 q 46 82 62 82 q 94 82 141 112 q 188 143 230 213 q 231 217 237 217 z m 172 292 q 172 302 168 310 q 164 319 152 321 q 138 321 123 311 q 108 301 94 285 q 79 269 66 248 q 53 228 44 208 q 54 192 73 192 q 89 192 107 202 q 125 213 139 228 q 153 243 162 260 q 172 278 172 292 z m 2 185 q 0 180 -1 172 q -2 163 -2 152 q -2 142 0 132 q 2 122 7 113 q 5 123 5 131 q 5 143 10 165 q 14 187 25 214 q 36 240 55 267 q 74 294 104 317 q 86 310 70 296 q 53 281 40 263 q 26 245 16 224 q 6 204 2 185 z m 128 196 q 151 206 167 227 q 183 248 186 273 q 180 253 164 232 q 148 210 128 196 z"},"b":{"x_min":0,"x_max":260,"ha":260,"o":"m 181 393 q 163 376 144 357 q 125 338 104 316 q 83 293 59 266 q 35 238 8 204 q -3 175 -8 152 q -13 130 -13 115 q -13 103 -9 92 q -5 82 12 82 q 35 82 66 106 q 97 130 129 173 l 135 182 q 129 190 126 202 q 123 214 123 227 q 123 247 129 268 q 135 290 144 308 q 154 325 166 336 q 178 348 190 348 q 204 348 211 342 q 218 335 220 326 q 223 317 222 308 q 222 299 222 294 q 222 264 212 231 q 202 198 184 168 q 186 167 190 167 q 206 168 223 180 q 240 193 252 213 q 255 217 260 217 q 264 217 266 214 q 268 211 268 208 q 268 205 267 204 q 252 180 232 166 q 211 151 190 150 q 187 150 183 150 q 179 151 174 152 q 146 108 107 85 q 68 62 32 62 q -6 62 -18 76 q -30 89 -30 114 q -30 153 -8 210 q 7 248 27 286 l 27 287 q 132 530 228 648 q 324 766 416 766 q 432 766 442 756 q 451 747 453 732 q 453 713 440 688 q 426 664 404 636 q 383 608 356 578 q 329 548 302 519 q 268 484 240 454 q 213 424 181 393 z m 34 263 q 67 302 96 332 q 124 361 149 386 q 174 410 196 432 q 219 454 240 477 l 289 531 q 314 557 340 585 q 366 613 388 640 q 409 667 422 690 q 436 713 436 729 q 436 744 426 746 q 415 749 403 747 q 384 740 356 716 q 328 691 296 654 q 263 617 228 571 q 193 525 160 475 q 126 425 96 375 q 65 325 43 280 z m 165 310 q 154 293 147 270 q 140 247 140 226 q 140 209 146 197 q 168 230 182 262 q 197 294 199 314 q 199 319 198 324 q 198 330 192 331 q 183 331 176 323 q 168 315 165 310 z m 339 724 q 235 664 124 450 q 142 478 168 514 q 193 551 222 589 q 250 627 280 662 q 311 698 339 724 z m 142 163 q 129 146 109 124 q 89 101 66 85 q 92 93 117 116 q 142 138 168 173 q 182 196 191 221 q 200 246 204 270 q 195 247 178 215 q 162 183 142 163 z"},"%":{"x_min":0,"x_max":330,"ha":330,"o":"m 339 360 q 321 343 290 317 q 260 291 216 254 q 173 218 116 170 q 58 121 -15 58 q -16 56 -20 56 q -25 56 -27 59 q -29 62 -29 64 q -29 67 -26 70 l 330 415 q 332 417 336 417 q 347 417 358 415 q 370 413 370 402 q 370 390 339 360 z m 187 253 q 271 324 310 359 q 348 394 352 399 q 350 400 339 400 z m 74 304 q 74 324 81 343 q 88 362 100 376 q 112 391 128 400 q 143 409 159 409 q 179 409 192 396 q 204 382 206 359 q 206 339 198 320 q 191 302 179 288 q 167 273 152 264 q 137 255 121 255 q 101 255 88 269 q 75 283 74 304 z m 104 353 q 91 330 91 309 q 91 272 121 272 q 133 272 145 279 q 157 286 166 298 q 176 310 182 326 q 189 341 189 358 q 187 374 179 383 q 171 392 159 392 q 145 392 130 381 q 115 370 104 353 z m 232 206 q 253 194 256 162 q 256 142 248 124 q 241 105 229 90 q 217 76 202 67 q 187 58 171 58 q 151 58 138 72 q 124 86 124 108 q 124 128 132 146 q 139 165 151 180 q 163 194 178 203 q 193 212 209 212 q 221 212 232 206 z m 226 114 q 239 137 239 157 q 239 173 231 184 q 223 195 209 195 q 198 195 186 188 q 174 181 164 170 q 154 158 148 143 q 141 128 141 112 q 141 95 149 85 q 157 75 171 75 q 185 75 200 86 q 215 97 226 114 z"},"m":{"x_min":0,"x_max":473,"ha":473,"o":"m 477 216 q 479 215 480 210 q 482 206 480 204 q 469 185 450 161 q 432 137 411 115 q 390 93 368 78 q 347 63 330 62 l 329 62 q 294 62 276 74 q 259 85 259 104 q 259 118 269 136 q 279 154 294 173 q 308 192 326 212 q 343 232 358 250 q 373 269 383 286 q 393 302 394 315 q 392 321 380 321 q 368 321 354 314 q 340 307 325 296 q 310 285 295 271 q 280 257 267 242 q 258 215 242 186 q 227 158 208 133 q 189 108 168 90 q 148 72 130 65 q 127 62 122 65 q 118 68 118 72 q 118 74 120 78 q 138 106 160 141 q 181 176 200 210 q 219 243 232 272 q 244 301 244 316 q 244 327 232 327 q 221 327 200 314 q 180 300 146 259 q 145 256 140 241 q 136 226 128 206 q 120 185 108 162 q 97 138 82 118 q 66 97 46 82 q 27 68 4 65 q -5 65 -5 74 q -5 77 -4 78 q 13 102 36 136 q 58 170 78 204 q 98 238 112 267 q 125 296 125 311 q 125 316 124 321 q 122 326 112 326 q 101 326 88 316 q 76 306 62 289 q 49 272 35 250 q 21 229 7 205 q 5 200 0 200 q -3 200 -6 203 q -9 206 -9 209 q -9 211 -7 213 q 29 274 58 308 q 86 342 112 342 q 129 342 139 328 q 149 315 149 294 l 149 289 q 201 345 232 345 q 252 345 264 328 q 275 310 275 290 q 275 286 276 282 q 276 277 274 274 q 301 300 329 318 q 357 337 380 337 q 393 337 402 330 q 411 324 411 310 q 411 301 405 288 q 399 275 384 255 q 376 245 365 226 q 354 206 343 183 q 332 160 324 137 q 317 114 317 99 q 317 90 320 84 q 323 79 332 79 q 344 81 362 94 q 379 108 398 128 q 417 147 435 170 q 453 192 465 213 q 466 216 470 217 q 475 218 477 216 z m 258 297 q 254 281 246 262 q 238 242 227 222 q 211 194 198 170 q 187 150 176 130 q 164 111 159 104 q 178 121 196 146 q 215 171 230 198 q 229 197 232 204 q 236 211 241 223 q 246 235 251 250 q 256 265 258 282 z m 114 214 q 118 223 120 234 q 121 244 122 248 q 114 232 102 210 q 89 189 75 167 q 61 145 48 124 q 34 104 24 89 q 46 103 70 138 q 95 172 114 214 z m 275 103 q 275 93 284 88 q 294 84 302 82 q 300 87 300 99 q 300 118 308 142 q 315 165 326 188 q 306 163 290 140 q 275 118 275 103 z"},"#":{"x_min":0,"x_max":402,"ha":402,"o":"m 383 307 q 392 307 392 298 q 392 290 383 290 l 344 290 q 331 272 308 246 q 284 221 245 184 l 289 184 q 297 184 297 176 q 297 167 289 167 l 226 167 q 222 164 214 156 q 205 147 196 139 q 187 131 178 124 q 170 118 166 118 q 157 118 157 126 q 157 129 159 131 l 186 167 l 82 167 q 78 164 70 156 q 61 147 52 139 q 43 131 34 124 q 26 118 22 118 q 13 118 13 126 q 13 129 15 131 l 42 167 l 5 167 q -4 167 -4 176 q -4 184 5 184 l 54 184 l 131 290 l 99 290 q 90 290 90 298 q 90 307 99 307 l 144 307 l 177 352 q 181 356 184 356 q 219 356 219 330 q 219 320 211 307 l 288 307 l 321 352 q 325 356 328 356 q 363 356 363 330 q 363 320 355 307 z m 75 184 q 114 218 138 244 q 163 271 177 289 q 191 307 196 318 q 201 328 201 330 q 201 334 198 336 q 196 337 188 339 z m 198 184 l 275 290 l 200 290 q 187 272 164 246 q 140 221 101 184 z m 219 184 q 258 218 282 244 q 307 271 321 289 q 335 307 340 318 q 345 328 345 330 q 345 334 342 336 q 340 337 332 339 z"},",":{"x_min":0,"x_max":148,"ha":148,"o":"m 38 135 q 58 131 62 122 q 67 112 67 106 q 67 82 23 38 q 6 21 -4 12 q -15 3 -21 -1 q -27 -5 -28 -6 q -30 -6 -30 -6 q -39 -6 -39 3 q -39 5 -38 7 q -38 7 -30 21 q -23 35 -13 54 q -3 73 8 94 q 20 116 29 131 q 32 135 38 135 z m 11 51 q 37 77 44 90 q 50 102 50 107 q 50 112 41 117 q 30 100 18 78 q 7 56 -3 37 z"},"n":{"x_min":0,"x_max":389,"ha":389,"o":"m 393 216 q 395 215 396 210 q 398 206 396 204 q 381 180 363 156 q 345 131 326 112 q 306 92 287 80 q 268 68 252 68 q 168 68 168 114 q 168 136 186 165 q 205 194 227 224 q 249 254 268 282 q 286 309 286 328 q 286 342 270 342 q 247 342 216 317 q 184 292 149 254 q 143 232 132 208 q 122 183 108 159 q 102 149 92 134 q 81 119 68 105 q 54 91 38 80 q 23 69 6 68 q -4 68 -4 77 q -4 81 -1 84 l 19 113 q 49 160 69 194 q 89 228 101 252 q 113 276 118 291 q 123 306 123 314 q 123 326 115 326 q 101 326 74 298 q 46 270 7 204 q 6 200 0 200 q -4 200 -6 203 q -9 206 -9 209 q -9 211 -7 213 q 7 236 22 260 q 38 283 54 302 q 70 320 86 332 q 101 343 115 343 q 135 343 145 327 q 155 311 155 291 q 155 289 154 288 q 154 287 154 285 q 164 295 176 308 q 189 321 204 332 q 218 343 234 351 q 249 359 266 359 q 288 359 301 348 q 314 336 314 319 q 314 297 300 270 q 287 242 271 214 q 255 185 242 158 q 228 131 228 111 q 228 99 234 93 q 241 87 250 87 q 263 87 280 98 q 298 109 316 127 q 333 145 350 168 q 367 190 381 213 q 383 215 387 216 q 391 218 393 216 z m 187 104 q 193 91 217 87 q 213 92 212 98 q 211 104 211 111 q 211 128 220 149 q 228 170 240 192 q 252 215 265 238 q 278 261 287 283 q 276 263 259 240 q 242 218 226 195 q 209 172 197 151 q 185 130 185 115 q 185 107 187 104 z m 134 263 q 137 276 137 289 l 137 297 q 135 287 126 268 q 118 248 106 223 q 93 198 77 172 q 61 145 44 121 l 26 92 q 42 102 60 122 q 77 142 92 167 q 107 192 118 218 q 130 243 134 263 z"},"h":{"x_min":0,"x_max":288,"ha":288,"o":"m 165 393 q 123 346 82 299 q 40 252 7 204 q -1 189 -8 175 q -15 161 -22 148 q 11 191 42 226 q 72 261 100 286 q 128 311 154 324 q 180 338 205 338 q 215 338 223 332 q 231 327 231 314 q 231 307 228 298 q 225 288 217 274 q 209 259 196 240 q 182 220 162 194 q 126 147 116 124 q 106 101 106 93 q 106 82 122 82 q 141 82 163 94 q 185 105 206 124 q 228 142 248 166 q 267 189 282 213 q 283 217 289 217 q 293 217 296 212 q 300 208 296 204 q 281 178 260 153 q 239 128 216 108 q 193 89 168 77 q 144 65 122 65 q 96 65 80 82 q 64 99 64 117 q 64 134 74 153 q 83 172 98 192 q 113 211 131 230 q 149 250 166 268 q 168 270 176 278 q 185 287 194 296 q 202 306 206 314 q 211 321 205 321 q 179 321 150 302 q 120 282 86 248 q 53 214 16 168 q -22 122 -62 68 q -65 65 -69 65 q -72 65 -76 69 q -81 73 -77 77 q -66 100 -41 151 q -16 202 20 266 q 68 381 110 472 q 151 563 191 627 q 231 691 273 725 q 315 759 364 759 q 400 759 400 727 q 400 695 342 612 q 284 528 165 393 z m 384 727 q 384 742 364 742 q 356 742 336 727 q 316 712 280 664 q 244 617 188 528 q 132 439 52 290 q 76 319 101 348 q 126 376 152 405 q 263 529 324 614 q 384 699 384 727 z m 315 731 q 262 708 213 632 q 164 555 106 423 q 171 539 226 619 q 281 699 315 731 z m 149 204 q 169 230 181 248 q 193 266 200 279 q 188 265 168 244 q 147 224 128 202 q 109 180 95 158 q 81 136 81 118 q 81 113 82 107 q 84 101 89 98 q 91 112 103 136 q 115 160 149 204 z"},"z":{"x_min":0,"x_max":292,"ha":292,"o":"m 296 214 q 302 208 298 202 q 272 159 242 127 q 211 95 178 69 q 171 33 150 -4 q 130 -41 102 -72 q 74 -102 40 -122 q 7 -141 -26 -141 q -45 -141 -58 -134 q -72 -126 -72 -107 q -72 -88 -48 -66 q -25 -45 8 -23 q 40 -1 75 20 q 110 41 133 58 q 150 89 150 105 q 150 119 142 120 q 133 121 127 121 q 100 121 64 106 q 28 91 0 70 q -10 62 -14 68 q -19 74 -11 82 q -10 83 10 102 q 30 122 58 150 q 85 179 115 211 q 145 243 166 270 q 147 263 129 258 q 111 254 96 254 q 78 254 67 262 q 56 269 54 283 q 42 266 31 246 q 20 226 6 204 q 5 200 -1 200 q -6 200 -8 203 q -10 206 -10 208 q -10 209 -8 213 q -1 226 11 247 q 23 268 36 288 q 48 307 58 321 q 68 335 73 335 q 81 335 81 327 q 81 319 76 308 q 70 298 70 290 q 70 271 96 271 q 113 271 137 278 q 161 285 186 296 q 201 302 215 310 q 229 318 240 324 q 251 331 258 336 q 265 341 266 341 q 272 344 276 340 q 279 336 274 328 q 259 304 236 278 q 214 252 188 226 q 161 200 132 176 q 103 151 76 129 q 101 138 126 138 q 144 138 161 130 q 178 122 180 93 q 209 116 234 145 q 260 174 284 211 q 286 213 290 214 q 294 216 296 214 z m -41 -122 q -35 -122 -20 -112 q -4 -103 18 -84 q 39 -66 64 -39 q 88 -12 112 23 l 74 -1 q 57 -12 34 -26 q 12 -40 -8 -54 q -28 -69 -42 -83 q -56 -97 -56 -108 q -56 -113 -52 -118 q -48 -122 -41 -122 z m 156 53 q 158 59 159 68 q 160 76 161 80 l 146 46 q 132 20 111 -7 q 90 -34 70 -56 q 61 -66 42 -85 q 23 -104 2 -119 q 27 -114 51 -96 q 75 -78 96 -54 q 117 -29 132 -1 q 148 27 156 53 z m 195 282 q 181 261 156 232 q 132 204 106 175 q 141 205 174 237 q 208 269 234 301 q 225 296 216 292 q 206 287 195 282 z"},"B":{"x_min":0,"x_max":891,"ha":891,"o":"m 868 386 q 850 341 816 304 q 781 267 739 240 q 786 221 812 183 q 838 145 838 91 q 838 38 812 -14 q 786 -67 739 -109 q 720 -126 694 -144 q 667 -161 632 -175 q 596 -189 552 -198 q 508 -207 454 -207 l 447 -207 q 366 -207 298 -174 q 230 -140 195 -67 l 188 -67 q 137 -67 102 -50 q 68 -34 46 -8 q 24 19 14 51 q 5 83 5 114 q 5 147 14 180 q 22 212 38 240 q 55 269 78 292 q 101 316 131 331 q 121 347 116 366 q 110 385 110 405 q 110 452 136 496 q 163 541 211 576 q 231 591 260 606 q 289 621 328 633 q 368 645 418 653 q 468 661 530 661 l 533 661 q 588 661 650 652 q 711 642 762 618 q 814 595 848 555 q 882 515 882 454 q 882 422 868 386 z m 716 248 q 773 285 804 335 q 834 385 834 439 q 834 473 818 509 q 802 545 766 575 q 730 605 672 624 q 614 644 530 644 l 519 644 q 499 642 480 642 q 462 641 445 639 q 400 634 350 616 q 299 597 257 566 q 215 535 187 492 q 159 449 159 395 q 159 365 166 345 q 183 351 200 353 q 218 355 237 355 q 263 355 289 342 q 315 329 332 306 q 355 318 372 337 q 390 356 396 380 q 398 386 404 386 q 412 386 412 378 q 412 366 406 354 q 400 343 391 332 q 382 321 370 312 q 359 302 348 295 l 340 291 q 350 271 350 254 q 350 247 342 245 q 333 245 332 259 q 330 273 325 284 q 294 271 260 269 l 259 269 q 255 269 252 270 q 248 270 243 270 l 241 270 q 185 276 149 309 q 123 292 104 270 q 86 247 74 222 q 62 196 56 170 q 51 143 51 119 q 51 83 61 52 q 71 22 88 0 q 106 -22 129 -36 q 152 -49 179 -50 l 189 -50 q 181 -27 181 2 q 181 35 191 60 q 201 85 218 102 q 234 118 254 126 q 274 135 294 135 q 301 135 311 133 q 321 131 330 127 q 339 123 345 117 q 351 111 351 103 q 351 100 349 97 q 347 94 343 94 q 340 94 336 98 q 331 101 325 106 q 319 110 312 114 q 304 118 295 118 q 276 118 258 110 q 241 103 228 88 q 214 74 206 52 q 197 31 197 3 q 197 -25 207 -49 l 218 -47 q 258 -38 290 -8 q 323 21 351 63 q 379 105 403 156 q 427 206 450 258 q 472 310 494 358 q 516 407 540 444 q 563 482 590 505 q 616 528 647 528 q 651 528 654 528 q 658 527 662 527 q 665 527 672 525 q 679 523 686 520 q 694 517 700 512 q 706 507 706 501 q 706 494 698 494 q 688 494 678 502 q 668 510 660 510 q 649 510 638 501 q 626 492 616 478 q 605 464 594 446 q 584 427 574 408 q 536 334 502 260 q 468 186 430 122 q 393 58 348 10 q 303 -37 244 -57 l 213 -65 q 248 -131 310 -160 q 371 -190 446 -190 q 520 -190 582 -166 q 645 -143 690 -104 q 735 -64 760 -12 q 786 39 786 96 q 786 139 770 174 q 755 208 716 225 q 704 218 692 212 q 680 207 668 202 l 667 202 q 649 194 634 190 q 618 187 608 187 q 585 187 580 196 q 574 205 574 212 q 574 226 594 241 q 614 256 659 256 q 675 256 689 254 q 703 251 716 248 z m 366 57 q 404 107 438 171 q 473 235 505 304 q 517 330 530 358 q 544 387 558 414 q 571 440 584 462 q 598 485 611 499 q 588 485 568 457 q 548 429 529 392 q 510 356 492 312 q 473 269 453 224 q 433 180 412 137 q 390 94 366 57 z m 177 324 q 196 298 218 294 q 239 289 259 286 q 287 287 316 298 q 301 317 280 328 q 258 338 237 338 q 222 338 206 334 q 191 330 177 324 z m 821 91 q 821 120 810 148 q 800 177 776 199 q 791 176 797 149 q 803 122 803 96 q 803 36 776 -19 q 749 -74 701 -117 q 757 -78 789 -22 q 821 35 821 91 z m 847 524 q 833 551 809 570 q 785 590 756 604 q 808 569 830 524 q 851 480 851 437 q 851 397 836 360 l 852 392 q 860 407 862 423 q 864 439 865 454 q 865 491 847 524 z m 22 114 q 22 76 36 39 q 51 2 85 -21 l 77 -12 q 56 14 46 48 q 35 82 35 119 q 35 161 50 207 q 64 253 96 285 q 60 252 41 206 q 22 161 22 114 z m 127 405 q 127 379 136 359 q 145 339 160 319 q 142 347 142 396 q 142 427 151 454 q 160 481 174 504 q 188 526 205 544 q 222 561 239 574 l 221 562 q 176 530 152 488 q 127 447 127 405 z m 693 234 q 684 236 675 237 q 666 238 656 239 l 653 239 q 622 239 606 230 q 591 220 591 212 q 591 204 609 204 q 623 204 646 212 q 670 220 693 234 z"},"K":{"x_min":0,"x_max":884,"ha":884,"o":"m 1303 629 q 1306 626 1312 620 q 1318 614 1323 608 q 1328 601 1332 594 q 1336 588 1336 584 q 1336 576 1328 576 q 1325 576 1321 580 q 1317 585 1312 592 q 1308 598 1303 604 q 1298 610 1295 613 q 1275 631 1251 631 q 1220 631 1183 608 q 1146 584 1104 548 q 1061 511 1014 466 q 968 422 918 380 q 867 338 814 304 q 762 270 708 254 q 713 249 718 242 q 723 236 728 230 q 756 190 778 140 q 801 90 821 38 q 841 -13 861 -62 q 881 -110 905 -148 q 929 -187 959 -210 q 989 -233 1029 -233 q 1065 -233 1092 -210 q 1120 -188 1132 -147 q 1134 -141 1140 -141 q 1145 -141 1146 -144 q 1148 -148 1148 -150 l 1148 -152 q 1134 -198 1102 -224 q 1071 -250 1029 -250 q 970 -250 929 -226 q 888 -203 860 -164 q 831 -126 810 -78 q 790 -29 772 21 q 749 85 723 142 q 697 198 656 243 q 648 242 642 242 q 635 241 627 241 q 608 241 590 244 l 583 230 q 550 160 512 84 q 473 8 428 -55 q 383 -118 330 -159 q 278 -200 215 -200 q 161 -200 122 -183 q 82 -166 56 -138 q 30 -109 18 -74 q 5 -38 5 0 q 5 46 23 89 q 41 132 73 164 l 86 175 q 51 239 51 313 q 51 375 75 429 q 99 483 142 522 q 185 562 244 585 q 303 608 373 608 q 412 608 450 602 q 489 595 531 587 l 563 581 q 625 569 671 570 q 680 570 689 570 q 698 570 706 571 q 740 619 777 645 q 814 671 858 671 q 866 671 876 668 q 887 665 887 651 q 887 642 879 630 q 871 617 855 604 q 839 592 815 580 q 791 569 760 562 q 740 533 721 500 q 702 466 684 433 q 667 400 652 370 q 636 339 625 316 q 641 310 656 300 q 670 291 684 279 q 715 292 747 313 q 779 334 810 358 q 840 382 868 408 q 897 433 923 456 q 950 480 986 514 q 1021 548 1061 580 q 1101 612 1144 634 q 1186 657 1227 657 q 1248 657 1268 650 q 1287 643 1303 629 z m 209 -183 q 264 -183 310 -145 q 357 -107 398 -44 q 438 18 475 97 q 512 176 547 257 l 531 266 q 522 271 518 280 q 513 289 513 297 q 513 307 521 319 q 529 331 550 331 q 558 331 564 330 q 571 330 579 329 q 607 392 635 450 q 663 507 693 553 l 676 553 q 645 553 608 558 q 571 564 532 571 q 493 578 455 584 q 417 590 384 591 q 323 591 272 572 q 220 552 183 516 q 146 480 125 430 q 104 380 104 320 q 104 295 108 270 q 112 245 122 222 l 129 205 q 160 221 198 230 q 235 240 272 240 q 310 240 344 225 q 377 210 400 181 q 402 179 402 176 q 402 167 394 167 q 390 167 387 171 q 347 219 281 222 q 245 222 212 214 q 179 205 144 176 q 173 125 214 96 q 254 66 303 62 l 315 62 q 355 62 390 79 q 425 96 442 128 q 445 133 450 133 q 454 133 456 130 q 458 127 458 124 q 458 121 457 120 q 437 85 399 65 q 361 45 317 45 l 313 45 q 244 46 193 72 q 142 98 109 141 q 88 113 75 76 q 62 40 62 -8 q 62 -44 72 -76 q 83 -108 102 -132 q 121 -156 148 -170 q 175 -183 209 -183 z m 1017 491 q 1070 540 1118 581 q 1166 622 1208 639 q 1177 634 1144 616 q 1112 598 1080 574 q 1049 550 1020 524 q 991 497 967 474 l 934 443 q 910 421 884 397 q 857 373 828 350 q 799 327 769 307 q 739 287 709 272 q 750 285 790 308 q 830 332 868 362 q 907 391 944 424 q 981 458 1017 491 z m 68 313 q 68 247 98 188 q 129 129 188 94 q 165 112 146 141 q 127 170 115 196 l 106 216 q 95 240 92 267 q 89 294 87 320 q 87 374 106 426 q 124 477 156 514 q 134 497 118 474 q 101 451 90 424 q 79 397 74 368 q 68 340 68 313 z m 715 555 q 683 510 654 451 q 625 392 596 326 q 599 325 602 324 q 605 323 609 322 q 643 393 676 453 q 708 513 737 558 l 750 577 q 777 616 801 640 q 777 627 756 606 q 735 584 715 555 z m 22 0 q 22 -42 40 -82 q 57 -122 94 -148 q 45 -96 45 -7 q 45 46 60 86 q 75 125 98 155 l 95 160 q 91 158 85 152 q 55 122 38 82 q 22 43 22 0 z m 854 654 q 835 649 816 631 q 797 613 775 584 q 795 590 812 598 q 830 607 842 616 q 855 626 862 635 q 870 644 870 651 q 870 653 865 654 q 860 656 854 654 z m 596 296 l 585 302 l 563 251 q 536 188 508 128 q 481 67 452 13 q 484 67 513 124 q 542 181 568 238 z m 570 309 q 559 312 555 313 q 551 314 549 314 q 530 314 530 297 q 530 287 540 280 l 554 273 z m 598 261 q 606 261 614 262 q 622 262 636 264 q 629 270 622 276 q 616 281 610 286 z m 676 246 q 703 215 724 175 q 744 135 762 91 q 779 47 796 2 q 812 -42 830 -82 q 849 -122 873 -154 q 897 -187 929 -207 q 892 -170 866 -112 q 839 -53 813 13 q 800 46 787 79 q 774 112 759 142 q 744 173 727 200 q 710 227 690 249 l 666 272 q 655 281 644 288 q 632 296 618 301 q 628 294 637 286 q 646 278 655 269 z"},"R":{"x_min":0,"x_max":987,"ha":987,"o":"m 1149 -29 q 1169 -40 1180 -60 q 1192 -81 1192 -104 q 1192 -119 1186 -136 q 1180 -153 1166 -167 q 1153 -181 1131 -190 q 1109 -199 1078 -199 l 1070 -199 q 1007 -199 964 -179 q 920 -159 888 -127 q 857 -95 834 -55 q 812 -15 792 24 q 773 64 754 100 q 734 136 707 160 q 679 152 650 148 q 621 144 592 144 l 586 144 q 541 53 500 -14 q 458 -80 414 -124 q 369 -168 318 -190 q 267 -211 201 -211 l 189 -211 q 147 -210 113 -196 q 79 -183 55 -161 q 31 -139 18 -109 q 5 -79 5 -44 q 5 -12 16 24 q 28 60 54 90 q 81 120 125 140 q 169 160 235 160 q 277 160 308 140 q 339 121 350 87 l 350 84 q 350 81 348 78 q 346 75 341 75 q 335 75 333 81 q 324 110 296 127 q 269 144 233 144 q 208 144 178 133 q 148 122 122 98 q 96 74 78 35 q 61 -4 61 -61 q 61 -126 98 -160 q 135 -194 203 -194 q 265 -194 314 -164 q 364 -134 404 -86 q 444 -37 476 24 q 508 86 536 149 q 523 152 516 156 q 509 161 506 166 q 502 170 501 174 q 500 178 500 180 q 502 195 520 205 q 537 215 565 217 q 591 278 617 334 q 643 391 672 435 q 701 479 736 506 q 770 532 813 532 q 816 532 822 532 q 828 531 834 530 q 839 528 843 526 q 847 523 847 518 q 847 510 839 510 q 834 510 828 512 q 822 514 817 514 q 797 514 778 498 q 760 483 740 453 q 721 423 700 380 q 678 336 651 279 l 622 216 q 648 213 670 204 q 691 196 709 185 q 765 207 811 240 q 857 272 890 310 q 923 349 941 392 q 959 434 959 478 q 959 521 939 554 q 919 588 884 610 q 850 633 803 644 q 756 656 703 656 q 650 656 593 644 q 536 633 473 607 q 436 592 408 572 q 381 553 362 533 q 342 513 330 494 q 317 475 309 459 q 286 410 286 361 q 286 338 293 311 q 300 284 315 261 q 330 238 353 223 q 376 208 409 208 q 436 208 458 218 q 479 227 494 242 q 509 257 517 275 q 525 293 525 311 q 525 322 521 332 q 517 343 517 354 q 517 362 527 362 q 531 362 534 356 q 537 350 538 342 q 540 333 541 324 q 542 316 542 312 q 542 284 529 260 q 516 237 494 220 q 473 204 445 194 q 417 185 386 185 q 316 185 276 228 q 237 270 237 337 q 237 420 290 492 q 344 564 444 613 q 456 619 462 622 q 468 624 470 625 q 473 626 474 626 q 476 626 479 628 q 530 649 584 661 q 639 673 693 673 q 852 673 934 622 q 1017 571 1017 484 q 1017 439 996 392 q 974 345 936 302 q 899 259 848 224 q 796 190 735 169 q 761 150 778 131 q 796 112 805 99 q 838 50 866 0 q 895 -50 926 -90 q 956 -131 991 -156 q 1026 -182 1072 -182 l 1073 -182 q 1101 -182 1120 -175 q 1140 -168 1152 -156 q 1164 -145 1170 -132 q 1175 -118 1175 -104 q 1175 -85 1166 -69 q 1158 -53 1141 -44 q 1136 -43 1136 -37 q 1136 -28 1145 -28 q 1146 -28 1147 -28 q 1148 -29 1149 -29 z m 876 271 q 866 263 858 255 q 849 247 839 239 q 876 264 906 294 q 936 324 957 356 q 978 388 989 421 q 1000 454 1000 484 q 1000 532 972 568 q 945 603 894 625 q 934 593 955 560 q 976 527 976 477 q 976 424 949 369 q 922 314 876 271 z m 813 27 q 827 -2 842 -30 q 857 -59 876 -84 q 894 -110 918 -130 q 942 -151 974 -164 q 936 -135 906 -90 q 875 -46 846 2 q 825 36 806 68 q 788 100 756 129 q 773 106 786 80 q 800 54 813 27 z m 749 493 q 724 476 702 448 q 681 419 660 383 q 640 347 622 304 q 603 262 584 218 l 603 218 l 636 286 q 671 358 696 412 q 722 467 749 493 z m 22 -44 q 22 -72 33 -101 q 44 -130 70 -152 q 43 -116 43 -61 q 43 1 64 45 q 86 89 115 115 q 70 88 46 46 q 22 4 22 -44 z m 283 286 q 269 323 269 362 q 269 415 293 466 q 254 406 254 337 q 254 285 279 250 q 304 216 352 205 q 328 218 311 239 q 294 260 283 286 z m 588 186 q 590 190 592 194 q 593 197 595 201 l 577 201 l 553 146 q 524 79 491 16 q 458 -47 416 -98 q 454 -56 490 3 q 527 62 568 145 z m 595 161 q 618 162 640 166 q 662 170 684 177 q 666 186 650 192 q 634 197 613 199 l 603 179 q 601 174 599 170 q 597 166 595 161 z m 517 179 q 517 176 523 172 q 529 167 543 165 l 557 199 q 537 196 528 190 q 518 184 517 179 z"},"T":{"x_min":0,"x_max":753,"ha":753,"o":"m 1215 668 q 1223 668 1223 659 q 1223 648 1216 636 q 1208 624 1201 616 q 1159 569 1106 552 q 1054 535 990 535 q 950 535 907 540 q 864 546 819 555 q 797 534 778 508 q 760 481 744 451 q 727 421 713 390 q 699 359 686 329 l 608 163 q 576 96 548 40 q 519 -15 487 -60 q 455 -104 416 -138 q 376 -171 323 -193 q 300 -204 273 -210 q 246 -217 217 -217 q 158 -217 118 -196 q 77 -175 52 -142 q 27 -109 16 -69 q 5 -29 5 9 q 5 51 16 93 q 27 135 48 174 q 69 212 100 244 q 131 276 172 299 q 126 345 126 412 q 126 445 138 478 q 149 511 169 542 q 191 577 222 600 q 254 624 290 638 q 327 651 368 656 q 410 662 453 662 q 523 662 592 652 q 662 642 719 631 l 845 606 q 887 623 933 623 q 962 623 990 616 q 1018 609 1041 583 q 1102 583 1148 600 q 1194 617 1207 662 q 1209 668 1215 668 z m 319 -176 q 372 -149 413 -96 q 454 -42 489 26 q 524 95 556 172 q 587 249 620 322 q 653 395 691 458 q 729 521 777 563 l 698 581 q 622 598 548 612 q 473 627 405 627 q 358 627 311 614 q 264 602 227 576 q 190 549 167 509 q 144 469 144 414 q 144 391 152 362 q 160 334 188 308 q 214 321 249 330 q 284 339 322 339 q 386 339 438 301 q 490 336 490 391 q 490 399 488 408 q 485 417 485 426 q 485 429 487 432 q 489 435 494 435 q 498 435 500 430 q 503 425 504 418 q 506 410 506 402 q 507 395 507 391 q 507 331 450 289 q 460 278 472 260 q 484 243 484 227 q 484 224 482 221 q 480 218 475 218 q 473 218 469 226 q 465 233 460 243 q 454 253 448 263 q 441 273 436 279 q 410 263 378 254 q 346 246 312 246 q 281 246 251 254 q 221 262 195 280 q 166 262 141 232 q 116 203 97 167 q 78 131 68 90 q 57 49 57 7 q 57 -37 68 -74 q 78 -112 99 -140 q 120 -167 151 -183 q 182 -199 222 -199 q 241 -199 261 -195 q 281 -191 319 -176 z m 670 336 q 683 365 696 395 q 710 425 726 454 q 742 483 760 510 q 778 537 799 559 l 798 559 q 756 525 722 474 q 688 424 659 365 q 630 306 604 242 q 577 177 549 114 q 521 52 490 -6 q 460 -63 423 -108 q 473 -61 510 8 q 548 78 592 170 q 610 208 630 247 q 649 286 670 336 z m 836 569 q 878 561 916 556 q 955 551 992 551 q 1024 551 1054 556 q 1085 561 1111 572 q 1078 566 1041 566 q 998 566 952 572 q 907 577 864 585 q 826 592 802 597 q 779 602 764 605 q 748 608 738 610 q 727 612 716 614 q 659 625 591 635 q 523 645 454 646 q 443 646 431 646 q 419 645 408 644 q 453 644 500 637 q 548 630 597 620 q 646 609 696 598 q 746 586 795 577 z m 211 290 q 234 276 260 270 q 285 263 311 263 q 372 263 422 291 q 402 306 378 314 q 354 321 329 322 q 322 322 313 322 q 304 322 284 318 q 264 313 246 306 q 228 299 211 290 z m 22 9 q 22 -36 38 -80 q 54 -124 90 -156 q 66 -125 54 -82 q 41 -39 41 9 q 41 43 48 78 q 55 112 68 144 q 81 177 98 205 q 116 233 137 255 q 83 208 52 144 q 22 79 22 9 z m 1017 584 q 1006 594 989 600 q 972 605 947 605 q 922 605 895 597 q 925 592 956 588 q 987 585 1017 584 z"},"P":{"x_min":0,"x_max":930,"ha":930,"o":"m 907 617 q 980 567 980 481 q 980 423 949 370 q 918 317 868 276 q 817 235 752 210 q 688 186 621 186 q 586 186 558 198 q 540 156 520 110 q 499 63 475 18 q 451 -27 423 -68 q 395 -109 361 -140 q 327 -170 287 -188 q 247 -207 200 -207 q 159 -207 124 -192 q 89 -176 62 -150 q 36 -123 21 -88 q 6 -53 6 -14 q 6 17 16 48 q 25 78 42 105 q 58 132 80 154 q 101 175 124 189 q 90 223 90 279 q 90 309 99 342 q 108 375 126 408 q 180 508 277 568 q 374 629 523 658 q 556 666 592 670 q 629 674 670 674 q 754 674 812 658 q 869 643 907 617 z m 620 204 q 675 204 730 230 q 785 255 828 297 q 871 339 898 393 q 925 447 925 504 q 925 563 889 596 q 853 629 800 644 q 748 658 690 658 q 632 658 588 652 q 478 635 394 590 q 311 546 255 488 q 199 431 170 369 q 142 307 142 257 q 142 246 144 232 q 147 217 155 204 q 172 210 190 214 q 207 217 224 217 q 256 217 277 208 q 298 199 299 198 q 335 216 362 244 q 388 272 398 298 q 399 304 405 304 q 409 304 412 300 q 416 297 414 292 q 407 263 378 234 q 349 206 314 187 q 337 166 337 137 q 337 128 329 128 q 320 128 320 137 q 320 152 312 162 q 305 172 297 179 q 277 170 254 165 q 231 160 203 160 q 193 160 183 162 q 173 164 162 167 q 108 137 81 88 q 54 39 54 -12 q 54 -83 100 -130 q 146 -178 227 -188 q 274 -178 312 -142 q 350 -107 382 -56 q 413 -5 440 56 q 466 118 492 180 q 497 193 502 205 q 507 217 512 230 l 506 238 q 505 239 505 242 q 505 251 513 251 q 517 251 520 248 q 549 317 578 372 q 608 428 640 468 q 671 508 706 530 q 741 551 782 551 q 786 551 794 550 q 802 550 810 548 q 817 546 823 543 q 829 540 829 535 q 829 526 821 526 q 810 526 801 530 q 792 534 783 534 q 754 534 730 511 q 706 488 682 446 q 657 404 629 345 q 601 286 565 213 q 589 204 620 204 z m 599 323 q 628 383 652 430 q 677 478 702 507 q 671 485 646 450 q 620 414 596 370 q 573 327 552 276 q 530 226 508 174 q 475 96 442 20 q 408 -55 366 -110 q 391 -84 412 -52 q 434 -19 453 16 q 472 52 489 89 q 506 126 523 162 z m 118 225 q 125 210 139 199 q 125 222 125 257 q 125 297 142 343 q 159 389 189 434 q 219 479 261 520 q 303 560 353 589 q 302 566 258 532 q 213 499 180 458 q 146 417 126 371 q 107 325 107 279 q 107 246 118 225 z m 866 295 q 912 336 938 385 q 963 434 963 481 q 963 544 915 589 q 942 553 942 503 q 942 468 930 431 q 918 394 896 359 q 874 324 844 293 q 815 262 781 238 q 828 262 866 295 z m 80 -143 q 103 -165 132 -177 q 87 -151 62 -108 q 37 -65 37 -12 q 37 41 64 92 q 90 142 143 175 q 147 178 157 184 q 167 189 170 191 q 169 191 168 190 q 168 190 167 190 q 141 180 115 161 q 89 142 68 115 q 48 88 36 55 q 23 22 23 -15 q 23 -51 38 -84 q 52 -117 80 -143 z m 188 180 q 193 178 200 178 q 207 177 216 177 q 233 177 248 180 q 264 184 278 189 q 258 201 234 194 q 209 188 188 180 z"},"|":{"x_min":0,"x_max":330,"ha":330,"o":"m 343 589 q 344 588 347 583 q 350 574 344 556 q 339 537 324 504 q 310 471 286 422 q 261 372 226 302 q 192 231 146 136 q 100 41 42 -82 q 40 -85 37 -87 q 35 -88 32 -86 q 28 -85 27 -82 q 25 -77 27 -74 l 297 586 l 302 590 q 314 594 326 596 q 337 597 343 589 z m 330 565 q 332 571 332 574 q 332 576 332 577 q 332 578 329 578 q 327 578 323 578 q 319 577 312 575 l 153 188 q 194 272 226 336 q 257 400 280 446 q 302 492 314 522 q 327 551 330 565 z"},"t":{"x_min":0,"x_max":173,"ha":173,"o":"m 532 561 q 536 565 542 563 q 547 561 547 554 q 547 543 532 536 q 518 529 496 524 q 473 520 447 518 q 421 517 397 517 q 370 517 340 518 q 311 519 280 521 q 234 464 180 402 q 127 340 76 282 l 8 204 q 3 190 -5 164 q -13 139 -13 113 q -13 96 -2 89 q 8 82 19 82 q 35 82 54 94 q 73 105 93 124 q 113 142 132 166 q 150 189 165 213 q 166 217 172 217 q 176 217 179 213 q 182 209 179 204 q 163 177 143 152 q 123 127 102 108 q 80 88 59 76 q 38 65 19 65 q -1 65 -16 78 q -30 90 -30 113 q -30 128 -26 148 q -22 168 -14 192 q 18 290 56 376 q 93 461 133 530 q 116 531 100 531 q 83 531 67 531 q 12 531 -26 524 q -65 517 -72 497 q -74 491 -80 491 q -85 491 -86 494 q -88 497 -88 500 q -88 514 -74 524 q -61 533 -40 538 q -18 544 10 546 q 37 548 65 548 q 84 548 104 548 q 123 547 143 546 q 170 591 193 622 q 216 654 237 673 q 258 692 279 700 q 300 709 323 709 q 359 709 365 690 q 371 671 361 644 q 351 618 332 590 q 314 563 301 547 l 293 537 q 344 534 393 534 q 443 534 480 540 q 518 545 532 561 z m 64 293 q 112 349 163 408 q 214 466 259 522 l 184 527 q 162 495 140 460 q 118 424 98 388 q 77 351 59 316 q 41 282 28 253 z m 288 558 q 315 593 330 618 q 345 643 350 659 q 355 675 352 682 q 348 690 339 690 q 315 690 282 654 q 248 618 196 543 l 272 538 z m 162 545 q 138 505 121 473 q 104 441 88 407 l 95 417 q 110 443 128 472 q 145 500 165 528 q 187 559 203 583 q 219 607 233 626 q 247 645 260 659 q 273 673 289 685 q 271 677 256 666 q 242 656 228 640 q 213 623 197 600 q 181 577 162 545 z"},"M":{"x_min":0,"x_max":1139,"ha":1139,"o":"m 1350 649 q 1361 649 1362 642 q 1362 634 1352 632 q 1296 619 1246 583 q 1196 547 1154 496 q 1112 445 1078 384 q 1045 323 1022 261 q 999 199 986 140 q 974 80 974 33 q 974 13 977 -10 q 980 -32 989 -51 q 998 -70 1014 -83 q 1030 -96 1056 -96 q 1089 -96 1118 -78 q 1147 -60 1162 -31 q 1164 -26 1170 -26 q 1175 -26 1177 -30 q 1179 -35 1177 -39 q 1160 -71 1126 -92 q 1092 -113 1054 -113 q 1021 -113 996 -100 q 971 -86 954 -63 q 937 -40 928 -10 q 920 21 920 56 q 920 104 930 150 q 941 196 952 225 q 979 296 1018 362 q 1058 428 1107 486 q 1110 490 1123 504 q 1136 518 1155 536 q 1174 555 1198 575 q 1223 595 1249 612 q 1179 586 1114 532 q 1050 478 992 412 q 934 347 882 277 q 830 207 787 150 q 744 93 709 56 q 674 20 650 20 q 616 20 616 73 q 616 101 626 144 q 635 186 651 236 q 667 285 689 338 q 711 391 736 442 q 762 492 790 536 q 817 580 844 612 q 797 577 763 540 q 729 504 702 466 q 674 428 652 388 q 629 347 605 304 q 572 244 542 185 q 513 126 481 70 q 449 15 412 -36 q 374 -87 325 -132 q 314 -142 297 -156 q 280 -169 258 -181 q 237 -193 212 -202 q 187 -210 160 -210 l 144 -209 q 112 -205 86 -190 q 61 -175 43 -152 q 25 -130 15 -102 q 5 -73 5 -42 q 5 -14 14 14 q 22 43 38 70 q 53 97 74 121 q 95 145 119 164 q 99 195 99 238 q 99 284 122 330 q 145 375 185 405 q 213 427 244 441 q 276 455 308 465 q 341 475 375 482 q 409 489 443 497 q 512 509 572 526 q 632 544 682 564 q 733 583 773 602 q 813 621 842 636 q 871 650 884 656 q 897 662 905 664 q 915 666 920 661 q 924 656 916 650 q 890 629 862 585 q 833 541 806 486 q 780 430 756 368 q 732 307 714 250 q 695 192 684 145 q 674 98 674 72 q 674 59 675 56 q 676 53 677 52 q 714 82 758 138 q 801 193 850 260 q 900 326 956 395 q 1012 464 1074 520 q 1137 577 1206 613 q 1274 649 1350 649 z m 745 546 q 750 553 763 566 q 776 578 793 593 q 731 564 644 532 q 558 501 446 480 q 379 467 325 450 q 271 432 232 406 q 194 381 173 346 q 152 312 152 264 q 152 227 167 196 l 179 202 q 180 202 180 202 q 181 203 182 203 q 203 214 228 220 q 252 226 280 226 l 281 226 q 357 226 396 182 q 416 205 430 230 q 443 255 448 281 q 448 288 455 288 q 464 288 464 280 q 464 253 446 222 q 427 190 406 168 q 424 138 424 97 q 424 88 416 88 q 412 88 409 96 q 406 104 404 115 q 402 126 400 138 q 397 149 393 156 q 364 127 324 110 q 285 93 249 93 q 214 93 184 108 q 153 123 133 144 q 96 103 78 50 q 60 -4 60 -52 q 60 -118 87 -155 q 114 -192 161 -192 q 186 -192 209 -184 q 232 -177 252 -166 q 271 -155 287 -142 q 303 -129 313 -120 q 352 -85 382 -46 q 413 -7 440 35 q 467 77 491 122 q 515 168 540 216 q 560 255 582 298 q 604 341 629 384 q 654 427 682 468 q 711 510 745 546 z m 175 179 q 192 149 219 132 q 246 115 275 115 q 301 115 331 131 q 361 147 384 170 q 350 209 286 209 q 239 209 191 188 z m 633 74 q 633 58 639 45 q 645 32 665 41 q 661 41 659 52 q 657 64 657 73 q 657 96 664 130 q 670 163 680 200 q 690 236 702 272 q 713 307 724 336 q 730 351 740 377 q 750 403 764 434 q 777 466 794 500 q 811 534 829 566 q 805 533 781 490 q 757 447 736 400 q 714 353 695 305 q 676 257 662 214 q 649 170 641 134 q 633 97 633 74 z m 1054 374 q 1062 390 1072 408 q 1083 425 1096 445 q 1055 394 1023 336 q 991 279 968 219 q 956 187 946 144 q 937 100 937 57 q 937 25 944 -4 q 950 -32 967 -52 l 976 -63 q 958 -24 958 37 q 958 73 964 114 q 971 155 984 198 q 996 242 1014 286 q 1031 331 1054 374 z m 118 218 q 119 213 122 198 q 125 184 134 167 q 144 150 164 135 q 183 120 217 114 q 197 125 182 142 q 167 158 156 178 q 146 198 140 220 q 135 242 135 263 q 135 286 140 308 q 146 331 163 360 q 138 331 126 294 q 113 256 118 218 z m 29 6 q 22 -16 22 -42 q 22 -74 34 -102 q 45 -131 66 -152 q 43 -111 43 -52 q 43 -14 54 30 q 66 73 89 112 q 46 63 29 6 z"},"g":{"x_min":0,"x_max":295,"ha":295,"o":"m 294 217 q 300 219 304 214 q 307 209 302 204 q 282 172 244 134 q 206 95 160 53 q 127 -19 94 -86 q 60 -153 27 -206 q -6 -258 -37 -290 q -68 -321 -95 -321 q -108 -321 -122 -312 q -136 -304 -136 -276 q -136 -243 -115 -206 q -94 -170 -60 -132 q -26 -93 17 -53 q 60 -13 104 26 l 141 113 l 170 190 q 157 170 140 148 q 123 127 104 108 q 86 89 66 77 q 47 65 29 65 q -1 65 -18 80 q -34 96 -34 125 q -34 158 -16 195 q 1 232 28 264 q 55 295 88 316 q 121 336 153 336 l 155 336 q 181 336 192 315 q 203 294 205 270 q 221 300 240 320 q 258 341 281 341 q 289 341 289 333 q 287 335 268 296 q 250 256 218 182 l 178 93 q 195 108 214 130 q 234 151 252 170 q 269 189 280 203 q 292 217 294 217 z m 53 90 q 72 101 90 118 q 108 135 124 155 q 139 175 154 196 q 168 218 180 238 q 185 244 186 248 q 188 251 188 259 q 188 286 180 302 q 171 319 154 319 q 144 319 135 315 q 102 301 78 271 q 55 241 40 209 q 25 177 18 150 q 11 122 11 112 q 11 94 16 88 q 22 82 29 82 q 36 82 42 85 q 48 88 53 90 z m -62 -291 q -29 -259 8 -184 q 46 -110 89 -11 q 50 -45 13 -80 q -24 -116 -53 -150 q -82 -185 -100 -217 q -118 -249 -118 -276 q -118 -304 -95 -304 q -87 -304 -78 -300 q -68 -296 -62 -291 z m 146 64 q 177 134 198 180 q 218 225 230 252 q 243 280 250 294 q 256 308 261 317 q 243 304 226 273 q 208 242 194 208 q 180 174 170 145 q 161 116 157 107 q 142 72 138 64 q 135 55 134 53 q 120 22 109 -5 q 99 -28 88 -52 q 78 -76 73 -88 q 80 -74 92 -48 q 105 -23 117 2 q 131 31 146 64 z m -3 90 q -6 99 -6 112 q -6 139 10 184 q 26 230 64 277 q 46 261 32 242 q 17 222 6 202 q -5 181 -11 161 q -17 141 -17 125 q -17 115 -14 106 q -11 98 -3 90 z"},"j":{"x_min":0,"x_max":145,"ha":145,"o":"m 145 217 q 149 217 152 212 q 156 208 152 204 q 133 172 112 146 q 90 119 65 94 q 40 70 10 44 q -19 19 -55 -11 q -57 -16 -59 -20 q -61 -23 -63 -28 q -72 -46 -84 -74 q -97 -103 -112 -136 q -127 -169 -144 -202 q -162 -235 -181 -262 q -201 -289 -223 -307 q -245 -325 -267 -325 q -295 -325 -295 -291 q -295 -272 -285 -246 q -275 -220 -256 -190 q -236 -160 -208 -128 q -180 -95 -144 -64 l -105 -30 q -79 41 -54 108 q -29 175 -2 227 q 24 279 52 310 q 80 342 112 342 q 124 342 128 340 q 132 338 132 333 q 132 329 129 326 q 103 305 82 275 q 61 245 43 210 q 25 176 9 138 q -7 101 -22 66 l -40 24 q -11 48 14 70 q 39 92 61 114 q 83 137 102 160 q 121 184 138 213 q 139 217 145 217 z m -195 -252 q -178 -224 -158 -174 q -138 -123 -117 -63 l -132 -77 q -171 -110 -198 -142 q -226 -174 -244 -202 q -261 -231 -270 -254 q -278 -277 -278 -291 q -278 -298 -276 -303 q -274 -308 -267 -308 q -250 -308 -232 -292 q -213 -277 -195 -252 z m -38 72 q -24 106 -9 141 q 6 176 23 209 q 40 242 60 272 q 79 301 102 324 q 85 322 72 311 q 63 303 52 284 q 40 266 28 242 q 15 218 2 190 q -10 162 -22 134 q -50 68 -79 -9 l -91 -41 q -93 -47 -96 -53 q -98 -58 -100 -65 q -102 -72 -104 -77 q -101 -71 -96 -61 q -92 -51 -87 -40 q -82 -29 -77 -18 q -72 -7 -69 0 z m 190 514 q 203 514 212 506 q 220 497 220 485 q 220 473 212 464 q 203 455 190 455 q 178 455 170 464 q 161 473 161 485 q 161 497 170 506 q 178 514 190 514 z m 190 471 q 196 471 200 475 q 205 479 205 485 q 205 491 200 495 q 196 499 190 499 q 176 499 176 485 q 176 471 190 471 z m -104 -78 l -104 -79 z"},"i":{"x_min":0,"x_max":143,"ha":143,"o":"m 143 217 q 147 217 150 212 q 154 208 150 204 q 135 179 114 154 q 94 128 72 107 q 50 86 28 73 q 5 60 -14 60 q -33 60 -44 72 q -55 83 -55 101 q -55 120 -44 145 q -34 170 -18 196 q -3 223 16 249 q 34 275 50 296 q 65 316 75 328 q 85 341 84 341 q 99 341 107 332 q 115 323 115 312 q 115 299 104 281 q 93 263 77 242 q 61 222 42 200 q 22 178 6 158 q -10 137 -21 119 q -32 101 -32 89 q -32 82 -26 80 q -20 77 -15 77 q 1 77 21 89 q 41 101 62 120 q 82 140 102 164 q 121 189 135 213 q 138 217 143 217 z m 60 280 q 49 265 36 247 q 23 229 10 210 q -2 191 -12 172 q -23 152 -30 135 q -18 153 4 178 q 25 203 46 228 q 67 253 82 276 q 98 298 98 312 q 98 319 89 323 q 84 315 77 304 q 70 294 60 280 z m 182 514 q 195 514 204 506 q 212 497 212 485 q 212 473 204 464 q 195 455 182 455 q 170 455 162 464 q 153 473 153 485 q 153 497 162 506 q 170 514 182 514 z m 182 471 q 188 471 192 475 q 197 479 197 485 q 197 491 192 495 q 188 499 182 499 q 168 499 168 485 q 168 471 182 471 z"},"y":{"x_min":0,"x_max":348,"ha":348,"o":"m 351 216 q 355 215 355 208 q 355 199 336 178 q 318 158 288 131 q 259 104 223 72 q 187 41 152 9 l 65 -69 q 45 -104 22 -148 q 0 -192 -24 -232 q -48 -272 -72 -299 q -97 -326 -122 -326 q -134 -326 -141 -322 q -148 -319 -152 -314 q -155 -310 -156 -305 q -157 -300 -157 -298 q -157 -269 -106 -213 q -55 -157 33 -76 q 35 -71 38 -66 q 40 -61 43 -56 q 73 3 100 51 q 126 99 159 149 l 165 158 q 147 142 127 126 q 107 110 88 98 q 68 85 50 78 q 32 70 16 70 q 4 70 -4 76 q -11 83 -11 95 q -11 105 -6 118 q -1 130 10 146 q 16 154 37 175 q 58 196 81 222 q 104 247 122 272 q 140 297 140 312 q 140 316 138 320 q 136 324 129 324 q 119 324 104 314 q 89 305 72 288 q 56 272 39 250 q 22 228 7 204 q 6 200 0 200 q -4 200 -6 203 q -9 206 -9 209 q -9 211 -7 213 q 7 237 24 260 q 42 283 60 301 q 79 319 96 330 q 114 341 129 341 q 142 341 152 331 q 162 321 162 308 q 162 288 143 260 q 124 232 102 202 q 79 173 60 147 q 42 121 42 105 q 42 101 45 98 q 48 96 53 98 q 95 117 150 166 q 205 214 262 276 q 270 285 280 295 q 289 305 298 314 q 307 324 314 331 q 320 338 321 340 q 325 345 331 339 q 340 330 340 319 q 340 302 322 278 q 303 253 270 214 q 237 175 193 118 q 149 62 98 -17 l 141 21 q 180 55 217 90 q 254 125 283 154 q 312 182 330 200 q 347 217 347 217 q 350 217 351 216 z m -140 -297 q -143 -303 -136 -306 q -129 -308 -122 -308 q -105 -308 -88 -291 q -70 -274 -53 -246 q -36 -219 -20 -185 q -3 -151 13 -117 q -36 -162 -66 -194 q -96 -225 -112 -246 q -129 -267 -134 -279 q -140 -291 -140 -297 z m 173 140 q 153 110 136 81 q 120 52 103 23 q 148 89 187 138 q 226 187 256 222 q 286 258 304 280 q 321 303 323 317 l 274 264 q 260 249 246 232 q 231 215 218 198 q 205 182 194 167 q 182 152 173 140 z m 6 95 q 6 87 16 87 q 19 87 22 87 q 26 87 31 89 q 28 91 26 96 q 25 102 25 105 q 25 115 32 129 q 39 143 49 158 q 59 172 68 184 q 78 196 84 204 q 59 179 44 161 q 29 143 20 130 q 12 117 9 108 q 6 100 6 95 z"},"@":{"x_min":0,"x_max":501,"ha":501,"o":"m 413 432 q 472 393 472 326 q 472 305 460 270 q 448 236 428 203 q 408 170 381 146 q 354 122 323 122 q 306 122 296 134 q 287 146 287 161 q 238 101 198 99 q 176 97 164 112 q 151 127 151 149 q 151 176 166 207 q 181 238 204 264 q 226 289 252 306 q 277 323 299 323 q 319 323 331 312 q 343 300 343 278 q 343 276 342 273 q 342 270 342 268 q 352 279 363 289 q 374 299 381 299 l 408 299 q 416 299 416 291 q 416 286 412 284 q 401 278 386 260 q 371 243 358 222 q 344 201 334 180 q 324 160 324 149 q 324 147 324 144 q 325 141 333 141 q 350 145 371 164 q 392 182 411 208 q 430 234 442 266 q 455 297 455 328 q 455 342 450 360 q 444 378 432 394 q 420 409 400 420 q 380 431 351 431 q 320 431 287 417 q 254 403 222 379 q 191 355 163 324 q 135 294 114 260 q 92 227 80 194 q 67 160 67 131 q 67 90 90 58 q 114 27 162 21 q 179 21 196 24 q 212 26 232 35 q 251 44 262 51 q 273 58 279 63 q 285 68 288 70 q 290 73 292 73 q 295 73 298 71 q 301 69 301 65 q 301 61 298 58 q 297 57 286 49 q 276 41 259 32 q 242 22 220 14 q 199 5 176 4 q 107 3 68 39 q 30 75 30 137 q 30 203 60 259 q 89 315 136 357 q 182 399 238 423 q 293 447 346 448 q 366 448 382 444 q 398 441 413 432 z m 301 209 q 312 226 319 245 q 326 264 326 278 q 326 295 318 300 q 309 306 302 306 q 289 306 270 286 q 250 265 232 236 q 214 208 202 178 q 189 148 189 129 q 189 116 196 116 q 206 116 220 124 q 233 131 247 144 q 261 156 275 173 q 289 190 301 209 z m 114 293 q 158 352 214 394 q 178 374 147 344 q 116 314 94 280 q 72 245 60 208 q 47 171 47 137 q 47 107 54 87 q 50 102 50 125 q 50 163 66 206 q 82 248 114 293 z m 175 181 q 173 174 170 166 q 168 158 168 149 q 168 139 172 131 q 173 157 190 194 q 206 232 234 272 q 214 253 198 228 q 183 204 175 181 z m 308 150 q 308 168 316 187 q 324 206 336 224 q 348 242 361 258 q 374 273 384 282 q 374 277 360 262 q 347 248 334 230 q 322 212 313 193 q 304 174 304 161 q 304 152 308 147 z"},".":{"x_min":0,"x_max":124,"ha":124,"o":"m 18 123 q 31 123 40 114 q 48 105 48 92 q 48 80 40 71 q 31 62 18 62 q 5 62 -4 71 q -12 80 -12 92 q -12 105 -4 114 q 5 123 18 123 z m 18 79 q 31 79 31 92 q 31 106 18 106 q 5 106 5 92 q 5 79 18 79 z"},"p":{"x_min":0,"x_max":324,"ha":324,"o":"m 328 216 q 330 215 332 210 q 333 206 331 204 q 305 160 260 129 q 216 98 159 86 q 142 69 123 57 q 104 45 86 45 q 74 45 65 50 q 56 55 51 63 q 23 14 -16 -48 q -54 -110 -110 -201 q -144 -256 -173 -290 q -202 -323 -224 -323 q -228 -323 -238 -320 q -248 -316 -248 -298 q -248 -277 -229 -236 q -210 -196 -180 -145 q -150 -94 -112 -38 q -75 18 -38 70 q 0 123 34 167 q 68 211 90 237 q 101 263 105 280 q 109 297 109 307 q 109 315 108 319 q 106 323 99 323 q 82 323 62 294 q 43 266 7 204 q 4 200 -1 200 q -5 200 -8 204 q -12 209 -8 213 q 12 247 26 271 q 41 295 53 310 q 65 326 76 333 q 87 340 99 340 q 109 340 117 335 q 125 330 130 322 q 136 314 139 304 q 142 295 143 286 q 164 302 188 319 q 213 336 242 336 q 257 336 264 326 q 272 317 272 300 q 272 286 265 264 q 258 241 246 215 q 234 189 216 161 q 199 133 178 108 q 221 120 258 148 q 294 175 316 213 q 318 215 322 216 q 326 218 328 216 z m -218 -305 q -198 -298 -167 -256 q -136 -213 -100 -150 q -63 -86 -24 -8 q 14 69 49 146 l 64 178 q 36 142 4 98 q -29 53 -62 5 q -94 -43 -124 -90 q -155 -137 -178 -178 q -202 -219 -216 -250 q -230 -282 -230 -298 q -230 -310 -218 -305 z m 137 101 q 155 123 170 151 q 186 179 198 206 q 209 234 216 258 q 223 281 223 296 q 223 302 222 306 q 220 311 216 311 q 210 311 200 306 q 190 300 179 292 q 168 285 158 277 q 148 269 142 264 q 133 209 78 111 q 90 105 104 103 q 118 101 137 101 z m 47 90 q 68 128 83 156 q 98 185 108 208 q 117 230 122 248 q 126 266 126 281 q 126 284 126 286 q 125 289 124 292 q 123 282 118 266 q 118 266 116 260 q 115 255 112 248 q 110 241 108 235 q 105 229 105 229 q 89 189 70 151 q 56 122 44 94 q 32 67 17 39 z m 255 297 q 255 310 251 314 q 247 319 234 319 q 236 317 238 309 q 239 301 239 296 q 239 270 225 230 q 211 191 190 151 q 218 193 236 234 q 255 275 255 297 z m 105 67 q 110 71 114 75 q 118 79 123 84 q 92 84 70 96 q 65 87 64 84 q 63 82 63 81 q 63 72 70 68 q 76 63 85 62 q 93 62 105 67 z"},"X":{"x_min":0,"x_max":852,"ha":852,"o":"m 747 302 q 718 283 689 265 q 660 247 631 229 q 602 152 579 79 q 556 6 556 -54 q 556 -111 586 -149 q 615 -187 674 -187 q 702 -187 728 -178 q 754 -168 776 -152 q 798 -137 814 -117 q 830 -97 838 -77 q 839 -71 846 -71 q 850 -71 852 -74 q 854 -78 854 -80 l 854 -82 q 846 -105 828 -127 q 810 -149 786 -166 q 762 -183 733 -194 q 704 -204 674 -204 q 636 -204 608 -190 q 580 -176 562 -152 q 543 -129 534 -98 q 524 -67 524 -33 q 524 18 538 76 q 551 134 570 192 q 471 129 379 73 q 287 17 216 -37 q 145 -91 102 -146 q 60 -200 60 -259 q 60 -285 70 -306 q 79 -327 94 -336 q 105 -343 116 -346 q 127 -348 137 -348 q 159 -348 179 -339 q 199 -330 208 -316 q 211 -311 218 -314 q 226 -317 223 -322 q 209 -342 191 -352 q 173 -362 154 -364 q 134 -366 116 -362 q 98 -358 86 -351 q 6 -309 6 -248 q 6 -205 40 -160 q 73 -114 139 -62 q 205 -10 303 51 q 401 112 529 186 l 579 217 l 618 335 q 621 345 628 367 q 636 389 644 417 q 651 445 657 476 q 663 508 663 537 q 663 584 642 614 q 620 645 564 645 q 518 645 465 617 q 412 589 358 531 q 319 483 300 442 q 280 402 280 361 q 280 333 288 316 q 296 298 308 288 q 320 278 333 274 q 346 271 356 271 q 372 271 390 276 q 408 282 424 292 q 439 303 450 318 q 460 333 463 352 q 465 359 471 359 q 474 359 477 357 q 480 355 480 351 q 480 322 460 299 q 439 276 412 260 q 385 243 358 234 q 332 226 320 226 q 287 226 264 249 q 241 272 241 318 q 241 353 257 398 q 273 443 310 497 q 337 537 370 568 q 402 599 436 620 q 469 641 503 652 q 537 663 569 663 q 646 663 682 630 q 719 597 719 534 q 719 477 695 405 q 671 333 641 255 q 720 303 794 353 q 869 403 933 456 q 979 494 1010 530 q 1041 565 1060 598 q 1079 630 1087 658 q 1095 685 1095 707 q 1095 739 1080 755 q 1065 771 1041 771 q 1036 771 1032 770 q 1029 770 1024 770 q 1016 770 1016 778 q 1016 786 1025 787 q 1034 788 1041 788 q 1059 788 1080 784 q 1100 781 1118 772 q 1135 763 1146 748 q 1157 732 1157 707 q 1157 675 1136 632 q 1115 590 1067 538 q 1019 486 940 426 q 862 367 747 302 z m 624 258 q 639 297 653 335 q 667 373 678 408 q 689 443 696 476 q 702 508 702 535 q 702 567 690 592 q 679 616 652 630 q 680 597 680 539 q 680 512 676 484 q 671 456 664 430 q 658 403 651 380 q 644 358 639 343 q 631 317 622 294 q 614 271 601 230 q 580 173 564 112 q 547 50 542 -4 q 553 63 576 126 q 600 190 624 258 z m 1104 749 q 1108 740 1110 729 q 1113 718 1113 705 q 1113 668 1092 621 q 1072 574 1026 521 q 1081 572 1110 620 q 1140 669 1140 704 q 1140 751 1094 765 q 1097 762 1100 758 q 1102 754 1104 749 z m 118 -99 q 69 -144 46 -180 q 23 -217 23 -246 q 23 -281 51 -306 q 46 -295 44 -283 q 43 -271 43 -259 q 43 -224 58 -187 q 74 -150 103 -116 z m 358 254 q 316 254 290 282 q 263 311 263 362 q 257 338 257 319 q 257 282 274 263 q 291 244 320 244 q 342 244 366 254 z"},"*":{"x_min":0,"x_max":293,"ha":293,"o":"m 274 484 q 294 480 298 470 q 303 461 303 455 q 303 450 296 436 l 354 462 q 361 465 365 458 q 369 449 361 447 l 282 411 q 279 406 275 400 q 271 395 267 390 l 303 345 q 308 339 302 333 q 295 328 290 334 l 256 376 l 239 357 q 222 340 212 331 q 201 322 195 318 q 189 314 188 314 q 186 313 186 313 q 177 313 177 322 q 177 324 178 326 q 182 333 186 341 q 190 348 195 357 q 200 366 206 377 l 136 345 q 127 341 123 349 q 120 356 128 360 l 220 402 q 223 406 227 414 l 192 458 q 187 465 193 471 q 200 476 205 469 l 236 429 l 265 480 q 268 484 274 484 z m 227 370 q 240 383 250 397 q 261 411 269 423 q 277 435 282 444 q 286 453 286 456 q 286 461 277 466 q 272 457 263 442 q 254 428 244 412 q 235 396 226 380 q 218 365 213 356 z"},"Y":{"x_min":0,"x_max":721,"ha":721,"o":"m 891 646 q 898 646 904 640 q 910 635 910 627 q 910 612 894 586 q 879 561 852 530 q 824 498 787 461 q 750 424 708 387 q 667 307 636 244 q 606 181 580 130 q 555 80 532 40 q 509 1 483 -31 q 503 -49 514 -72 q 526 -95 526 -120 q 526 -152 508 -183 q 490 -214 456 -237 q 454 -238 451 -238 q 442 -238 442 -230 q 442 -224 446 -223 q 476 -203 492 -176 q 509 -150 509 -121 q 509 -78 473 -44 q 421 -106 371 -141 q 321 -176 278 -194 q 236 -211 204 -215 q 171 -219 154 -219 q 113 -219 86 -211 q 58 -203 41 -190 q 24 -177 16 -160 q 9 -144 9 -128 q 9 -98 32 -68 q 55 -39 93 -16 q 131 7 180 22 q 230 36 283 36 q 327 36 370 25 q 412 14 443 -2 q 491 65 532 143 q 572 221 610 299 q 611 301 612 304 q 613 306 614 309 l 591 290 q 559 266 518 237 q 476 208 432 183 q 388 158 345 141 q 302 124 268 124 q 257 124 245 126 q 233 129 223 135 q 213 141 206 150 q 200 160 200 173 q 200 199 228 234 q 255 269 296 309 q 338 349 386 392 q 435 434 476 474 q 518 513 546 548 q 573 582 573 607 q 573 624 559 632 q 545 639 521 639 q 489 639 446 626 q 402 612 354 590 q 307 567 260 538 q 213 509 176 479 q 113 428 85 384 q 57 339 57 313 q 57 308 58 302 q 59 295 63 289 q 67 283 74 279 q 82 275 95 275 q 133 275 186 316 q 214 338 237 362 q 260 387 276 410 q 292 434 301 456 q 310 477 310 493 l 310 497 q 310 505 318 505 q 325 505 327 497 q 327 473 314 446 q 302 420 283 394 q 264 367 241 344 q 218 320 196 302 l 195 302 q 163 276 126 256 q 90 237 59 237 q 35 237 20 250 q 5 263 5 284 q 5 318 39 367 q 73 416 138 471 l 169 496 q 201 520 244 548 q 287 576 334 600 q 381 624 429 640 q 477 655 520 655 q 560 655 578 637 q 597 619 597 587 q 597 552 570 512 q 543 472 502 430 q 462 387 414 346 q 367 304 326 268 q 286 231 259 202 q 232 173 232 155 q 232 151 236 148 q 241 145 247 144 q 253 142 259 142 q 265 141 268 141 q 321 141 417 194 q 513 246 632 345 q 663 407 693 462 q 723 517 754 558 q 785 599 819 622 q 853 646 891 646 z m 139 -201 q 185 -201 226 -188 q 267 -174 303 -149 q 339 -124 372 -90 q 404 -57 433 -16 q 404 -2 366 8 q 327 19 285 19 q 236 19 190 6 q 143 -7 106 -28 q 70 -49 48 -76 q 26 -102 26 -129 q 26 -138 30 -150 q 34 -161 46 -172 q 58 -183 80 -192 q 103 -200 139 -201 z m 694 397 q 729 466 765 523 q 801 580 836 613 q 790 586 748 521 q 707 456 665 372 q 660 364 654 353 q 649 342 646 334 l 625 291 q 587 213 546 135 q 505 57 458 -11 q 427 -54 401 -84 q 375 -114 347 -137 q 374 -118 402 -93 q 431 -68 460 -33 q 487 2 508 34 q 530 66 549 101 q 564 128 580 163 q 596 198 614 237 q 632 276 652 317 q 671 358 694 397 z m 217 169 q 226 194 262 229 q 299 264 358 316 q 392 346 427 378 q 462 410 492 442 q 523 474 546 505 q 568 536 576 563 q 562 536 530 503 q 497 470 456 434 q 416 397 374 359 q 331 321 296 286 q 260 251 238 221 q 216 191 217 169 z m 731 431 q 743 442 769 466 q 795 491 822 520 q 849 549 870 578 q 891 607 892 627 q 878 627 860 611 q 841 595 819 568 q 797 541 774 506 q 752 470 731 431 z m 71 262 q 41 274 41 313 q 41 329 45 345 q 33 325 28 309 q 23 293 23 282 q 23 254 59 254 q 64 254 70 255 q 77 256 85 258 q 75 260 71 262 z"},"c":{"x_min":0,"x_max":244,"ha":244,"o":"m 243 217 q 246 217 249 215 q 252 213 252 209 q 252 206 250 204 q 230 171 205 145 q 180 119 154 101 q 127 83 101 74 q 75 65 53 65 q 18 65 -2 88 q -22 111 -22 148 q -22 181 -7 216 q 8 251 33 280 q 58 308 90 326 q 123 345 158 345 q 183 345 204 334 q 224 323 224 294 q 224 277 215 258 q 206 240 193 225 q 180 210 165 200 q 150 190 137 190 q 128 190 128 198 q 128 207 137 207 q 145 207 157 216 q 169 224 180 236 q 191 249 199 264 q 207 280 207 295 q 207 313 193 322 q 179 330 163 326 q 148 323 122 302 q 96 281 71 251 q 46 221 28 186 q 9 152 9 121 q 9 103 22 92 q 34 82 53 82 q 71 82 94 90 q 118 98 142 114 q 167 131 192 156 q 216 180 236 213 q 237 217 243 217 z m 0 184 q -2 177 -4 168 q -5 158 -5 147 q 1 169 14 194 q 28 220 44 244 q 61 267 79 287 q 97 307 113 319 q 73 302 42 264 q 12 227 0 184 z"},"!":{"x_min":0,"x_max":186,"ha":186,"o":"m 298 547 q 298 543 297 542 q 288 530 270 501 q 252 472 230 436 q 207 399 183 360 q 159 320 140 288 q 120 255 107 234 q 94 212 94 212 q 91 208 86 208 q 78 208 78 216 q 78 219 79 220 q 110 290 138 352 q 165 413 189 459 q 213 505 234 532 q 256 559 277 559 q 282 559 290 556 q 298 554 298 549 z m 30 126 q 43 126 52 117 q 61 108 61 95 q 61 83 52 74 q 43 65 30 65 q 18 65 9 74 q 0 83 0 95 q 0 108 9 117 q 18 126 30 126 z m 150 338 q 167 366 186 396 q 204 427 221 454 q 238 482 252 505 q 267 528 276 542 q 265 542 251 526 q 237 511 221 484 q 205 456 187 418 q 169 381 150 338 z m 30 82 q 44 82 44 95 q 44 109 30 109 q 17 109 17 95 q 17 82 30 82 z"},"/":{"x_min":0,"x_max":330,"ha":330,"o":"m 440 523 q 441 521 441 516 q 441 507 430 491 q 419 475 395 448 q 371 422 332 382 q 294 343 238 286 q 183 230 110 154 q 36 79 -57 -20 q -59 -23 -63 -23 q -65 -23 -68 -21 q -71 -19 -71 -15 q -71 -10 -69 -8 l 395 534 q 397 536 401 536 q 413 536 424 534 q 436 532 440 523 z m 420 504 q 425 513 425 515 q 424 516 422 517 q 420 518 416 518 q 413 519 405 519 l 133 202 q 264 336 335 407 q 406 478 420 504 z"},"[":{"x_min":0,"x_max":262,"ha":262,"o":"m 84 -3 q 93 -3 93 -12 q 93 -20 84 -20 l -12 -20 q -14 -20 -17 -18 q -20 -17 -20 -12 q -20 -9 -19 -8 l 228 447 q 232 451 236 451 l 326 451 q 334 451 334 442 q 334 434 326 434 l 272 434 l 34 -3 z m 3 -3 l 14 -3 l 252 434 l 241 434 z"},"6":{"x_min":0,"x_max":999,"ha":999,"o":"m 8 441 q 46 461 82 478 q 119 495 161 507 q 164 507 166 518 q 168 529 170 542 q 173 556 175 568 q 177 581 179 586 q 185 595 194 602 q 204 609 215 614 q 226 620 238 624 q 249 629 258 633 q 306 653 355 667 q 404 681 454 694 q 505 706 556 715 q 608 724 660 729 q 678 731 704 734 q 729 736 755 735 q 781 734 804 728 q 828 723 843 708 q 845 705 842 692 q 840 679 839 674 l 836 621 q 836 619 838 619 q 880 607 920 588 q 961 568 988 531 l 988 530 q 979 532 968 528 q 956 524 945 517 q 934 510 924 502 q 915 494 910 488 q 926 479 936 462 q 947 445 952 426 q 956 406 956 386 q 955 366 949 350 q 940 373 922 386 q 904 399 882 405 q 859 411 835 413 q 811 415 790 416 q 766 418 739 417 q 712 416 689 424 q 680 427 676 438 q 673 449 672 462 q 672 474 674 486 q 676 499 677 507 q 577 499 480 476 q 382 453 289 421 q 284 419 284 418 q 285 412 288 399 q 292 386 294 372 q 297 358 298 346 q 298 334 294 330 q 282 320 263 318 q 244 316 228 314 q 207 311 185 308 q 163 305 142 301 q 104 293 72 280 q 64 275 56 272 q 49 269 41 264 q 37 260 32 253 q 26 246 22 244 q 28 263 36 281 q 43 299 50 316 q 51 319 57 330 q 63 340 69 352 q 75 363 79 372 q 83 382 82 384 q 68 404 50 422 q 32 439 8 441 z m 819 508 q 822 538 822 569 q 822 600 824 629 q 824 645 826 660 q 827 676 829 691 q 830 706 814 710 q 799 715 786 717 q 721 727 652 718 q 583 708 519 694 q 449 680 380 662 q 312 643 246 614 q 234 608 221 602 q 208 595 197 586 q 186 576 184 559 q 181 542 179 529 q 174 493 174 457 q 174 421 174 384 q 179 384 186 388 q 194 391 202 396 q 210 401 218 406 q 225 411 230 413 q 250 421 270 428 q 291 436 312 444 q 354 457 396 468 q 438 479 483 489 q 525 498 566 506 q 608 514 652 518 q 691 522 736 524 q 781 525 819 508 z m 722 577 q 717 572 714 568 q 710 564 703 562 q 698 560 694 562 q 691 564 688 567 q 685 565 681 562 q 677 560 672 559 q 655 556 649 570 l 649 571 q 644 566 640 562 q 635 558 627 556 q 620 552 613 562 q 610 568 612 574 q 613 580 616 586 q 619 592 621 598 q 623 605 622 611 q 613 607 608 600 q 604 594 602 586 q 600 579 598 571 q 597 563 594 556 q 592 547 581 551 q 577 552 577 557 q 577 559 578 562 q 578 564 578 566 q 570 564 568 564 q 565 564 559 558 q 554 552 546 548 q 538 543 529 543 q 523 544 520 548 q 517 551 514 556 q 505 546 492 538 q 480 529 466 531 q 459 532 452 541 q 446 534 440 528 q 433 523 424 521 q 409 515 407 532 q 405 546 412 556 q 418 566 423 577 q 424 579 422 580 q 419 580 418 578 q 414 567 408 554 q 403 541 394 530 q 386 518 375 510 q 364 503 349 504 q 332 505 330 516 q 327 528 332 542 q 338 555 350 566 q 361 578 373 579 q 380 579 382 573 q 388 567 383 558 q 380 546 368 536 q 357 527 344 524 q 346 518 350 517 q 355 516 360 518 q 365 521 370 524 q 374 528 376 530 q 389 541 396 555 q 402 569 407 583 q 408 586 402 596 q 395 606 397 614 q 399 620 404 624 q 410 628 416 627 q 422 627 424 620 q 427 614 426 608 q 424 601 424 594 q 435 596 440 594 q 445 593 438 579 q 433 570 428 560 q 423 551 422 541 q 422 536 426 536 q 438 535 446 546 q 453 557 459 572 q 465 586 470 600 q 476 613 484 618 q 489 619 493 617 q 494 614 494 610 q 492 603 488 598 q 485 594 488 586 q 491 579 495 572 q 499 565 498 557 l 499 557 q 505 563 509 572 q 513 581 517 590 q 521 599 526 606 q 532 614 541 618 q 561 625 568 607 q 573 599 571 593 q 569 587 570 578 q 576 579 578 583 q 586 590 588 602 q 589 614 592 624 q 594 627 598 628 q 602 628 604 627 q 610 626 609 620 l 609 619 q 615 625 622 628 q 634 634 638 621 q 640 615 638 609 q 637 603 634 597 q 631 591 628 585 q 626 579 627 572 q 635 578 640 586 q 645 594 650 602 q 654 611 660 618 q 665 626 673 631 q 680 635 686 634 q 693 633 701 631 q 703 635 710 636 q 718 636 716 628 q 714 617 708 606 q 702 595 702 584 q 702 578 707 583 q 718 594 724 609 q 729 624 734 640 q 739 655 747 668 q 755 682 770 691 q 778 695 783 687 q 790 674 785 660 q 780 647 772 638 q 768 633 762 626 q 755 620 749 614 q 743 607 738 600 q 734 593 736 586 q 737 577 748 579 q 756 582 760 589 q 763 596 768 603 q 770 604 774 604 q 779 604 779 599 l 777 592 q 767 571 748 563 q 734 555 724 571 q 722 573 722 577 z m 964 539 q 938 565 904 580 q 871 596 836 606 q 834 574 834 544 q 833 514 831 483 l 830 484 l 830 481 q 815 480 795 479 q 775 478 754 474 q 734 470 717 462 q 700 454 691 441 q 687 438 693 437 q 708 431 724 429 q 741 427 758 427 q 775 427 792 428 q 809 428 824 427 q 839 426 855 424 q 871 422 887 417 q 903 412 915 404 q 927 396 941 389 q 941 422 930 446 q 918 471 886 483 q 904 500 922 516 q 941 531 964 539 z m 162 494 q 100 478 38 444 q 73 424 97 386 q 98 384 95 377 q 92 370 88 362 q 83 354 78 346 q 74 339 73 336 q 66 324 61 311 q 56 298 51 284 q 78 299 108 306 q 137 312 166 316 q 196 320 226 324 q 255 329 284 338 q 275 348 259 352 q 243 355 225 356 q 207 356 190 354 q 172 353 160 352 q 160 387 160 423 q 160 459 162 494 z m 417 184 q 417 189 416 192 q 414 194 412 197 l 443 197 q 458 190 470 169 q 483 148 490 133 q 490 147 491 166 q 492 185 484 197 l 524 197 q 518 191 518 184 q 519 176 519 168 l 519 34 q 519 26 518 17 q 518 8 524 2 l 412 2 q 418 9 420 20 q 421 32 420 45 q 420 58 418 70 q 417 82 417 91 z m 360 197 q 380 197 390 186 q 399 175 402 158 q 405 142 404 124 q 403 105 403 91 l 403 48 q 403 22 388 12 q 374 1 350 2 q 329 2 320 13 q 310 24 307 40 q 304 57 305 76 q 306 94 306 108 q 306 119 305 129 q 304 139 306 150 q 306 177 320 187 q 335 197 360 197 z m 301 612 q 308 612 312 611 q 321 610 327 603 q 333 596 334 586 q 338 562 322 540 q 306 519 286 507 q 276 500 270 490 q 265 479 260 468 q 256 458 250 448 q 243 438 231 432 q 217 423 202 427 q 186 432 188 448 q 188 459 196 468 q 205 477 216 479 q 219 480 224 478 q 229 475 227 470 q 219 466 214 466 q 208 464 206 457 q 203 450 207 444 q 209 442 212 442 q 214 441 216 440 q 226 439 234 446 q 241 454 246 464 q 250 475 253 486 q 256 498 258 506 q 243 491 224 487 q 219 486 212 487 q 206 488 201 493 q 192 498 192 513 q 192 528 199 541 q 215 575 246 594 q 260 603 274 607 q 280 609 286 614 q 293 618 298 619 q 304 619 301 612 z m 416 327 q 414 335 410 348 q 407 361 406 374 q 404 387 406 399 q 409 411 418 417 q 424 422 436 422 q 447 423 451 413 q 454 404 450 402 q 446 399 440 400 q 434 400 430 404 q 426 407 431 412 q 422 407 422 396 q 421 385 425 372 q 429 360 434 348 q 440 336 442 329 q 449 309 452 282 q 454 254 440 236 q 434 228 422 226 q 409 223 394 223 q 380 223 366 224 q 352 226 343 226 q 349 234 351 246 q 353 258 352 272 q 352 285 350 298 q 349 312 349 321 l 349 389 q 349 397 350 405 q 350 413 343 421 l 384 421 q 376 414 378 404 q 379 393 379 383 l 379 307 q 379 297 378 280 q 376 262 383 254 q 387 248 393 248 q 399 247 404 250 q 409 253 414 258 q 418 263 419 268 q 423 282 420 298 q 418 313 416 327 z m 644 352 q 642 347 636 336 q 630 324 625 311 q 620 298 618 287 q 617 276 624 272 q 621 278 627 279 q 633 280 639 278 q 645 275 646 270 q 648 265 637 260 q 623 255 618 265 q 612 275 613 284 q 613 293 616 302 q 620 312 621 320 q 622 327 619 331 q 616 335 603 334 l 603 250 q 613 250 626 248 q 640 246 650 254 q 647 246 646 240 q 644 234 642 226 l 567 226 q 572 232 572 239 q 573 246 573 254 l 573 389 q 573 397 572 406 q 572 414 567 421 l 636 421 q 649 407 650 388 q 650 370 644 352 z m 547 416 q 547 408 551 400 q 555 392 558 384 q 561 375 560 367 q 560 359 552 352 q 544 346 534 347 q 523 348 522 359 q 522 365 526 368 q 530 371 534 371 q 539 371 542 368 q 545 366 544 361 q 551 362 551 368 q 551 373 548 379 q 544 385 538 390 q 532 396 528 397 q 520 399 510 397 q 500 395 497 387 q 490 373 494 364 q 499 354 508 346 q 517 338 528 331 q 540 324 546 316 q 554 305 558 290 q 562 276 560 262 q 558 248 549 238 q 540 228 523 226 q 509 224 494 225 q 479 226 464 226 q 469 228 468 236 q 466 244 463 254 q 460 264 458 274 q 457 285 462 292 q 465 295 470 297 q 475 299 480 299 q 485 299 489 296 q 493 294 494 288 q 494 282 490 280 q 487 277 482 277 q 478 277 474 280 q 471 282 471 287 q 464 285 464 279 q 464 273 468 267 q 472 261 478 256 q 483 252 487 251 q 495 249 506 249 q 516 249 522 254 q 534 266 532 277 q 529 288 520 298 q 512 307 501 314 q 490 322 484 328 q 474 337 468 351 q 462 365 462 379 q 461 393 468 404 q 475 416 492 420 q 506 423 521 422 q 536 421 550 421 z m 151 -72 l 128 -193 l 104 -193 q 101 -173 98 -153 q 96 -133 93 -113 q 91 -133 87 -153 q 83 -173 80 -193 l 57 -193 l 36 -72 l 61 -72 q 63 -94 65 -117 q 67 -140 71 -162 q 73 -139 76 -116 q 80 -94 84 -72 l 104 -72 l 118 -162 q 120 -139 122 -116 q 125 -94 128 -72 z m 269 -72 l 246 -193 l 223 -193 q 216 -155 211 -113 q 209 -133 206 -153 q 202 -173 199 -193 l 174 -193 l 154 -72 l 179 -72 q 181 -94 183 -117 q 185 -140 189 -162 q 191 -139 194 -116 q 198 -94 202 -72 l 223 -72 l 236 -162 q 238 -139 240 -116 q 243 -94 246 -72 z m 387 -72 l 364 -193 l 341 -193 q 337 -173 334 -153 q 332 -133 329 -113 q 327 -133 324 -153 q 320 -173 317 -193 l 293 -193 l 272 -72 l 297 -72 q 299 -94 302 -117 q 304 -140 307 -162 q 309 -139 312 -116 q 315 -94 320 -72 l 341 -72 l 354 -162 q 356 -139 358 -116 q 361 -94 364 -72 z m 596 -136 q 604 -139 608 -146 q 611 -153 613 -162 q 615 -170 616 -178 q 617 -187 620 -193 l 592 -193 q 589 -187 588 -178 q 586 -170 584 -162 q 582 -155 578 -150 q 573 -146 563 -147 l 563 -193 l 534 -193 l 534 -73 q 549 -71 569 -70 q 589 -69 603 -78 q 620 -90 616 -109 q 612 -128 596 -136 z m 820 -193 l 792 -193 q 781 -173 772 -151 q 764 -129 753 -109 q 754 -130 754 -152 q 754 -173 754 -193 l 729 -193 l 729 -72 l 760 -72 l 797 -154 q 795 -134 794 -113 q 794 -92 794 -72 l 820 -72 z m 530 2 q 536 10 538 22 q 540 34 540 48 q 539 61 538 74 q 536 87 536 96 l 536 164 q 536 173 536 181 q 537 189 530 197 l 571 197 q 565 191 564 180 q 562 169 562 157 q 563 145 564 133 q 566 121 566 114 l 566 24 l 622 24 q 634 24 652 23 q 671 22 682 30 q 680 25 678 14 q 676 2 671 2 z m 520 -193 l 492 -193 l 484 -166 l 456 -166 l 450 -193 l 421 -193 l 453 -72 l 488 -72 z m 931 -189 q 909 -197 888 -194 q 868 -190 854 -178 q 840 -165 836 -146 q 832 -126 844 -102 q 851 -86 866 -78 q 882 -71 900 -71 q 901 -71 906 -71 q 910 -71 916 -72 q 921 -73 924 -74 q 928 -75 928 -77 l 923 -99 q 909 -92 897 -94 q 885 -96 878 -104 q 870 -112 867 -124 q 864 -137 868 -150 q 876 -175 901 -172 q 907 -171 906 -160 q 904 -150 904 -146 l 890 -146 l 890 -123 l 931 -123 z m 626 100 q 619 112 614 124 q 609 137 604 150 q 599 163 597 176 q 595 189 584 197 l 627 197 q 620 182 628 162 q 635 141 642 128 q 649 144 654 162 q 659 180 654 197 l 698 197 q 686 190 684 176 q 681 161 678 150 q 674 139 665 124 q 656 109 656 98 q 656 86 654 68 q 653 49 661 39 l 620 39 q 630 49 628 68 q 626 88 626 100 z m 374 150 q 374 159 369 165 q 364 171 357 173 q 350 175 344 172 q 338 169 336 160 q 334 152 335 144 q 336 136 336 129 q 336 109 335 88 q 334 68 336 48 q 336 40 341 34 q 346 28 352 26 q 359 23 365 26 q 371 29 373 39 q 374 46 374 54 q 374 62 374 70 z m 490 19 q 488 53 479 88 q 470 123 447 151 l 447 26 q 447 18 454 13 q 460 8 468 7 q 475 6 482 8 q 489 11 490 19 z m 280 596 q 265 592 252 582 q 239 573 228 562 q 225 558 220 548 q 214 538 210 528 q 207 517 208 508 q 210 500 221 500 q 237 500 248 511 q 258 522 264 537 q 270 552 274 568 q 277 585 280 596 z m 636 -72 l 664 -72 l 664 -193 l 636 -193 z m 277 516 q 285 518 293 526 q 301 534 306 544 q 312 555 314 566 q 317 578 314 586 q 312 592 307 595 q 302 598 297 598 q 289 578 286 557 q 282 536 277 516 z m 603 398 l 603 359 q 609 359 616 359 q 622 359 628 360 q 634 362 638 366 q 643 370 643 378 q 643 387 639 391 q 635 395 629 396 q 623 398 616 398 q 609 398 603 398 z m 694 614 q 693 619 692 622 q 691 624 686 622 q 676 618 671 610 q 666 601 664 592 q 663 589 663 584 q 663 580 664 577 q 666 574 669 573 q 672 572 677 576 q 684 582 688 593 q 693 604 694 614 z m 527 574 l 529 567 q 534 558 542 563 q 550 566 554 575 q 559 584 557 593 q 556 599 552 602 q 548 606 540 600 q 534 595 531 588 q 528 582 527 574 z m 377 -178 q 377 -170 382 -166 q 387 -162 394 -162 q 400 -162 405 -166 q 410 -170 410 -178 q 410 -186 405 -190 q 400 -195 394 -195 q 387 -195 382 -190 q 377 -186 377 -178 z m 680 -178 q 680 -170 685 -166 q 690 -162 696 -162 q 703 -162 708 -166 q 713 -170 713 -178 q 713 -186 708 -190 q 703 -195 696 -195 q 690 -195 685 -190 q 680 -186 680 -178 z m 570 -126 q 580 -126 584 -120 q 589 -115 588 -108 q 587 -101 582 -96 q 576 -91 567 -92 q 564 -92 563 -96 q 562 -101 562 -106 q 562 -112 562 -118 q 563 -123 563 -126 z m 481 -144 q 476 -120 470 -94 l 459 -144 z m 474 576 q 471 571 466 563 q 462 555 463 550 q 465 543 472 544 q 479 545 480 552 q 481 563 474 576 z m 344 536 q 351 534 360 544 q 369 554 370 559 q 372 563 369 566 q 366 568 362 564 q 356 559 352 552 q 348 544 344 536 z m 772 674 l 771 674 q 751 654 744 628 q 753 639 762 650 q 770 660 772 674 z m 412 599 l 414 599 q 414 603 415 606 q 416 609 414 613 q 411 613 410 610 q 409 605 412 599 z"},"r":{"x_min":0,"x_max":213,"ha":213,"o":"m 217 216 q 219 215 220 210 q 222 206 220 204 q 182 142 142 104 q 103 65 76 65 q 49 65 34 82 q 19 99 19 116 q 19 137 34 160 q 49 184 66 208 q 84 231 99 252 q 114 272 114 286 q 114 294 106 298 q 98 303 74 317 q 63 296 50 275 q 37 254 25 234 l 7 204 q 6 200 0 200 q -4 200 -6 203 q -9 206 -9 209 q -9 211 -7 213 l 11 243 q 22 262 36 284 q 49 306 61 328 q 50 339 42 354 q 35 368 35 388 q 35 401 38 414 q 42 427 48 438 q 55 448 64 454 q 73 461 83 461 q 98 461 106 450 q 115 440 115 425 q 115 407 106 383 q 96 359 82 333 q 93 325 104 320 q 114 314 124 306 q 136 294 136 280 q 136 272 131 259 q 122 238 110 214 q 98 191 87 168 q 76 146 68 126 q 61 107 61 94 q 61 91 62 86 q 63 82 76 82 q 94 82 130 116 q 167 149 205 213 q 207 215 211 216 q 215 218 217 216 z m 69 344 q 81 369 90 390 q 98 411 98 425 q 98 436 94 440 q 89 444 83 444 q 71 444 62 426 q 52 407 52 387 q 52 373 57 362 q 62 352 69 344 z m 37 116 q 37 105 44 97 q 45 116 58 144 q 70 172 88 208 q 70 184 54 160 q 37 136 37 116 z"},"2":{"x_min":0,"x_max":999,"ha":999,"o":"m 8 441 q 46 461 82 478 q 119 495 161 507 q 164 507 166 518 q 168 529 170 542 q 173 556 175 568 q 177 581 179 586 q 185 595 194 602 q 204 609 215 614 q 226 620 238 624 q 249 629 258 633 q 306 653 355 667 q 404 681 454 694 q 505 706 556 715 q 608 724 660 729 q 678 731 704 734 q 729 736 755 735 q 781 734 804 728 q 828 723 843 708 q 845 705 842 692 q 840 679 839 674 l 836 621 q 836 619 838 619 q 880 607 920 588 q 961 568 988 531 l 988 530 q 979 532 968 528 q 956 524 945 517 q 934 510 924 502 q 915 494 910 488 q 926 479 936 462 q 947 445 952 426 q 956 406 956 386 q 955 366 949 350 q 940 373 922 386 q 904 399 882 405 q 859 411 835 413 q 811 415 790 416 q 766 418 739 417 q 712 416 689 424 q 680 427 676 438 q 673 449 672 462 q 672 474 674 486 q 676 499 677 507 q 577 499 480 476 q 382 453 289 421 q 284 419 284 418 q 285 412 288 399 q 292 386 294 372 q 297 358 298 346 q 298 334 294 330 q 282 320 263 318 q 244 316 228 314 q 207 311 185 308 q 163 305 142 301 q 104 293 72 280 q 64 275 56 272 q 49 269 41 264 q 37 260 32 253 q 26 246 22 244 q 28 263 36 281 q 43 299 50 316 q 51 319 57 330 q 63 340 69 352 q 75 363 79 372 q 83 382 82 384 q 68 404 50 422 q 32 439 8 441 z m 819 508 q 822 538 822 569 q 822 600 824 629 q 824 645 826 660 q 827 676 829 691 q 830 706 814 710 q 799 715 786 717 q 721 727 652 718 q 583 708 519 694 q 449 680 380 662 q 312 643 246 614 q 234 608 221 602 q 208 595 197 586 q 186 576 184 559 q 181 542 179 529 q 174 493 174 457 q 174 421 174 384 q 179 384 186 388 q 194 391 202 396 q 210 401 218 406 q 225 411 230 413 q 250 421 270 428 q 291 436 312 444 q 354 457 396 468 q 438 479 483 489 q 525 498 566 506 q 608 514 652 518 q 691 522 736 524 q 781 525 819 508 z m 722 577 q 717 572 714 568 q 710 564 703 562 q 698 560 694 562 q 691 564 688 567 q 685 565 681 562 q 677 560 672 559 q 655 556 649 570 l 649 571 q 644 566 640 562 q 635 558 627 556 q 620 552 613 562 q 610 568 612 574 q 613 580 616 586 q 619 592 621 598 q 623 605 622 611 q 613 607 608 600 q 604 594 602 586 q 600 579 598 571 q 597 563 594 556 q 592 547 581 551 q 577 552 577 557 q 577 559 578 562 q 578 564 578 566 q 570 564 568 564 q 565 564 559 558 q 554 552 546 548 q 538 543 529 543 q 523 544 520 548 q 517 551 514 556 q 505 546 492 538 q 480 529 466 531 q 459 532 452 541 q 446 534 440 528 q 433 523 424 521 q 409 515 407 532 q 405 546 412 556 q 418 566 423 577 q 424 579 422 580 q 419 580 418 578 q 414 567 408 554 q 403 541 394 530 q 386 518 375 510 q 364 503 349 504 q 332 505 330 516 q 327 528 332 542 q 338 555 350 566 q 361 578 373 579 q 380 579 382 573 q 388 567 383 558 q 380 546 368 536 q 357 527 344 524 q 346 518 350 517 q 355 516 360 518 q 365 521 370 524 q 374 528 376 530 q 389 541 396 555 q 402 569 407 583 q 408 586 402 596 q 395 606 397 614 q 399 620 404 624 q 410 628 416 627 q 422 627 424 620 q 427 614 426 608 q 424 601 424 594 q 435 596 440 594 q 445 593 438 579 q 433 570 428 560 q 423 551 422 541 q 422 536 426 536 q 438 535 446 546 q 453 557 459 572 q 465 586 470 600 q 476 613 484 618 q 489 619 493 617 q 494 614 494 610 q 492 603 488 598 q 485 594 488 586 q 491 579 495 572 q 499 565 498 557 l 499 557 q 505 563 509 572 q 513 581 517 590 q 521 599 526 606 q 532 614 541 618 q 561 625 568 607 q 573 599 571 593 q 569 587 570 578 q 576 579 578 583 q 586 590 588 602 q 589 614 592 624 q 594 627 598 628 q 602 628 604 627 q 610 626 609 620 l 609 619 q 615 625 622 628 q 634 634 638 621 q 640 615 638 609 q 637 603 634 597 q 631 591 628 585 q 626 579 627 572 q 635 578 640 586 q 645 594 650 602 q 654 611 660 618 q 665 626 673 631 q 680 635 686 634 q 693 633 701 631 q 703 635 710 636 q 718 636 716 628 q 714 617 708 606 q 702 595 702 584 q 702 578 707 583 q 718 594 724 609 q 729 624 734 640 q 739 655 747 668 q 755 682 770 691 q 778 695 783 687 q 790 674 785 660 q 780 647 772 638 q 768 633 762 626 q 755 620 749 614 q 743 607 738 600 q 734 593 736 586 q 737 577 748 579 q 756 582 760 589 q 763 596 768 603 q 770 604 774 604 q 779 604 779 599 l 777 592 q 767 571 748 563 q 734 555 724 571 q 722 573 722 577 z m 964 539 q 938 565 904 580 q 871 596 836 606 q 834 574 834 544 q 833 514 831 483 l 830 484 l 830 481 q 815 480 795 479 q 775 478 754 474 q 734 470 717 462 q 700 454 691 441 q 687 438 693 437 q 708 431 724 429 q 741 427 758 427 q 775 427 792 428 q 809 428 824 427 q 839 426 855 424 q 871 422 887 417 q 903 412 915 404 q 927 396 941 389 q 941 422 930 446 q 918 471 886 483 q 904 500 922 516 q 941 531 964 539 z m 162 494 q 100 478 38 444 q 73 424 97 386 q 98 384 95 377 q 92 370 88 362 q 83 354 78 346 q 74 339 73 336 q 66 324 61 311 q 56 298 51 284 q 78 299 108 306 q 137 312 166 316 q 196 320 226 324 q 255 329 284 338 q 275 348 259 352 q 243 355 225 356 q 207 356 190 354 q 172 353 160 352 q 160 387 160 423 q 160 459 162 494 z m 417 184 q 417 189 416 192 q 414 194 412 197 l 443 197 q 458 190 470 169 q 483 148 490 133 q 490 147 491 166 q 492 185 484 197 l 524 197 q 518 191 518 184 q 519 176 519 168 l 519 34 q 519 26 518 17 q 518 8 524 2 l 412 2 q 418 9 420 20 q 421 32 420 45 q 420 58 418 70 q 417 82 417 91 z m 360 197 q 380 197 390 186 q 399 175 402 158 q 405 142 404 124 q 403 105 403 91 l 403 48 q 403 22 388 12 q 374 1 350 2 q 329 2 320 13 q 310 24 307 40 q 304 57 305 76 q 306 94 306 108 q 306 119 305 129 q 304 139 306 150 q 306 177 320 187 q 335 197 360 197 z m 301 612 q 308 612 312 611 q 321 610 327 603 q 333 596 334 586 q 338 562 322 540 q 306 519 286 507 q 276 500 270 490 q 265 479 260 468 q 256 458 250 448 q 243 438 231 432 q 217 423 202 427 q 186 432 188 448 q 188 459 196 468 q 205 477 216 479 q 219 480 224 478 q 229 475 227 470 q 219 466 214 466 q 208 464 206 457 q 203 450 207 444 q 209 442 212 442 q 214 441 216 440 q 226 439 234 446 q 241 454 246 464 q 250 475 253 486 q 256 498 258 506 q 243 491 224 487 q 219 486 212 487 q 206 488 201 493 q 192 498 192 513 q 192 528 199 541 q 215 575 246 594 q 260 603 274 607 q 280 609 286 614 q 293 618 298 619 q 304 619 301 612 z m 416 327 q 414 335 410 348 q 407 361 406 374 q 404 387 406 399 q 409 411 418 417 q 424 422 436 422 q 447 423 451 413 q 454 404 450 402 q 446 399 440 400 q 434 400 430 404 q 426 407 431 412 q 422 407 422 396 q 421 385 425 372 q 429 360 434 348 q 440 336 442 329 q 449 309 452 282 q 454 254 440 236 q 434 228 422 226 q 409 223 394 223 q 380 223 366 224 q 352 226 343 226 q 349 234 351 246 q 353 258 352 272 q 352 285 350 298 q 349 312 349 321 l 349 389 q 349 397 350 405 q 350 413 343 421 l 384 421 q 376 414 378 404 q 379 393 379 383 l 379 307 q 379 297 378 280 q 376 262 383 254 q 387 248 393 248 q 399 247 404 250 q 409 253 414 258 q 418 263 419 268 q 423 282 420 298 q 418 313 416 327 z m 644 352 q 642 347 636 336 q 630 324 625 311 q 620 298 618 287 q 617 276 624 272 q 621 278 627 279 q 633 280 639 278 q 645 275 646 270 q 648 265 637 260 q 623 255 618 265 q 612 275 613 284 q 613 293 616 302 q 620 312 621 320 q 622 327 619 331 q 616 335 603 334 l 603 250 q 613 250 626 248 q 640 246 650 254 q 647 246 646 240 q 644 234 642 226 l 567 226 q 572 232 572 239 q 573 246 573 254 l 573 389 q 573 397 572 406 q 572 414 567 421 l 636 421 q 649 407 650 388 q 650 370 644 352 z m 547 416 q 547 408 551 400 q 555 392 558 384 q 561 375 560 367 q 560 359 552 352 q 544 346 534 347 q 523 348 522 359 q 522 365 526 368 q 530 371 534 371 q 539 371 542 368 q 545 366 544 361 q 551 362 551 368 q 551 373 548 379 q 544 385 538 390 q 532 396 528 397 q 520 399 510 397 q 500 395 497 387 q 490 373 494 364 q 499 354 508 346 q 517 338 528 331 q 540 324 546 316 q 554 305 558 290 q 562 276 560 262 q 558 248 549 238 q 540 228 523 226 q 509 224 494 225 q 479 226 464 226 q 469 228 468 236 q 466 244 463 254 q 460 264 458 274 q 457 285 462 292 q 465 295 470 297 q 475 299 480 299 q 485 299 489 296 q 493 294 494 288 q 494 282 490 280 q 487 277 482 277 q 478 277 474 280 q 471 282 471 287 q 464 285 464 279 q 464 273 468 267 q 472 261 478 256 q 483 252 487 251 q 495 249 506 249 q 516 249 522 254 q 534 266 532 277 q 529 288 520 298 q 512 307 501 314 q 490 322 484 328 q 474 337 468 351 q 462 365 462 379 q 461 393 468 404 q 475 416 492 420 q 506 423 521 422 q 536 421 550 421 z m 151 -72 l 128 -193 l 104 -193 q 101 -173 98 -153 q 96 -133 93 -113 q 91 -133 87 -153 q 83 -173 80 -193 l 57 -193 l 36 -72 l 61 -72 q 63 -94 65 -117 q 67 -140 71 -162 q 73 -139 76 -116 q 80 -94 84 -72 l 104 -72 l 118 -162 q 120 -139 122 -116 q 125 -94 128 -72 z m 269 -72 l 246 -193 l 223 -193 q 216 -155 211 -113 q 209 -133 206 -153 q 202 -173 199 -193 l 174 -193 l 154 -72 l 179 -72 q 181 -94 183 -117 q 185 -140 189 -162 q 191 -139 194 -116 q 198 -94 202 -72 l 223 -72 l 236 -162 q 238 -139 240 -116 q 243 -94 246 -72 z m 387 -72 l 364 -193 l 341 -193 q 337 -173 334 -153 q 332 -133 329 -113 q 327 -133 324 -153 q 320 -173 317 -193 l 293 -193 l 272 -72 l 297 -72 q 299 -94 302 -117 q 304 -140 307 -162 q 309 -139 312 -116 q 315 -94 320 -72 l 341 -72 l 354 -162 q 356 -139 358 -116 q 361 -94 364 -72 z m 596 -136 q 604 -139 608 -146 q 611 -153 613 -162 q 615 -170 616 -178 q 617 -187 620 -193 l 592 -193 q 589 -187 588 -178 q 586 -170 584 -162 q 582 -155 578 -150 q 573 -146 563 -147 l 563 -193 l 534 -193 l 534 -73 q 549 -71 569 -70 q 589 -69 603 -78 q 620 -90 616 -109 q 612 -128 596 -136 z m 820 -193 l 792 -193 q 781 -173 772 -151 q 764 -129 753 -109 q 754 -130 754 -152 q 754 -173 754 -193 l 729 -193 l 729 -72 l 760 -72 l 797 -154 q 795 -134 794 -113 q 794 -92 794 -72 l 820 -72 z m 530 2 q 536 10 538 22 q 540 34 540 48 q 539 61 538 74 q 536 87 536 96 l 536 164 q 536 173 536 181 q 537 189 530 197 l 571 197 q 565 191 564 180 q 562 169 562 157 q 563 145 564 133 q 566 121 566 114 l 566 24 l 622 24 q 634 24 652 23 q 671 22 682 30 q 680 25 678 14 q 676 2 671 2 z m 520 -193 l 492 -193 l 484 -166 l 456 -166 l 450 -193 l 421 -193 l 453 -72 l 488 -72 z m 931 -189 q 909 -197 888 -194 q 868 -190 854 -178 q 840 -165 836 -146 q 832 -126 844 -102 q 851 -86 866 -78 q 882 -71 900 -71 q 901 -71 906 -71 q 910 -71 916 -72 q 921 -73 924 -74 q 928 -75 928 -77 l 923 -99 q 909 -92 897 -94 q 885 -96 878 -104 q 870 -112 867 -124 q 864 -137 868 -150 q 876 -175 901 -172 q 907 -171 906 -160 q 904 -150 904 -146 l 890 -146 l 890 -123 l 931 -123 z m 626 100 q 619 112 614 124 q 609 137 604 150 q 599 163 597 176 q 595 189 584 197 l 627 197 q 620 182 628 162 q 635 141 642 128 q 649 144 654 162 q 659 180 654 197 l 698 197 q 686 190 684 176 q 681 161 678 150 q 674 139 665 124 q 656 109 656 98 q 656 86 654 68 q 653 49 661 39 l 620 39 q 630 49 628 68 q 626 88 626 100 z m 374 150 q 374 159 369 165 q 364 171 357 173 q 350 175 344 172 q 338 169 336 160 q 334 152 335 144 q 336 136 336 129 q 336 109 335 88 q 334 68 336 48 q 336 40 341 34 q 346 28 352 26 q 359 23 365 26 q 371 29 373 39 q 374 46 374 54 q 374 62 374 70 z m 490 19 q 488 53 479 88 q 470 123 447 151 l 447 26 q 447 18 454 13 q 460 8 468 7 q 475 6 482 8 q 489 11 490 19 z m 280 596 q 265 592 252 582 q 239 573 228 562 q 225 558 220 548 q 214 538 210 528 q 207 517 208 508 q 210 500 221 500 q 237 500 248 511 q 258 522 264 537 q 270 552 274 568 q 277 585 280 596 z m 636 -72 l 664 -72 l 664 -193 l 636 -193 z m 277 516 q 285 518 293 526 q 301 534 306 544 q 312 555 314 566 q 317 578 314 586 q 312 592 307 595 q 302 598 297 598 q 289 578 286 557 q 282 536 277 516 z m 603 398 l 603 359 q 609 359 616 359 q 622 359 628 360 q 634 362 638 366 q 643 370 643 378 q 643 387 639 391 q 635 395 629 396 q 623 398 616 398 q 609 398 603 398 z m 694 614 q 693 619 692 622 q 691 624 686 622 q 676 618 671 610 q 666 601 664 592 q 663 589 663 584 q 663 580 664 577 q 666 574 669 573 q 672 572 677 576 q 684 582 688 593 q 693 604 694 614 z m 527 574 l 529 567 q 534 558 542 563 q 550 566 554 575 q 559 584 557 593 q 556 599 552 602 q 548 606 540 600 q 534 595 531 588 q 528 582 527 574 z m 377 -178 q 377 -170 382 -166 q 387 -162 394 -162 q 400 -162 405 -166 q 410 -170 410 -178 q 410 -186 405 -190 q 400 -195 394 -195 q 387 -195 382 -190 q 377 -186 377 -178 z m 680 -178 q 680 -170 685 -166 q 690 -162 696 -162 q 703 -162 708 -166 q 713 -170 713 -178 q 713 -186 708 -190 q 703 -195 696 -195 q 690 -195 685 -190 q 680 -186 680 -178 z m 570 -126 q 580 -126 584 -120 q 589 -115 588 -108 q 587 -101 582 -96 q 576 -91 567 -92 q 564 -92 563 -96 q 562 -101 562 -106 q 562 -112 562 -118 q 563 -123 563 -126 z m 481 -144 q 476 -120 470 -94 l 459 -144 z m 474 576 q 471 571 466 563 q 462 555 463 550 q 465 543 472 544 q 479 545 480 552 q 481 563 474 576 z m 344 536 q 351 534 360 544 q 369 554 370 559 q 372 563 369 566 q 366 568 362 564 q 356 559 352 552 q 348 544 344 536 z m 772 674 l 771 674 q 751 654 744 628 q 753 639 762 650 q 770 660 772 674 z m 412 599 l 414 599 q 414 603 415 606 q 416 609 414 613 q 411 613 410 610 q 409 605 412 599 z"},"{":{"x_min":0,"x_max":262,"ha":262,"o":"m 109 195 q 112 186 112 175 q 112 154 102 130 q 93 107 81 84 q 69 62 60 42 q 50 22 50 8 q 50 0 58 -2 q 66 -4 66 -13 q 66 -17 62 -18 q 59 -20 57 -20 q 13 -11 13 28 q 13 47 22 69 q 32 91 43 114 q 54 136 64 157 q 73 178 73 193 q 73 201 68 205 q 62 209 56 212 q 50 214 44 216 q 39 219 39 224 q 41 232 48 232 q 76 232 96 240 q 115 247 130 260 q 144 273 155 292 q 166 310 177 331 q 189 355 203 376 q 217 398 235 414 q 253 430 276 440 q 300 449 330 451 q 338 451 338 441 q 338 436 332 434 q 310 430 292 414 q 274 397 256 374 q 239 350 222 323 q 206 296 188 272 q 169 249 148 232 q 126 214 100 210 q 106 204 109 195 z m 192 323 q 181 302 168 282 q 156 261 139 246 q 159 261 176 284 q 193 306 209 331 q 225 356 241 380 q 257 404 275 421 q 244 407 226 380 q 208 353 192 323 z m 34 13 q 35 28 44 48 q 54 68 65 90 q 76 112 86 134 q 95 156 95 174 q 95 186 91 194 q 91 177 82 156 q 72 134 60 112 q 49 89 40 68 q 30 46 30 28 q 30 24 31 18 q 32 13 34 13 z"},"9":{"x_min":0,"x_max":999,"ha":999,"o":"m 8 441 q 46 461 82 478 q 119 495 161 507 q 164 507 166 518 q 168 529 170 542 q 173 556 175 568 q 177 581 179 586 q 185 595 194 602 q 204 609 215 614 q 226 620 238 624 q 249 629 258 633 q 306 653 355 667 q 404 681 454 694 q 505 706 556 715 q 608 724 660 729 q 678 731 704 734 q 729 736 755 735 q 781 734 804 728 q 828 723 843 708 q 845 705 842 692 q 840 679 839 674 l 836 621 q 836 619 838 619 q 880 607 920 588 q 961 568 988 531 l 988 530 q 979 532 968 528 q 956 524 945 517 q 934 510 924 502 q 915 494 910 488 q 926 479 936 462 q 947 445 952 426 q 956 406 956 386 q 955 366 949 350 q 940 373 922 386 q 904 399 882 405 q 859 411 835 413 q 811 415 790 416 q 766 418 739 417 q 712 416 689 424 q 680 427 676 438 q 673 449 672 462 q 672 474 674 486 q 676 499 677 507 q 577 499 480 476 q 382 453 289 421 q 284 419 284 418 q 285 412 288 399 q 292 386 294 372 q 297 358 298 346 q 298 334 294 330 q 282 320 263 318 q 244 316 228 314 q 207 311 185 308 q 163 305 142 301 q 104 293 72 280 q 64 275 56 272 q 49 269 41 264 q 37 260 32 253 q 26 246 22 244 q 28 263 36 281 q 43 299 50 316 q 51 319 57 330 q 63 340 69 352 q 75 363 79 372 q 83 382 82 384 q 68 404 50 422 q 32 439 8 441 z m 819 508 q 822 538 822 569 q 822 600 824 629 q 824 645 826 660 q 827 676 829 691 q 830 706 814 710 q 799 715 786 717 q 721 727 652 718 q 583 708 519 694 q 449 680 380 662 q 312 643 246 614 q 234 608 221 602 q 208 595 197 586 q 186 576 184 559 q 181 542 179 529 q 174 493 174 457 q 174 421 174 384 q 179 384 186 388 q 194 391 202 396 q 210 401 218 406 q 225 411 230 413 q 250 421 270 428 q 291 436 312 444 q 354 457 396 468 q 438 479 483 489 q 525 498 566 506 q 608 514 652 518 q 691 522 736 524 q 781 525 819 508 z m 722 577 q 717 572 714 568 q 710 564 703 562 q 698 560 694 562 q 691 564 688 567 q 685 565 681 562 q 677 560 672 559 q 655 556 649 570 l 649 571 q 644 566 640 562 q 635 558 627 556 q 620 552 613 562 q 610 568 612 574 q 613 580 616 586 q 619 592 621 598 q 623 605 622 611 q 613 607 608 600 q 604 594 602 586 q 600 579 598 571 q 597 563 594 556 q 592 547 581 551 q 577 552 577 557 q 577 559 578 562 q 578 564 578 566 q 570 564 568 564 q 565 564 559 558 q 554 552 546 548 q 538 543 529 543 q 523 544 520 548 q 517 551 514 556 q 505 546 492 538 q 480 529 466 531 q 459 532 452 541 q 446 534 440 528 q 433 523 424 521 q 409 515 407 532 q 405 546 412 556 q 418 566 423 577 q 424 579 422 580 q 419 580 418 578 q 414 567 408 554 q 403 541 394 530 q 386 518 375 510 q 364 503 349 504 q 332 505 330 516 q 327 528 332 542 q 338 555 350 566 q 361 578 373 579 q 380 579 382 573 q 388 567 383 558 q 380 546 368 536 q 357 527 344 524 q 346 518 350 517 q 355 516 360 518 q 365 521 370 524 q 374 528 376 530 q 389 541 396 555 q 402 569 407 583 q 408 586 402 596 q 395 606 397 614 q 399 620 404 624 q 410 628 416 627 q 422 627 424 620 q 427 614 426 608 q 424 601 424 594 q 435 596 440 594 q 445 593 438 579 q 433 570 428 560 q 423 551 422 541 q 422 536 426 536 q 438 535 446 546 q 453 557 459 572 q 465 586 470 600 q 476 613 484 618 q 489 619 493 617 q 494 614 494 610 q 492 603 488 598 q 485 594 488 586 q 491 579 495 572 q 499 565 498 557 l 499 557 q 505 563 509 572 q 513 581 517 590 q 521 599 526 606 q 532 614 541 618 q 561 625 568 607 q 573 599 571 593 q 569 587 570 578 q 576 579 578 583 q 586 590 588 602 q 589 614 592 624 q 594 627 598 628 q 602 628 604 627 q 610 626 609 620 l 609 619 q 615 625 622 628 q 634 634 638 621 q 640 615 638 609 q 637 603 634 597 q 631 591 628 585 q 626 579 627 572 q 635 578 640 586 q 645 594 650 602 q 654 611 660 618 q 665 626 673 631 q 680 635 686 634 q 693 633 701 631 q 703 635 710 636 q 718 636 716 628 q 714 617 708 606 q 702 595 702 584 q 702 578 707 583 q 718 594 724 609 q 729 624 734 640 q 739 655 747 668 q 755 682 770 691 q 778 695 783 687 q 790 674 785 660 q 780 647 772 638 q 768 633 762 626 q 755 620 749 614 q 743 607 738 600 q 734 593 736 586 q 737 577 748 579 q 756 582 760 589 q 763 596 768 603 q 770 604 774 604 q 779 604 779 599 l 777 592 q 767 571 748 563 q 734 555 724 571 q 722 573 722 577 z m 964 539 q 938 565 904 580 q 871 596 836 606 q 834 574 834 544 q 833 514 831 483 l 830 484 l 830 481 q 815 480 795 479 q 775 478 754 474 q 734 470 717 462 q 700 454 691 441 q 687 438 693 437 q 708 431 724 429 q 741 427 758 427 q 775 427 792 428 q 809 428 824 427 q 839 426 855 424 q 871 422 887 417 q 903 412 915 404 q 927 396 941 389 q 941 422 930 446 q 918 471 886 483 q 904 500 922 516 q 941 531 964 539 z m 162 494 q 100 478 38 444 q 73 424 97 386 q 98 384 95 377 q 92 370 88 362 q 83 354 78 346 q 74 339 73 336 q 66 324 61 311 q 56 298 51 284 q 78 299 108 306 q 137 312 166 316 q 196 320 226 324 q 255 329 284 338 q 275 348 259 352 q 243 355 225 356 q 207 356 190 354 q 172 353 160 352 q 160 387 160 423 q 160 459 162 494 z m 417 184 q 417 189 416 192 q 414 194 412 197 l 443 197 q 458 190 470 169 q 483 148 490 133 q 490 147 491 166 q 492 185 484 197 l 524 197 q 518 191 518 184 q 519 176 519 168 l 519 34 q 519 26 518 17 q 518 8 524 2 l 412 2 q 418 9 420 20 q 421 32 420 45 q 420 58 418 70 q 417 82 417 91 z m 360 197 q 380 197 390 186 q 399 175 402 158 q 405 142 404 124 q 403 105 403 91 l 403 48 q 403 22 388 12 q 374 1 350 2 q 329 2 320 13 q 310 24 307 40 q 304 57 305 76 q 306 94 306 108 q 306 119 305 129 q 304 139 306 150 q 306 177 320 187 q 335 197 360 197 z m 301 612 q 308 612 312 611 q 321 610 327 603 q 333 596 334 586 q 338 562 322 540 q 306 519 286 507 q 276 500 270 490 q 265 479 260 468 q 256 458 250 448 q 243 438 231 432 q 217 423 202 427 q 186 432 188 448 q 188 459 196 468 q 205 477 216 479 q 219 480 224 478 q 229 475 227 470 q 219 466 214 466 q 208 464 206 457 q 203 450 207 444 q 209 442 212 442 q 214 441 216 440 q 226 439 234 446 q 241 454 246 464 q 250 475 253 486 q 256 498 258 506 q 243 491 224 487 q 219 486 212 487 q 206 488 201 493 q 192 498 192 513 q 192 528 199 541 q 215 575 246 594 q 260 603 274 607 q 280 609 286 614 q 293 618 298 619 q 304 619 301 612 z m 416 327 q 414 335 410 348 q 407 361 406 374 q 404 387 406 399 q 409 411 418 417 q 424 422 436 422 q 447 423 451 413 q 454 404 450 402 q 446 399 440 400 q 434 400 430 404 q 426 407 431 412 q 422 407 422 396 q 421 385 425 372 q 429 360 434 348 q 440 336 442 329 q 449 309 452 282 q 454 254 440 236 q 434 228 422 226 q 409 223 394 223 q 380 223 366 224 q 352 226 343 226 q 349 234 351 246 q 353 258 352 272 q 352 285 350 298 q 349 312 349 321 l 349 389 q 349 397 350 405 q 350 413 343 421 l 384 421 q 376 414 378 404 q 379 393 379 383 l 379 307 q 379 297 378 280 q 376 262 383 254 q 387 248 393 248 q 399 247 404 250 q 409 253 414 258 q 418 263 419 268 q 423 282 420 298 q 418 313 416 327 z m 644 352 q 642 347 636 336 q 630 324 625 311 q 620 298 618 287 q 617 276 624 272 q 621 278 627 279 q 633 280 639 278 q 645 275 646 270 q 648 265 637 260 q 623 255 618 265 q 612 275 613 284 q 613 293 616 302 q 620 312 621 320 q 622 327 619 331 q 616 335 603 334 l 603 250 q 613 250 626 248 q 640 246 650 254 q 647 246 646 240 q 644 234 642 226 l 567 226 q 572 232 572 239 q 573 246 573 254 l 573 389 q 573 397 572 406 q 572 414 567 421 l 636 421 q 649 407 650 388 q 650 370 644 352 z m 547 416 q 547 408 551 400 q 555 392 558 384 q 561 375 560 367 q 560 359 552 352 q 544 346 534 347 q 523 348 522 359 q 522 365 526 368 q 530 371 534 371 q 539 371 542 368 q 545 366 544 361 q 551 362 551 368 q 551 373 548 379 q 544 385 538 390 q 532 396 528 397 q 520 399 510 397 q 500 395 497 387 q 490 373 494 364 q 499 354 508 346 q 517 338 528 331 q 540 324 546 316 q 554 305 558 290 q 562 276 560 262 q 558 248 549 238 q 540 228 523 226 q 509 224 494 225 q 479 226 464 226 q 469 228 468 236 q 466 244 463 254 q 460 264 458 274 q 457 285 462 292 q 465 295 470 297 q 475 299 480 299 q 485 299 489 296 q 493 294 494 288 q 494 282 490 280 q 487 277 482 277 q 478 277 474 280 q 471 282 471 287 q 464 285 464 279 q 464 273 468 267 q 472 261 478 256 q 483 252 487 251 q 495 249 506 249 q 516 249 522 254 q 534 266 532 277 q 529 288 520 298 q 512 307 501 314 q 490 322 484 328 q 474 337 468 351 q 462 365 462 379 q 461 393 468 404 q 475 416 492 420 q 506 423 521 422 q 536 421 550 421 z m 151 -72 l 128 -193 l 104 -193 q 101 -173 98 -153 q 96 -133 93 -113 q 91 -133 87 -153 q 83 -173 80 -193 l 57 -193 l 36 -72 l 61 -72 q 63 -94 65 -117 q 67 -140 71 -162 q 73 -139 76 -116 q 80 -94 84 -72 l 104 -72 l 118 -162 q 120 -139 122 -116 q 125 -94 128 -72 z m 269 -72 l 246 -193 l 223 -193 q 216 -155 211 -113 q 209 -133 206 -153 q 202 -173 199 -193 l 174 -193 l 154 -72 l 179 -72 q 181 -94 183 -117 q 185 -140 189 -162 q 191 -139 194 -116 q 198 -94 202 -72 l 223 -72 l 236 -162 q 238 -139 240 -116 q 243 -94 246 -72 z m 387 -72 l 364 -193 l 341 -193 q 337 -173 334 -153 q 332 -133 329 -113 q 327 -133 324 -153 q 320 -173 317 -193 l 293 -193 l 272 -72 l 297 -72 q 299 -94 302 -117 q 304 -140 307 -162 q 309 -139 312 -116 q 315 -94 320 -72 l 341 -72 l 354 -162 q 356 -139 358 -116 q 361 -94 364 -72 z m 596 -136 q 604 -139 608 -146 q 611 -153 613 -162 q 615 -170 616 -178 q 617 -187 620 -193 l 592 -193 q 589 -187 588 -178 q 586 -170 584 -162 q 582 -155 578 -150 q 573 -146 563 -147 l 563 -193 l 534 -193 l 534 -73 q 549 -71 569 -70 q 589 -69 603 -78 q 620 -90 616 -109 q 612 -128 596 -136 z m 820 -193 l 792 -193 q 781 -173 772 -151 q 764 -129 753 -109 q 754 -130 754 -152 q 754 -173 754 -193 l 729 -193 l 729 -72 l 760 -72 l 797 -154 q 795 -134 794 -113 q 794 -92 794 -72 l 820 -72 z m 530 2 q 536 10 538 22 q 540 34 540 48 q 539 61 538 74 q 536 87 536 96 l 536 164 q 536 173 536 181 q 537 189 530 197 l 571 197 q 565 191 564 180 q 562 169 562 157 q 563 145 564 133 q 566 121 566 114 l 566 24 l 622 24 q 634 24 652 23 q 671 22 682 30 q 680 25 678 14 q 676 2 671 2 z m 520 -193 l 492 -193 l 484 -166 l 456 -166 l 450 -193 l 421 -193 l 453 -72 l 488 -72 z m 931 -189 q 909 -197 888 -194 q 868 -190 854 -178 q 840 -165 836 -146 q 832 -126 844 -102 q 851 -86 866 -78 q 882 -71 900 -71 q 901 -71 906 -71 q 910 -71 916 -72 q 921 -73 924 -74 q 928 -75 928 -77 l 923 -99 q 909 -92 897 -94 q 885 -96 878 -104 q 870 -112 867 -124 q 864 -137 868 -150 q 876 -175 901 -172 q 907 -171 906 -160 q 904 -150 904 -146 l 890 -146 l 890 -123 l 931 -123 z m 626 100 q 619 112 614 124 q 609 137 604 150 q 599 163 597 176 q 595 189 584 197 l 627 197 q 620 182 628 162 q 635 141 642 128 q 649 144 654 162 q 659 180 654 197 l 698 197 q 686 190 684 176 q 681 161 678 150 q 674 139 665 124 q 656 109 656 98 q 656 86 654 68 q 653 49 661 39 l 620 39 q 630 49 628 68 q 626 88 626 100 z m 374 150 q 374 159 369 165 q 364 171 357 173 q 350 175 344 172 q 338 169 336 160 q 334 152 335 144 q 336 136 336 129 q 336 109 335 88 q 334 68 336 48 q 336 40 341 34 q 346 28 352 26 q 359 23 365 26 q 371 29 373 39 q 374 46 374 54 q 374 62 374 70 z m 490 19 q 488 53 479 88 q 470 123 447 151 l 447 26 q 447 18 454 13 q 460 8 468 7 q 475 6 482 8 q 489 11 490 19 z m 280 596 q 265 592 252 582 q 239 573 228 562 q 225 558 220 548 q 214 538 210 528 q 207 517 208 508 q 210 500 221 500 q 237 500 248 511 q 258 522 264 537 q 270 552 274 568 q 277 585 280 596 z m 636 -72 l 664 -72 l 664 -193 l 636 -193 z m 277 516 q 285 518 293 526 q 301 534 306 544 q 312 555 314 566 q 317 578 314 586 q 312 592 307 595 q 302 598 297 598 q 289 578 286 557 q 282 536 277 516 z m 603 398 l 603 359 q 609 359 616 359 q 622 359 628 360 q 634 362 638 366 q 643 370 643 378 q 643 387 639 391 q 635 395 629 396 q 623 398 616 398 q 609 398 603 398 z m 694 614 q 693 619 692 622 q 691 624 686 622 q 676 618 671 610 q 666 601 664 592 q 663 589 663 584 q 663 580 664 577 q 666 574 669 573 q 672 572 677 576 q 684 582 688 593 q 693 604 694 614 z m 527 574 l 529 567 q 534 558 542 563 q 550 566 554 575 q 559 584 557 593 q 556 599 552 602 q 548 606 540 600 q 534 595 531 588 q 528 582 527 574 z m 377 -178 q 377 -170 382 -166 q 387 -162 394 -162 q 400 -162 405 -166 q 410 -170 410 -178 q 410 -186 405 -190 q 400 -195 394 -195 q 387 -195 382 -190 q 377 -186 377 -178 z m 680 -178 q 680 -170 685 -166 q 690 -162 696 -162 q 703 -162 708 -166 q 713 -170 713 -178 q 713 -186 708 -190 q 703 -195 696 -195 q 690 -195 685 -190 q 680 -186 680 -178 z m 570 -126 q 580 -126 584 -120 q 589 -115 588 -108 q 587 -101 582 -96 q 576 -91 567 -92 q 564 -92 563 -96 q 562 -101 562 -106 q 562 -112 562 -118 q 563 -123 563 -126 z m 481 -144 q 476 -120 470 -94 l 459 -144 z m 474 576 q 471 571 466 563 q 462 555 463 550 q 465 543 472 544 q 479 545 480 552 q 481 563 474 576 z m 344 536 q 351 534 360 544 q 369 554 370 559 q 372 563 369 566 q 366 568 362 564 q 356 559 352 552 q 348 544 344 536 z m 772 674 l 771 674 q 751 654 744 628 q 753 639 762 650 q 770 660 772 674 z m 412 599 l 414 599 q 414 603 415 606 q 416 609 414 613 q 411 613 410 610 q 409 605 412 599 z"}," ":{"x_min":0,"x_max":206,"ha":206,"o":""},"I":{"x_min":0,"x_max":635,"ha":635,"o":"m 808 661 q 815 661 824 658 q 834 654 834 642 q 834 632 824 620 q 813 607 796 594 q 779 580 758 566 q 736 553 714 543 l 676 527 q 656 495 640 466 q 625 437 616 420 l 440 72 q 368 -71 298 -138 q 227 -204 155 -204 q 124 -204 96 -194 q 69 -184 49 -166 q 29 -148 17 -122 q 5 -96 5 -64 q 5 -28 23 5 q 41 38 74 61 q 75 62 78 62 q 88 62 88 53 q 88 50 84 46 q 51 24 36 -6 q 22 -36 22 -65 q 22 -85 30 -106 q 37 -128 52 -146 q 68 -163 92 -174 q 117 -186 151 -186 q 196 -186 237 -152 q 278 -117 316 -60 q 354 -3 390 70 q 425 144 460 220 q 495 297 530 371 q 566 445 603 504 q 547 490 493 482 q 439 474 390 467 q 340 460 296 452 q 252 443 218 427 q 167 400 146 360 q 125 321 125 281 q 125 255 134 228 q 143 202 160 180 q 177 159 202 146 q 227 132 260 132 q 297 132 328 152 q 358 172 380 205 q 384 209 387 209 q 391 209 394 206 q 396 203 396 200 q 396 197 394 195 q 366 153 324 130 q 283 106 237 106 q 209 106 181 116 q 153 127 130 147 q 108 167 94 194 q 80 222 80 257 q 80 304 104 346 q 128 388 170 419 q 206 446 256 458 q 305 471 363 480 q 421 488 486 497 q 550 506 617 525 q 659 587 706 624 q 753 661 808 661 z m 664 541 q 677 561 692 580 q 706 598 721 614 q 698 597 672 569 q 645 541 628 511 q 584 446 544 362 q 504 279 465 194 q 426 109 387 30 q 348 -49 306 -104 q 328 -79 352 -44 q 376 -8 400 35 q 424 78 449 126 q 474 175 498 225 l 601 428 q 609 444 622 468 q 634 492 650 518 z m 706 558 q 733 570 756 584 q 779 599 794 612 q 809 626 814 635 q 818 644 808 644 q 778 644 748 617 q 719 590 693 552 z m 199 128 q 154 149 131 191 q 108 233 108 281 q 108 306 116 333 q 107 314 102 296 q 97 277 97 257 q 97 209 126 176 q 156 142 199 128 z"},"H":{"x_min":0,"x_max":847,"ha":847,"o":"m 1244 656 q 1250 654 1250 648 q 1250 640 1242 640 q 1226 640 1210 643 q 1194 646 1178 646 l 1170 646 q 1111 643 1060 619 q 1009 595 971 568 q 908 523 855 461 q 802 399 767 329 q 732 261 718 206 q 704 152 702 108 l 716 99 q 751 76 794 54 q 836 31 881 30 q 916 30 941 47 q 966 64 966 95 q 966 101 964 108 q 961 114 961 121 q 961 124 964 127 q 966 130 970 130 q 974 130 976 126 q 979 122 980 116 q 982 110 982 104 q 983 98 983 94 q 983 76 974 61 q 966 46 952 36 q 938 25 920 19 q 901 13 880 13 q 856 13 833 20 q 810 27 788 38 q 766 48 746 60 q 725 73 707 85 l 702 88 q 703 52 711 25 q 719 -2 730 -22 q 741 -42 752 -54 q 764 -67 772 -74 q 792 -91 816 -100 q 840 -109 863 -111 q 909 -111 936 -90 q 938 -89 941 -89 q 949 -89 949 -97 q 949 -105 940 -110 q 930 -116 916 -120 q 903 -124 890 -126 q 876 -128 867 -128 q 761 -128 704 -72 q 647 -17 647 86 q 647 94 648 103 q 648 112 649 120 q 619 137 582 152 q 544 168 505 179 q 462 93 420 22 q 378 -48 336 -98 q 293 -149 250 -177 q 206 -205 161 -205 q 136 -205 114 -196 q 92 -186 72 -169 q 39 -139 22 -103 q 6 -67 6 -29 q 6 3 18 36 q 29 69 54 98 q 28 132 28 178 q 28 217 48 255 q 68 293 106 328 q 144 362 198 391 q 252 420 320 442 q 389 468 442 480 q 495 491 540 500 l 608 514 q 647 581 690 622 q 733 663 784 663 q 798 663 806 655 q 814 647 814 633 q 814 612 801 594 q 788 575 766 560 q 745 545 718 533 q 691 521 663 512 l 655 496 q 646 478 632 446 q 617 414 598 374 q 579 333 558 287 q 536 241 513 194 q 550 186 586 170 q 622 154 651 139 q 659 203 685 267 q 711 331 750 389 q 789 447 838 497 q 888 547 944 584 q 999 621 1058 642 q 1118 663 1177 663 q 1194 663 1210 662 q 1227 660 1244 656 z m 308 420 q 266 404 234 386 q 203 368 180 349 q 156 330 140 312 q 124 294 114 278 q 97 251 88 223 q 80 195 80 169 q 80 159 81 150 q 82 140 85 131 q 129 169 193 192 q 257 216 340 217 q 341 222 341 226 q 341 230 341 235 q 341 248 337 260 q 333 273 333 285 q 333 287 336 290 q 338 293 341 293 q 346 293 350 286 q 353 280 355 271 q 357 262 358 252 q 358 242 358 235 q 358 230 358 226 q 358 221 357 216 q 382 216 408 213 q 433 210 460 205 l 461 205 q 462 205 462 204 l 485 257 q 513 321 540 382 q 568 442 597 494 l 544 483 q 496 473 440 461 q 383 449 308 420 z m 176 -186 q 219 -177 256 -143 q 294 -109 328 -58 q 362 -7 394 56 q 425 120 455 188 q 417 194 380 194 q 373 194 367 194 q 361 193 354 193 q 347 159 330 131 q 313 103 290 82 q 266 62 238 51 q 210 40 182 40 q 156 40 132 47 q 108 54 90 65 q 68 38 56 5 q 44 -28 44 -59 q 44 -88 54 -114 q 64 -139 84 -157 q 103 -173 127 -182 q 151 -191 176 -186 z m 336 192 q 270 185 212 160 q 153 136 109 88 q 138 57 184 57 q 209 57 234 67 q 258 77 278 94 q 298 112 314 137 q 329 162 336 192 z m 495 198 q 540 286 570 352 q 601 418 624 466 q 646 515 664 550 q 683 585 704 611 q 686 594 667 572 q 648 549 631 520 l 619 499 q 588 446 560 382 q 531 319 501 250 l 473 186 q 445 122 416 62 q 386 2 354 -49 q 388 0 422 60 q 456 120 488 183 z m 752 337 q 781 396 824 450 q 867 505 918 549 q 861 504 814 447 q 767 390 734 328 q 700 267 682 204 q 664 141 664 86 q 664 64 668 38 q 672 12 684 -13 q 695 -38 716 -60 q 737 -82 772 -95 q 758 -88 743 -72 q 728 -57 715 -32 q 702 -8 694 25 q 685 58 685 99 q 685 206 752 337 z m 784 646 q 754 646 727 613 q 700 580 675 534 q 729 553 763 579 q 797 605 797 633 q 797 637 796 642 q 794 646 784 646 z m 42 49 q 23 12 23 -28 q 23 -48 27 -63 q 27 -20 44 19 q 60 58 88 90 q 115 122 152 146 q 189 171 230 185 q 191 177 154 158 q 118 138 92 114 l 65 85 q 57 77 52 68 q 47 58 42 49 z m 46 159 q 50 133 66 111 l 72 118 q 67 129 65 144 q 63 158 63 171 q 63 249 130 326 q 84 288 64 248 q 45 209 45 176 q 45 171 45 167 q 45 163 46 159 z"}}}
